<?xml version="1.0" encoding="us-ascii" standalone="no"?><svg xmlns="http://www.w3.org/2000/svg" xmlns:xlink="http://www.w3.org/1999/xlink" contentStyleType="text/css" height="916.6667px" preserveAspectRatio="none" style="width:2534px;height:916px;" version="1.1" viewBox="0 0 2534 916" width="2534.375px" zoomAndPan="magnify"><defs><filter height="300%" id="fdip07az7fu0t" width="300%" x="-1" y="-1"><feGaussianBlur result="blurOut" stdDeviation="2.0833333333333335"/><feColorMatrix in="blurOut" result="blurOut2" type="matrix" values="0 0 0 0 0 0 0 0 0 0 0 0 0 0 0 0 0 0 .4 0"/><feOffset dx="4.166666666666667" dy="4.166666666666667" in="blurOut2" result="blurOut3"/><feBlend in="SourceGraphic" in2="blurOut3" mode="normal"/></filter></defs><g><ellipse cx="1227.474" cy="20.8333" fill="#9C27B0" filter="url(#fdip07az7fu0t)" rx="10.4167" ry="10.4167" style="stroke:#1A78C2;stroke-width:1.0416666666666667;"/><rect fill="none" filter="url(#fdip07az7fu0t)" height="48.525" rx="4.1667" ry="4.1667" style="stroke:#2196F3;stroke-width:1.0416666666666667;" width="389.5833" x="1032.6823" y="52.0833"/><text fill="#2196F3" font-family="Verdana" font-size="12.5" lengthAdjust="spacing" textLength="356.25" x="1049.349" y="81.3171">Administrador accede a la secci&#243;n "Gesti&#243;n de Pallets"</text><rect fill="none" filter="url(#fdip07az7fu0t)" height="48.525" rx="4.1667" ry="4.1667" style="stroke:#2196F3;stroke-width:1.0416666666666667;" width="216.6667" x="1119.1406" y="121.4417"/><text fill="#2196F3" font-family="Verdana" font-size="12.5" lengthAdjust="spacing" textLength="183.3333" x="1135.8073" y="150.6755">Seleccionar operaci&#243;n CRUD</text><polygon fill="none" filter="url(#fdip07az7fu0t)" points="1159.7656,190.8,1295.1823,190.8,1307.6823,208.8125,1295.1823,226.825,1159.7656,226.825,1147.2656,208.8125,1159.7656,190.8" style="stroke:#CCCCCC;stroke-width:1.0416666666666667;"/><text fill="#CCCCCC" font-family="Verdana" font-size="12.5" lengthAdjust="spacing" textLength="114.5833" x="1170.1823" y="213.7838">&#191;Registrar Pallet?</text><text fill="#222222" font-family="Verdana" font-size="12.5" lengthAdjust="spacing" textLength="11.4583" x="1125.3906" y="195.7713">S&#237;</text><text fill="#222222" font-family="Verdana" font-size="12.5" lengthAdjust="spacing" textLength="17.7083" x="1318.099" y="195.7713">No</text><rect fill="none" filter="url(#fdip07az7fu0t)" height="63.7166" rx="4.1667" ry="4.1667" style="stroke:#2196F3;stroke-width:1.0416666666666667;" width="304.1667" x="480.3385" y="237.2416"/><text fill="#2196F3" font-family="Verdana" font-size="12.5" lengthAdjust="spacing" textLength="270.8333" x="497.0052" y="266.4754">Completar formulario con datos del pallet</text><text fill="#2196F3" font-family="Verdana" font-size="12.5" lengthAdjust="spacing" textLength="125" x="569.9219" y="281.6671">(C&#243;digo, ubicaci&#243;n)</text><rect fill="none" filter="url(#fdip07az7fu0t)" height="48.525" rx="4.1667" ry="4.1667" style="stroke:#2196F3;stroke-width:1.0416666666666667;" width="188.5417" x="538.151" y="337.4166"/><text fill="#2196F3" font-family="Verdana" font-size="12.5" lengthAdjust="spacing" textLength="155.2083" x="554.8177" y="366.6504">Enviar datos al servidor</text><polygon fill="none" filter="url(#fdip07az7fu0t)" points="570.4427,422.3999,694.401,422.3999,706.901,440.4124,694.401,458.4249,570.4427,458.4249,557.9427,440.4124,570.4427,422.3999" style="stroke:#CCCCCC;stroke-width:1.0416666666666667;"/><text fill="#CCCCCC" font-family="Verdana" font-size="12.5" lengthAdjust="spacing" textLength="103.125" x="580.8594" y="445.3837">&#191;Datos v&#225;lidos?</text><text fill="#222222" font-family="Verdana" font-size="12.5" lengthAdjust="spacing" textLength="11.4583" x="536.0677" y="427.3712">S&#237;</text><text fill="#222222" font-family="Verdana" font-size="12.5" lengthAdjust="spacing" textLength="17.7083" x="717.3177" y="427.3712">No</text><polygon fill="none" filter="url(#fdip07az7fu0t)" points="282.5521,468.8416,446.0938,468.8416,458.5938,486.854,446.0938,504.8665,282.5521,504.8665,270.0521,486.854,282.5521,468.8416" style="stroke:#CCCCCC;stroke-width:1.0416666666666667;"/><text fill="#CCCCCC" font-family="Verdana" font-size="12.5" lengthAdjust="spacing" textLength="142.7083" x="292.9688" y="491.8254">&#191;Pallet ya registrado?</text><text fill="#222222" font-family="Verdana" font-size="12.5" lengthAdjust="spacing" textLength="11.4583" x="248.1771" y="473.8129">S&#237;</text><text fill="#222222" font-family="Verdana" font-size="12.5" lengthAdjust="spacing" textLength="17.7083" x="469.0104" y="473.8129">No</text><rect fill="none" filter="url(#fdip07az7fu0t)" height="48.525" rx="4.1667" ry="4.1667" style="stroke:#2196F3;stroke-width:1.0416666666666667;" width="345.8333" x="11.4583" y="515.2832"/><text fill="#2196F3" font-family="Verdana" font-size="12.5" lengthAdjust="spacing" textLength="312.5" x="28.125" y="544.517">Mostrar mensaje de error "Pallet ya registrado"</text><rect fill="none" filter="url(#fdip07az7fu0t)" height="48.525" rx="4.1667" ry="4.1667" style="stroke:#2196F3;stroke-width:1.0416666666666667;" width="268.75" x="409.8958" y="515.2832"/><text fill="#2196F3" font-family="Verdana" font-size="12.5" lengthAdjust="spacing" textLength="235.4167" x="426.5625" y="544.517">Registrar pallet en la base de datos</text><rect fill="none" filter="url(#fdip07az7fu0t)" height="48.525" rx="4.1667" ry="4.1667" style="stroke:#2196F3;stroke-width:1.0416666666666667;" width="332.2917" x="378.125" y="600.2665"/><text fill="#2196F3" font-family="Verdana" font-size="12.5" lengthAdjust="spacing" textLength="298.9583" x="394.7917" y="629.5003">Mostrar mensaje "Pallet registrado con &#233;xito"</text><polygon fill="none" filter="url(#fdip07az7fu0t)" points="364.3229,674.3998,376.8229,686.8998,364.3229,699.3998,351.8229,686.8998,364.3229,674.3998" style="stroke:#CCCCCC;stroke-width:1.0416666666666667;"/><rect fill="none" filter="url(#fdip07az7fu0t)" height="48.525" rx="4.1667" ry="4.1667" style="stroke:#2196F3;stroke-width:1.0416666666666667;" width="317.7083" x="741.6667" y="468.8416"/><text fill="#2196F3" font-family="Verdana" font-size="12.5" lengthAdjust="spacing" textLength="284.375" x="758.3333" y="498.0754">Mostrar mensaje de error "Datos inv&#225;lidos"</text><polygon fill="none" filter="url(#fdip07az7fu0t)" points="632.4219,726.4832,644.9219,738.9832,632.4219,751.4832,619.9219,738.9832,632.4219,726.4832" style="stroke:#CCCCCC;stroke-width:1.0416666666666667;"/><polygon fill="none" filter="url(#fdip07az7fu0t)" points="1765.2344,237.2416,1879.8177,237.2416,1892.3177,255.2541,1879.8177,273.2666,1765.2344,273.2666,1752.7344,255.2541,1765.2344,237.2416" style="stroke:#CCCCCC;stroke-width:1.0416666666666667;"/><text fill="#CCCCCC" font-family="Verdana" font-size="12.5" lengthAdjust="spacing" textLength="93.75" x="1775.651" y="260.2254">&#191;Editar Pallet?</text><text fill="#222222" font-family="Verdana" font-size="12.5" lengthAdjust="spacing" textLength="11.4583" x="1730.8594" y="242.2129">S&#237;</text><text fill="#222222" font-family="Verdana" font-size="12.5" lengthAdjust="spacing" textLength="17.7083" x="1902.7344" y="242.2129">No</text><rect fill="none" filter="url(#fdip07az7fu0t)" height="48.525" rx="4.1667" ry="4.1667" style="stroke:#2196F3;stroke-width:1.0416666666666667;" width="215.625" x="1352.6042" y="283.6833"/><text fill="#2196F3" font-family="Verdana" font-size="12.5" lengthAdjust="spacing" textLength="182.2917" x="1369.2708" y="312.9171">Seleccionar pallet de la lista</text><rect fill="none" filter="url(#fdip07az7fu0t)" height="63.7166" rx="4.1667" ry="4.1667" style="stroke:#2196F3;stroke-width:1.0416666666666667;" width="196.875" x="1361.9792" y="368.6666"/><text fill="#2196F3" font-family="Verdana" font-size="12.5" lengthAdjust="spacing" textLength="163.5417" x="1378.6458" y="397.9004">Modificar datos del pallet</text><text fill="#2196F3" font-family="Verdana" font-size="12.5" lengthAdjust="spacing" textLength="125" x="1397.9167" y="413.092">(ubicaci&#243;n, estado)</text><rect fill="none" filter="url(#fdip07az7fu0t)" height="48.525" rx="4.1667" ry="4.1667" style="stroke:#2196F3;stroke-width:1.0416666666666667;" width="204.1667" x="1358.3333" y="468.8416"/><text fill="#2196F3" font-family="Verdana" font-size="12.5" lengthAdjust="spacing" textLength="170.8333" x="1375" y="498.0754">Enviar cambios al servidor</text><polygon fill="none" filter="url(#fdip07az7fu0t)" points="1389.5833,553.8249,1531.25,553.8249,1543.75,571.8374,1531.25,589.8499,1389.5833,589.8499,1377.0833,571.8374,1389.5833,553.8249" style="stroke:#CCCCCC;stroke-width:1.0416666666666667;"/><text fill="#CCCCCC" font-family="Verdana" font-size="12.5" lengthAdjust="spacing" textLength="120.8333" x="1400" y="576.8087">&#191;Cambios v&#225;lidos?</text><text fill="#222222" font-family="Verdana" font-size="12.5" lengthAdjust="spacing" textLength="11.4583" x="1355.2083" y="558.7962">S&#237;</text><text fill="#222222" font-family="Verdana" font-size="12.5" lengthAdjust="spacing" textLength="17.7083" x="1554.1667" y="558.7962">No</text><rect fill="none" filter="url(#fdip07az7fu0t)" height="48.525" rx="4.1667" ry="4.1667" style="stroke:#2196F3;stroke-width:1.0416666666666667;" width="273.9583" x="1144.2708" y="600.2665"/><text fill="#2196F3" font-family="Verdana" font-size="12.5" lengthAdjust="spacing" textLength="240.625" x="1160.9375" y="629.5003">Actualizar datos en la base de datos</text><rect fill="none" filter="url(#fdip07az7fu0t)" height="48.525" rx="4.1667" ry="4.1667" style="stroke:#2196F3;stroke-width:1.0416666666666667;" width="339.5833" x="1111.4583" y="683.7748"/><text fill="#2196F3" font-family="Verdana" font-size="12.5" lengthAdjust="spacing" textLength="306.25" x="1128.125" y="713.0086">Mostrar mensaje "Pallet actualizado con &#233;xito"</text><rect fill="none" filter="url(#fdip07az7fu0t)" height="48.525" rx="4.1667" ry="4.1667" style="stroke:#2196F3;stroke-width:1.0416666666666667;" width="335.4167" x="1471.875" y="600.2665"/><text fill="#2196F3" font-family="Verdana" font-size="12.5" lengthAdjust="spacing" textLength="302.0833" x="1488.5417" y="629.5003">Mostrar mensaje de error "Cambios inv&#225;lidos"</text><polygon fill="none" filter="url(#fdip07az7fu0t)" points="1460.4167,759.3831,1472.9167,771.8831,1460.4167,784.3831,1447.9167,771.8831,1460.4167,759.3831" style="stroke:#CCCCCC;stroke-width:1.0416666666666667;"/><polygon fill="none" filter="url(#fdip07az7fu0t)" points="2121.0938,283.6833,2248.1771,283.6833,2260.6771,301.6958,2248.1771,319.7083,2121.0938,319.7083,2108.5938,301.6958,2121.0938,283.6833" style="stroke:#CCCCCC;stroke-width:1.0416666666666667;"/><text fill="#CCCCCC" font-family="Verdana" font-size="12.5" lengthAdjust="spacing" textLength="106.25" x="2131.5104" y="306.6671">&#191;Eliminar Pallet?</text><text fill="#222222" font-family="Verdana" font-size="12.5" lengthAdjust="spacing" textLength="11.4583" x="2086.7188" y="288.6546">S&#237;</text><text fill="#222222" font-family="Verdana" font-size="12.5" lengthAdjust="spacing" textLength="111.4583" x="2271.0938" y="288.6546">Consultar Pallets</text><rect fill="none" filter="url(#fdip07az7fu0t)" height="48.525" rx="4.1667" ry="4.1667" style="stroke:#2196F3;stroke-width:1.0416666666666667;" width="215.625" x="1904.6875" y="330.1249"/><text fill="#2196F3" font-family="Verdana" font-size="12.5" lengthAdjust="spacing" textLength="182.2917" x="1921.3542" y="359.3587">Seleccionar pallet de la lista</text><rect fill="none" filter="url(#fdip07az7fu0t)" height="48.525" rx="4.1667" ry="4.1667" style="stroke:#2196F3;stroke-width:1.0416666666666667;" width="172.9167" x="1926.0417" y="415.1082"/><text fill="#2196F3" font-family="Verdana" font-size="12.5" lengthAdjust="spacing" textLength="139.5833" x="1942.7083" y="444.342">Confirmar eliminaci&#243;n</text><rect fill="none" filter="url(#fdip07az7fu0t)" height="48.525" rx="4.1667" ry="4.1667" style="stroke:#2196F3;stroke-width:1.0416666666666667;" width="260.4167" x="1882.2917" y="500.0916"/><text fill="#2196F3" font-family="Verdana" font-size="12.5" lengthAdjust="spacing" textLength="227.0833" x="1898.9583" y="529.3254">Eliminar pallet de la base de datos</text><rect fill="none" filter="url(#fdip07az7fu0t)" height="48.525" rx="4.1667" ry="4.1667" style="stroke:#2196F3;stroke-width:1.0416666666666667;" width="327.0833" x="1848.9583" y="585.0749"/><text fill="#2196F3" font-family="Verdana" font-size="12.5" lengthAdjust="spacing" textLength="293.75" x="1865.625" y="614.3087">Mostrar mensaje "Pallet eliminado con &#233;xito"</text><rect fill="none" filter="url(#fdip07az7fu0t)" height="48.525" rx="4.1667" ry="4.1667" style="stroke:#2196F3;stroke-width:1.0416666666666667;" width="244.7917" x="2234.375" y="330.1249"/><text fill="#2196F3" font-family="Verdana" font-size="12.5" lengthAdjust="spacing" textLength="211.4583" x="2251.0417" y="359.3587">Cargar y mostrar lista de pallets</text><rect fill="none" filter="url(#fdip07az7fu0t)" height="48.525" rx="4.1667" ry="4.1667" style="stroke:#2196F3;stroke-width:1.0416666666666667;" width="319.7917" x="2196.875" y="415.1082"/><text fill="#2196F3" font-family="Verdana" font-size="12.5" lengthAdjust="spacing" textLength="286.4583" x="2213.5417" y="444.342">Mostrar ID y Etiqueta y Ubicaci&#243;n asociados</text><polygon fill="none" filter="url(#fdip07az7fu0t)" points="2184.6354,659.2082,2197.1354,671.7082,2184.6354,684.2082,2172.1354,671.7082,2184.6354,659.2082" style="stroke:#CCCCCC;stroke-width:1.0416666666666667;"/><polygon fill="none" filter="url(#fdip07az7fu0t)" points="1822.526,794.7998,1835.026,807.2998,1822.526,819.7998,1810.026,807.2998,1822.526,794.7998" style="stroke:#CCCCCC;stroke-width:1.0416666666666667;"/><polygon fill="none" filter="url(#fdip07az7fu0t)" points="1227.474,830.2165,1239.974,842.7165,1227.474,855.2165,1214.974,842.7165,1227.474,830.2165" style="stroke:#CCCCCC;stroke-width:1.0416666666666667;"/><ellipse cx="1227.474" cy="887.5081" fill="none" filter="url(#fdip07az7fu0t)" rx="11.4583" ry="11.4583" style="stroke:#1A78C2;stroke-width:1.0416666666666667;"/><ellipse cx="1227.474" cy="887.5081" fill="none" rx="6.25" ry="6.25" style="stroke:#1A78C2;stroke-width:1.0416666666666667;"/><line style="stroke:#2196F3;stroke-width:3.125;" x1="1227.474" x2="1227.474" y1="31.25" y2="52.0833"/><polygon fill="#2196F3" points="1223.3073,41.6667,1227.474,52.0833,1231.6406,41.6667,1227.474,45.8333" style="stroke:#2196F3;stroke-width:1.0416666666666667;"/><line style="stroke:#2196F3;stroke-width:3.125;" x1="1227.474" x2="1227.474" y1="100.6083" y2="121.4417"/><polygon fill="#2196F3" points="1223.3073,111.025,1227.474,121.4417,1231.6406,111.025,1227.474,115.1917" style="stroke:#2196F3;stroke-width:1.0416666666666667;"/><line style="stroke:#2196F3;stroke-width:3.125;" x1="632.4219" x2="632.4219" y1="300.9583" y2="337.4166"/><polygon fill="#2196F3" points="628.2552,326.9999,632.4219,337.4166,636.5885,326.9999,632.4219,331.1666" style="stroke:#2196F3;stroke-width:1.0416666666666667;"/><line style="stroke:#2196F3;stroke-width:3.125;" x1="544.2708" x2="544.2708" y1="563.8082" y2="600.2665"/><polygon fill="#2196F3" points="540.1042,589.8499,544.2708,600.2665,548.4375,589.8499,544.2708,594.0165" style="stroke:#2196F3;stroke-width:1.0416666666666667;"/><line style="stroke:#2196F3;stroke-width:3.125;" x1="270.0521" x2="184.375" y1="486.854" y2="486.854"/><line style="stroke:#2196F3;stroke-width:3.125;" x1="184.375" x2="184.375" y1="486.854" y2="515.2832"/><polygon fill="#2196F3" points="180.2083,504.8665,184.375,515.2832,188.5417,504.8665,184.375,509.0332" style="stroke:#2196F3;stroke-width:1.0416666666666667;"/><line style="stroke:#2196F3;stroke-width:3.125;" x1="458.5938" x2="544.2708" y1="486.854" y2="486.854"/><line style="stroke:#2196F3;stroke-width:3.125;" x1="544.2708" x2="544.2708" y1="486.854" y2="515.2832"/><polygon fill="#2196F3" points="540.1042,504.8665,544.2708,515.2832,548.4375,504.8665,544.2708,509.0332" style="stroke:#2196F3;stroke-width:1.0416666666666667;"/><line style="stroke:#2196F3;stroke-width:3.125;" x1="184.375" x2="184.375" y1="563.8082" y2="686.8998"/><line style="stroke:#2196F3;stroke-width:3.125;" x1="184.375" x2="351.8229" y1="686.8998" y2="686.8998"/><polygon fill="#2196F3" points="341.4063,682.7332,351.8229,686.8998,341.4063,691.0665,345.5729,686.8998" style="stroke:#2196F3;stroke-width:1.0416666666666667;"/><line style="stroke:#2196F3;stroke-width:3.125;" x1="544.2708" x2="544.2708" y1="648.7915" y2="686.8998"/><line style="stroke:#2196F3;stroke-width:3.125;" x1="544.2708" x2="376.8229" y1="686.8998" y2="686.8998"/><polygon fill="#2196F3" points="387.2396,682.7332,376.8229,686.8998,387.2396,691.0665,383.0729,686.8998" style="stroke:#2196F3;stroke-width:1.0416666666666667;"/><line style="stroke:#2196F3;stroke-width:3.125;" x1="557.9427" x2="364.3229" y1="440.4124" y2="440.4124"/><line style="stroke:#2196F3;stroke-width:3.125;" x1="364.3229" x2="364.3229" y1="440.4124" y2="468.8416"/><polygon fill="#2196F3" points="360.1563,458.4249,364.3229,468.8416,368.4896,458.4249,364.3229,462.5916" style="stroke:#2196F3;stroke-width:1.0416666666666667;"/><line style="stroke:#2196F3;stroke-width:3.125;" x1="706.901" x2="900.5208" y1="440.4124" y2="440.4124"/><line style="stroke:#2196F3;stroke-width:3.125;" x1="900.5208" x2="900.5208" y1="440.4124" y2="468.8416"/><polygon fill="#2196F3" points="896.3542,458.4249,900.5208,468.8416,904.6875,458.4249,900.5208,462.5916" style="stroke:#2196F3;stroke-width:1.0416666666666667;"/><line style="stroke:#2196F3;stroke-width:3.125;" x1="364.3229" x2="364.3229" y1="699.3998" y2="738.9832"/><line style="stroke:#2196F3;stroke-width:3.125;" x1="364.3229" x2="619.9219" y1="738.9832" y2="738.9832"/><polygon fill="#2196F3" points="609.5052,734.8165,619.9219,738.9832,609.5052,743.1498,613.6719,738.9832" style="stroke:#2196F3;stroke-width:1.0416666666666667;"/><line style="stroke:#2196F3;stroke-width:3.125;" x1="900.5208" x2="900.5208" y1="517.3665" y2="738.9832"/><line style="stroke:#2196F3;stroke-width:3.125;" x1="900.5208" x2="644.9219" y1="738.9832" y2="738.9832"/><polygon fill="#2196F3" points="655.3385,734.8165,644.9219,738.9832,655.3385,743.1498,651.1719,738.9832" style="stroke:#2196F3;stroke-width:1.0416666666666667;"/><line style="stroke:#2196F3;stroke-width:3.125;" x1="632.4219" x2="632.4219" y1="385.9416" y2="422.3999"/><polygon fill="#2196F3" points="628.2552,411.9832,632.4219,422.3999,636.5885,411.9832,632.4219,416.1499" style="stroke:#2196F3;stroke-width:1.0416666666666667;"/><line style="stroke:#2196F3;stroke-width:3.125;" x1="1460.4167" x2="1460.4167" y1="332.2083" y2="368.6666"/><polygon fill="#2196F3" points="1456.25,358.2499,1460.4167,368.6666,1464.5833,358.2499,1460.4167,362.4166" style="stroke:#2196F3;stroke-width:1.0416666666666667;"/><line style="stroke:#2196F3;stroke-width:3.125;" x1="1460.4167" x2="1460.4167" y1="432.3832" y2="468.8416"/><polygon fill="#2196F3" points="1456.25,458.4249,1460.4167,468.8416,1464.5833,458.4249,1460.4167,462.5916" style="stroke:#2196F3;stroke-width:1.0416666666666667;"/><line style="stroke:#2196F3;stroke-width:3.125;" x1="1281.25" x2="1281.25" y1="648.7915" y2="683.7748"/><polygon fill="#2196F3" points="1277.0833,673.3582,1281.25,683.7748,1285.4167,673.3582,1281.25,677.5248" style="stroke:#2196F3;stroke-width:1.0416666666666667;"/><line style="stroke:#2196F3;stroke-width:3.125;" x1="1377.0833" x2="1281.25" y1="571.8374" y2="571.8374"/><line style="stroke:#2196F3;stroke-width:3.125;" x1="1281.25" x2="1281.25" y1="571.8374" y2="600.2665"/><polygon fill="#2196F3" points="1277.0833,589.8499,1281.25,600.2665,1285.4167,589.8499,1281.25,594.0165" style="stroke:#2196F3;stroke-width:1.0416666666666667;"/><line style="stroke:#2196F3;stroke-width:3.125;" x1="1543.75" x2="1639.5833" y1="571.8374" y2="571.8374"/><line style="stroke:#2196F3;stroke-width:3.125;" x1="1639.5833" x2="1639.5833" y1="571.8374" y2="600.2665"/><polygon fill="#2196F3" points="1635.4167,589.8499,1639.5833,600.2665,1643.75,589.8499,1639.5833,594.0165" style="stroke:#2196F3;stroke-width:1.0416666666666667;"/><line style="stroke:#2196F3;stroke-width:3.125;" x1="1281.25" x2="1281.25" y1="732.2998" y2="771.8831"/><line style="stroke:#2196F3;stroke-width:3.125;" x1="1281.25" x2="1447.9167" y1="771.8831" y2="771.8831"/><polygon fill="#2196F3" points="1437.5,767.7165,1447.9167,771.8831,1437.5,776.0498,1441.6667,771.8831" style="stroke:#2196F3;stroke-width:1.0416666666666667;"/><line style="stroke:#2196F3;stroke-width:3.125;" x1="1639.5833" x2="1639.5833" y1="648.7915" y2="771.8831"/><line style="stroke:#2196F3;stroke-width:3.125;" x1="1639.5833" x2="1472.9167" y1="771.8831" y2="771.8831"/><polygon fill="#2196F3" points="1483.3333,767.7165,1472.9167,771.8831,1483.3333,776.0498,1479.1667,771.8831" style="stroke:#2196F3;stroke-width:1.0416666666666667;"/><line style="stroke:#2196F3;stroke-width:3.125;" x1="1460.4167" x2="1460.4167" y1="517.3665" y2="553.8249"/><polygon fill="#2196F3" points="1456.25,543.4082,1460.4167,553.8249,1464.5833,543.4082,1460.4167,547.5749" style="stroke:#2196F3;stroke-width:1.0416666666666667;"/><line style="stroke:#2196F3;stroke-width:3.125;" x1="2012.5" x2="2012.5" y1="378.6499" y2="415.1082"/><polygon fill="#2196F3" points="2008.3333,404.6916,2012.5,415.1082,2016.6667,404.6916,2012.5,408.8582" style="stroke:#2196F3;stroke-width:1.0416666666666667;"/><line style="stroke:#2196F3;stroke-width:3.125;" x1="2012.5" x2="2012.5" y1="463.6332" y2="500.0916"/><polygon fill="#2196F3" points="2008.3333,489.6749,2012.5,500.0916,2016.6667,489.6749,2012.5,493.8416" style="stroke:#2196F3;stroke-width:1.0416666666666667;"/><line style="stroke:#2196F3;stroke-width:3.125;" x1="2012.5" x2="2012.5" y1="548.6165" y2="585.0749"/><polygon fill="#2196F3" points="2008.3333,574.6582,2012.5,585.0749,2016.6667,574.6582,2012.5,578.8249" style="stroke:#2196F3;stroke-width:1.0416666666666667;"/><line style="stroke:#2196F3;stroke-width:3.125;" x1="2356.7708" x2="2356.7708" y1="378.6499" y2="415.1082"/><polygon fill="#2196F3" points="2352.6042,404.6916,2356.7708,415.1082,2360.9375,404.6916,2356.7708,408.8582" style="stroke:#2196F3;stroke-width:1.0416666666666667;"/><line style="stroke:#2196F3;stroke-width:3.125;" x1="2108.5938" x2="2012.5" y1="301.6958" y2="301.6958"/><line style="stroke:#2196F3;stroke-width:3.125;" x1="2012.5" x2="2012.5" y1="301.6958" y2="330.1249"/><polygon fill="#2196F3" points="2008.3333,319.7083,2012.5,330.1249,2016.6667,319.7083,2012.5,323.8749" style="stroke:#2196F3;stroke-width:1.0416666666666667;"/><line style="stroke:#2196F3;stroke-width:3.125;" x1="2260.6771" x2="2356.7708" y1="301.6958" y2="301.6958"/><line style="stroke:#2196F3;stroke-width:3.125;" x1="2356.7708" x2="2356.7708" y1="301.6958" y2="330.1249"/><polygon fill="#2196F3" points="2352.6042,319.7083,2356.7708,330.1249,2360.9375,319.7083,2356.7708,323.8749" style="stroke:#2196F3;stroke-width:1.0416666666666667;"/><line style="stroke:#2196F3;stroke-width:3.125;" x1="2012.5" x2="2012.5" y1="633.5999" y2="671.7082"/><line style="stroke:#2196F3;stroke-width:3.125;" x1="2012.5" x2="2172.1354" y1="671.7082" y2="671.7082"/><polygon fill="#2196F3" points="2161.7188,667.5415,2172.1354,671.7082,2161.7188,675.8748,2165.8854,671.7082" style="stroke:#2196F3;stroke-width:1.0416666666666667;"/><line style="stroke:#2196F3;stroke-width:3.125;" x1="2356.7708" x2="2356.7708" y1="463.6332" y2="671.7082"/><line style="stroke:#2196F3;stroke-width:3.125;" x1="2356.7708" x2="2197.1354" y1="671.7082" y2="671.7082"/><polygon fill="#2196F3" points="2207.5521,667.5415,2197.1354,671.7082,2207.5521,675.8748,2203.3854,671.7082" style="stroke:#2196F3;stroke-width:1.0416666666666667;"/><line style="stroke:#2196F3;stroke-width:3.125;" x1="1752.7344" x2="1460.4167" y1="255.2541" y2="255.2541"/><line style="stroke:#2196F3;stroke-width:3.125;" x1="1460.4167" x2="1460.4167" y1="255.2541" y2="283.6833"/><polygon fill="#2196F3" points="1456.25,273.2666,1460.4167,283.6833,1464.5833,273.2666,1460.4167,277.4333" style="stroke:#2196F3;stroke-width:1.0416666666666667;"/><line style="stroke:#2196F3;stroke-width:3.125;" x1="1892.3177" x2="2184.6354" y1="255.2541" y2="255.2541"/><line style="stroke:#2196F3;stroke-width:3.125;" x1="2184.6354" x2="2184.6354" y1="255.2541" y2="283.6833"/><polygon fill="#2196F3" points="2180.4688,273.2666,2184.6354,283.6833,2188.8021,273.2666,2184.6354,277.4333" style="stroke:#2196F3;stroke-width:1.0416666666666667;"/><line style="stroke:#2196F3;stroke-width:3.125;" x1="1460.4167" x2="1460.4167" y1="784.3831" y2="807.2998"/><line style="stroke:#2196F3;stroke-width:3.125;" x1="1460.4167" x2="1810.026" y1="807.2998" y2="807.2998"/><polygon fill="#2196F3" points="1799.6094,803.1331,1810.026,807.2998,1799.6094,811.4665,1803.776,807.2998" style="stroke:#2196F3;stroke-width:1.0416666666666667;"/><line style="stroke:#2196F3;stroke-width:3.125;" x1="2184.6354" x2="2184.6354" y1="684.2082" y2="807.2998"/><line style="stroke:#2196F3;stroke-width:3.125;" x1="2184.6354" x2="1835.026" y1="807.2998" y2="807.2998"/><polygon fill="#2196F3" points="1845.4427,803.1331,1835.026,807.2998,1845.4427,811.4665,1841.276,807.2998" style="stroke:#2196F3;stroke-width:1.0416666666666667;"/><line style="stroke:#2196F3;stroke-width:3.125;" x1="1147.2656" x2="632.4219" y1="208.8125" y2="208.8125"/><line style="stroke:#2196F3;stroke-width:3.125;" x1="632.4219" x2="632.4219" y1="208.8125" y2="237.2416"/><polygon fill="#2196F3" points="628.2552,226.825,632.4219,237.2416,636.5885,226.825,632.4219,230.9916" style="stroke:#2196F3;stroke-width:1.0416666666666667;"/><line style="stroke:#2196F3;stroke-width:3.125;" x1="1307.6823" x2="1822.526" y1="208.8125" y2="208.8125"/><line style="stroke:#2196F3;stroke-width:3.125;" x1="1822.526" x2="1822.526" y1="208.8125" y2="237.2416"/><polygon fill="#2196F3" points="1818.3594,226.825,1822.526,237.2416,1826.6927,226.825,1822.526,230.9916" style="stroke:#2196F3;stroke-width:1.0416666666666667;"/><line style="stroke:#2196F3;stroke-width:3.125;" x1="632.4219" x2="632.4219" y1="751.4832" y2="842.7165"/><line style="stroke:#2196F3;stroke-width:3.125;" x1="632.4219" x2="1214.974" y1="842.7165" y2="842.7165"/><polygon fill="#2196F3" points="1204.5573,838.5498,1214.974,842.7165,1204.5573,846.8831,1208.724,842.7165" style="stroke:#2196F3;stroke-width:1.0416666666666667;"/><line style="stroke:#2196F3;stroke-width:3.125;" x1="1822.526" x2="1822.526" y1="819.7998" y2="842.7165"/><line style="stroke:#2196F3;stroke-width:3.125;" x1="1822.526" x2="1239.974" y1="842.7165" y2="842.7165"/><polygon fill="#2196F3" points="1250.3906,838.5498,1239.974,842.7165,1250.3906,846.8831,1246.224,842.7165" style="stroke:#2196F3;stroke-width:1.0416666666666667;"/><line style="stroke:#2196F3;stroke-width:3.125;" x1="1227.474" x2="1227.474" y1="169.9666" y2="190.8"/><polygon fill="#2196F3" points="1223.3073,180.3833,1227.474,190.8,1231.6406,180.3833,1227.474,184.55" style="stroke:#2196F3;stroke-width:1.0416666666666667;"/><line style="stroke:#2196F3;stroke-width:3.125;" x1="1227.474" x2="1227.474" y1="855.2165" y2="876.0498"/><polygon fill="#2196F3" points="1223.3073,865.6331,1227.474,876.0498,1231.6406,865.6331,1227.474,869.7998" style="stroke:#2196F3;stroke-width:1.0416666666666667;"/><!--SRC=[dLH1ZjD04Bpx5KrEYRHy83wWo8aG1n3QPMzSEdOdsp2UCJFZQCDlE7BWj0z0mX-ZFMCxmObNmCMofhkhggl6Vk4Vg2GeqPDbV6bghrXJuZwphj1Y2GNji5R-0ptwbUAzBabxoEL1zgoh7VB7Yi1O_s2In7cqFbckYf8rEs-nC1OmpwaWG508ZlAScoSDizVaV7YJqdjKYhoRfKcol2FLzXYD5an55cD_Tdk_bZBlOFxhvotj0xhj9byjGFRHCBzhVYmIW6LcoahEfM5dR5ahj6mWDqA6tZYXL525oOzwdZLF1U_D3THRpYFR8cr1Dlh0WX17K8bsUs1Pg2r67UjGEZJVb9oxiOg-Asg48uBjT1VcibS8tvgub7Zjy1Erpf2ruk3i6iGi3NEa7C7ydHbGJkR45K5enFajke0OracdA7kc4qsmhVd-o7vWr0NlaZ7pC-gZJQnxem9EH3d7Y6vj2lQJmGhD-Vte5XGcML29O4nxBG8kQTfhWPzolW6vXBBZeXlh4i-ntF9bvht2h2jFvovGgzpNgFZh8E5_Ki0Uv6eCu-2d0-WLZoAOYh8BGh5ynSz4yPTXXCzHxzYMqaGHDBW_b0UcFo3-pQeEUDeeqU3aXpRiuuObChHxEJv2sM47yIrrr7D9_cOjtHlFNshvnyZh_N2Z09t9MMIuaS7njeUdywRw3G00]--></g></svg>