<?xml version="1.0" encoding="us-ascii" standalone="no"?><svg xmlns="http://www.w3.org/2000/svg" xmlns:xlink="http://www.w3.org/1999/xlink" contentStyleType="text/css" height="532.2917px" preserveAspectRatio="none" style="width:1461px;height:532px;" version="1.1" viewBox="0 0 1461 532" width="1461.4583px" zoomAndPan="magnify"><defs><filter height="300%" id="f1b2q1zg4rk3eu" width="300%" x="-1" y="-1"><feGaussianBlur result="blurOut" stdDeviation="2.0833333333333335"/><feColorMatrix in="blurOut" result="blurOut2" type="matrix" values="0 0 0 0 0 0 0 0 0 0 0 0 0 0 0 0 0 0 .4 0"/><feOffset dx="4.166666666666667" dy="4.166666666666667" in="blurOut2" result="blurOut3"/><feBlend in="SourceGraphic" in2="blurOut3" mode="normal"/></filter></defs><g><ellipse cx="481.25" cy="20.8333" fill="#9C27B0" filter="url(#f1b2q1zg4rk3eu)" rx="10.4167" ry="10.4167" style="stroke:#1A78C2;stroke-width:1.0416666666666667;"/><rect fill="none" filter="url(#f1b2q1zg4rk3eu)" height="48.525" rx="4.1667" ry="4.1667" style="stroke:#2196F3;stroke-width:1.0416666666666667;" width="279.1667" x="341.6667" y="52.0833"/><text fill="#2196F3" font-family="Verdana" font-size="12.5" lengthAdjust="spacing" textLength="245.8333" x="358.3333" y="81.3171">Usuario ingresa usuario y contrase&#241;a</text><polygon fill="none" filter="url(#f1b2q1zg4rk3eu)" points="394.2708,121.4417,568.2292,121.4417,580.7292,139.4541,568.2292,157.4666,394.2708,157.4666,381.7708,139.4541,394.2708,121.4417" style="stroke:#CCCCCC;stroke-width:1.0416666666666667;"/><text fill="#CCCCCC" font-family="Verdana" font-size="12.5" lengthAdjust="spacing" textLength="153.125" x="404.6875" y="144.4255">&#191;Olvid&#243; su contrase&#241;a?</text><text fill="#222222" font-family="Verdana" font-size="12.5" lengthAdjust="spacing" textLength="11.4583" x="359.8958" y="126.413">S&#237;</text><text fill="#222222" font-family="Verdana" font-size="12.5" lengthAdjust="spacing" textLength="17.7083" x="591.1458" y="126.413">No</text><rect fill="none" filter="url(#f1b2q1zg4rk3eu)" height="48.525" rx="4.1667" ry="4.1667" style="stroke:#2196F3;stroke-width:1.0416666666666667;" width="319.7917" x="11.4583" y="167.8833"/><text fill="#2196F3" font-family="Verdana" font-size="12.5" lengthAdjust="spacing" textLength="286.4583" x="28.125" y="197.1171">Usuario selecciona "Recuperar Contrase&#241;a"</text><rect fill="none" filter="url(#f1b2q1zg4rk3eu)" height="48.525" rx="4.1667" ry="4.1667" style="stroke:#2196F3;stroke-width:1.0416666666666667;" width="194.7917" x="73.9583" y="252.8666"/><text fill="#2196F3" font-family="Verdana" font-size="12.5" lengthAdjust="spacing" textLength="161.4583" x="90.625" y="282.1004">Solicitar email registrado</text><rect fill="none" filter="url(#f1b2q1zg4rk3eu)" height="48.525" rx="4.1667" ry="4.1667" style="stroke:#2196F3;stroke-width:1.0416666666666667;" width="303.125" x="19.7917" y="337.8499"/><text fill="#2196F3" font-family="Verdana" font-size="12.5" lengthAdjust="spacing" textLength="269.7917" x="36.4583" y="367.0837">Enviar correo con enlace de recuperaci&#243;n</text><ellipse cx="171.3542" cy="426.5666" fill="none" filter="url(#f1b2q1zg4rk3eu)" rx="11.4583" ry="11.4583" style="stroke:#1A78C2;stroke-width:1.0416666666666667;"/><ellipse cx="171.3542" cy="426.5666" fill="none" rx="6.25" ry="6.25" style="stroke:#1A78C2;stroke-width:1.0416666666666667;"/><polygon fill="none" filter="url(#f1b2q1zg4rk3eu)" points="735.4167,167.8833,868.75,167.8833,881.25,185.8958,868.75,203.9083,735.4167,203.9083,722.9167,185.8958,735.4167,167.8833" style="stroke:#CCCCCC;stroke-width:1.0416666666666667;"/><text fill="#CCCCCC" font-family="Verdana" font-size="12.5" lengthAdjust="spacing" textLength="112.5" x="745.8333" y="190.8671">&#191;Campos vac&#237;os?</text><text fill="#222222" font-family="Verdana" font-size="12.5" lengthAdjust="spacing" textLength="11.4583" x="701.0417" y="172.8546">S&#237;</text><text fill="#222222" font-family="Verdana" font-size="12.5" lengthAdjust="spacing" textLength="17.7083" x="891.6667" y="172.8546">No</text><rect fill="none" filter="url(#f1b2q1zg4rk3eu)" height="48.525" rx="4.1667" ry="4.1667" style="stroke:#2196F3;stroke-width:1.0416666666666667;" width="357.2917" x="351.5625" y="214.325"/><text fill="#2196F3" font-family="Verdana" font-size="12.5" lengthAdjust="spacing" textLength="323.9583" x="368.2292" y="243.5588">Mostrar mensaje de error "Complete los campos"</text><ellipse cx="530.2083" cy="310.7666" fill="none" filter="url(#f1b2q1zg4rk3eu)" rx="11.4583" ry="11.4583" style="stroke:#1A78C2;stroke-width:1.0416666666666667;"/><ellipse cx="530.2083" cy="310.7666" fill="none" rx="6.25" ry="6.25" style="stroke:#1A78C2;stroke-width:1.0416666666666667;"/><rect fill="none" filter="url(#f1b2q1zg4rk3eu)" height="48.525" rx="4.1667" ry="4.1667" style="stroke:#2196F3;stroke-width:1.0416666666666667;" width="232.2917" x="957.8125" y="214.325"/><text fill="#2196F3" font-family="Verdana" font-size="12.5" lengthAdjust="spacing" textLength="198.9583" x="974.4792" y="243.5588">Enviar credenciales al servidor</text><polygon fill="none" filter="url(#f1b2q1zg4rk3eu)" points="989.0625,299.3083,1158.8542,299.3083,1171.3542,317.3208,1158.8542,335.3333,989.0625,335.3333,976.5625,317.3208,989.0625,299.3083" style="stroke:#CCCCCC;stroke-width:1.0416666666666667;"/><text fill="#CCCCCC" font-family="Verdana" font-size="12.5" lengthAdjust="spacing" textLength="148.9583" x="999.4792" y="322.2921">&#191;Credenciales v&#225;lidas?</text><text fill="#222222" font-family="Verdana" font-size="12.5" lengthAdjust="spacing" textLength="11.4583" x="954.6875" y="304.2796">S&#237;</text><text fill="#222222" font-family="Verdana" font-size="12.5" lengthAdjust="spacing" textLength="17.7083" x="1181.7708" y="304.2796">No</text><rect fill="none" filter="url(#f1b2q1zg4rk3eu)" height="48.525" rx="4.1667" ry="4.1667" style="stroke:#2196F3;stroke-width:1.0416666666666667;" width="305.2083" x="740.1042" y="345.7499"/><text fill="#2196F3" font-family="Verdana" font-size="12.5" lengthAdjust="spacing" textLength="271.875" x="756.7708" y="374.9837">Obtener datos del usuario (rol, permisos)</text><rect fill="none" filter="url(#f1b2q1zg4rk3eu)" height="48.525" rx="4.1667" ry="4.1667" style="stroke:#2196F3;stroke-width:1.0416666666666667;" width="201.0417" x="792.1875" y="423.0082"/><text fill="#2196F3" font-family="Verdana" font-size="12.5" lengthAdjust="spacing" textLength="167.7083" x="808.8542" y="452.242">Redirigir al panel principal</text><ellipse cx="892.7083" cy="503.8249" fill="none" filter="url(#f1b2q1zg4rk3eu)" rx="11.4583" ry="11.4583" style="stroke:#1A78C2;stroke-width:1.0416666666666667;"/><ellipse cx="892.7083" cy="503.8249" fill="none" rx="6.25" ry="6.25" style="stroke:#1A78C2;stroke-width:1.0416666666666667;"/><rect fill="none" filter="url(#f1b2q1zg4rk3eu)" height="48.525" rx="4.1667" ry="4.1667" style="stroke:#2196F3;stroke-width:1.0416666666666667;" width="378.125" x="1066.1458" y="345.7499"/><text fill="#2196F3" font-family="Verdana" font-size="12.5" lengthAdjust="spacing" textLength="344.7917" x="1082.8125" y="374.9837">Mostrar mensaje de error "Credenciales incorrectas"</text><ellipse cx="1255.2083" cy="434.4666" fill="none" filter="url(#f1b2q1zg4rk3eu)" rx="11.4583" ry="11.4583" style="stroke:#1A78C2;stroke-width:1.0416666666666667;"/><ellipse cx="1255.2083" cy="434.4666" fill="none" rx="6.25" ry="6.25" style="stroke:#1A78C2;stroke-width:1.0416666666666667;"/><line style="stroke:#2196F3;stroke-width:3.125;" x1="481.25" x2="481.25" y1="31.25" y2="52.0833"/><polygon fill="#2196F3" points="477.0833,41.6667,481.25,52.0833,485.4167,41.6667,481.25,45.8333" style="stroke:#2196F3;stroke-width:1.0416666666666667;"/><line style="stroke:#2196F3;stroke-width:3.125;" x1="171.3542" x2="171.3542" y1="216.4083" y2="252.8666"/><polygon fill="#2196F3" points="167.1875,242.45,171.3542,252.8666,175.5208,242.45,171.3542,246.6166" style="stroke:#2196F3;stroke-width:1.0416666666666667;"/><line style="stroke:#2196F3;stroke-width:3.125;" x1="171.3542" x2="171.3542" y1="301.3916" y2="337.8499"/><polygon fill="#2196F3" points="167.1875,327.4333,171.3542,337.8499,175.5208,327.4333,171.3542,331.5999" style="stroke:#2196F3;stroke-width:1.0416666666666667;"/><line style="stroke:#2196F3;stroke-width:3.125;" x1="171.3542" x2="171.3542" y1="386.3749" y2="415.1082"/><polygon fill="#2196F3" points="167.1875,404.6916,171.3542,415.1082,175.5208,404.6916,171.3542,408.8582" style="stroke:#2196F3;stroke-width:1.0416666666666667;"/><line style="stroke:#2196F3;stroke-width:3.125;" x1="530.2083" x2="530.2083" y1="262.8499" y2="299.3083"/><polygon fill="#2196F3" points="526.0417,288.8916,530.2083,299.3083,534.375,288.8916,530.2083,293.0583" style="stroke:#2196F3;stroke-width:1.0416666666666667;"/><line style="stroke:#2196F3;stroke-width:3.125;" x1="892.7083" x2="892.7083" y1="394.2749" y2="423.0082"/><polygon fill="#2196F3" points="888.5417,412.5916,892.7083,423.0082,896.875,412.5916,892.7083,416.7582" style="stroke:#2196F3;stroke-width:1.0416666666666667;"/><line style="stroke:#2196F3;stroke-width:3.125;" x1="892.7083" x2="892.7083" y1="471.5332" y2="492.3665"/><polygon fill="#2196F3" points="888.5417,481.9499,892.7083,492.3665,896.875,481.9499,892.7083,486.1165" style="stroke:#2196F3;stroke-width:1.0416666666666667;"/><line style="stroke:#2196F3;stroke-width:3.125;" x1="1255.2083" x2="1255.2083" y1="394.2749" y2="423.0082"/><polygon fill="#2196F3" points="1251.0417,412.5916,1255.2083,423.0082,1259.375,412.5916,1255.2083,416.7582" style="stroke:#2196F3;stroke-width:1.0416666666666667;"/><line style="stroke:#2196F3;stroke-width:3.125;" x1="976.5625" x2="892.7083" y1="317.3208" y2="317.3208"/><line style="stroke:#2196F3;stroke-width:3.125;" x1="892.7083" x2="892.7083" y1="317.3208" y2="345.7499"/><polygon fill="#2196F3" points="888.5417,335.3333,892.7083,345.7499,896.875,335.3333,892.7083,339.4999" style="stroke:#2196F3;stroke-width:1.0416666666666667;"/><line style="stroke:#2196F3;stroke-width:3.125;" x1="1171.3542" x2="1255.2083" y1="317.3208" y2="317.3208"/><line style="stroke:#2196F3;stroke-width:3.125;" x1="1255.2083" x2="1255.2083" y1="317.3208" y2="345.7499"/><polygon fill="#2196F3" points="1251.0417,335.3333,1255.2083,345.7499,1259.375,335.3333,1255.2083,339.4999" style="stroke:#2196F3;stroke-width:1.0416666666666667;"/><line style="stroke:#2196F3;stroke-width:3.125;" x1="1073.9583" x2="1073.9583" y1="262.8499" y2="299.3083"/><polygon fill="#2196F3" points="1069.7917,288.8916,1073.9583,299.3083,1078.125,288.8916,1073.9583,293.0583" style="stroke:#2196F3;stroke-width:1.0416666666666667;"/><line style="stroke:#2196F3;stroke-width:3.125;" x1="722.9167" x2="530.2083" y1="185.8958" y2="185.8958"/><line style="stroke:#2196F3;stroke-width:3.125;" x1="530.2083" x2="530.2083" y1="185.8958" y2="214.325"/><polygon fill="#2196F3" points="526.0417,203.9083,530.2083,214.325,534.375,203.9083,530.2083,208.075" style="stroke:#2196F3;stroke-width:1.0416666666666667;"/><line style="stroke:#2196F3;stroke-width:3.125;" x1="881.25" x2="1073.9583" y1="185.8958" y2="185.8958"/><line style="stroke:#2196F3;stroke-width:3.125;" x1="1073.9583" x2="1073.9583" y1="185.8958" y2="214.325"/><polygon fill="#2196F3" points="1069.7917,203.9083,1073.9583,214.325,1078.125,203.9083,1073.9583,208.075" style="stroke:#2196F3;stroke-width:1.0416666666666667;"/><line style="stroke:#2196F3;stroke-width:3.125;" x1="381.7708" x2="171.3542" y1="139.4541" y2="139.4541"/><line style="stroke:#2196F3;stroke-width:3.125;" x1="171.3542" x2="171.3542" y1="139.4541" y2="167.8833"/><polygon fill="#2196F3" points="167.1875,157.4666,171.3542,167.8833,175.5208,157.4666,171.3542,161.6333" style="stroke:#2196F3;stroke-width:1.0416666666666667;"/><line style="stroke:#2196F3;stroke-width:3.125;" x1="580.7292" x2="802.0833" y1="139.4541" y2="139.4541"/><line style="stroke:#2196F3;stroke-width:3.125;" x1="802.0833" x2="802.0833" y1="139.4541" y2="167.8833"/><polygon fill="#2196F3" points="797.9167,157.4666,802.0833,167.8833,806.25,157.4666,802.0833,161.6333" style="stroke:#2196F3;stroke-width:1.0416666666666667;"/><line style="stroke:#2196F3;stroke-width:3.125;" x1="481.25" x2="481.25" y1="100.6083" y2="121.4417"/><polygon fill="#2196F3" points="477.0833,111.025,481.25,121.4417,485.4167,111.025,481.25,115.1917" style="stroke:#2196F3;stroke-width:1.0416666666666667;"/><!--SRC=[VP51RXin34NtSmh6AnjeBr0lYi3eiZLWDmTW9TfXmn45IcF4n-a1l2XyW0ATYuKpjjD1K6IZmO2V_pzztTL7QWbQh6IC7xMhmecQyiGfes4BaNROIVrEp_LUU9zQIXM27sGJrR1KZvb0hJvgqvIALfjF3wL3OmLEUwE2q5t_Zn0qLSD2_MzSDho3-Ty_QpbmxCzGkkdqym8SCS5ysvyM3S2hPo6X45WJmcn3eSjaQB3wjpbR3lAj2WTs7A0MMS1epyKbKSVnbtHWdmKr8nroWP9W8B-tIo-kWVjp6jIbQcv82i7ycmum5_0LjbaB733q9orlWJtagmw91jvTmP-ZDvcfmMobRHQg1E86OVGPiQzP0DEq2QvHf1GOXGgWU1VctQbTLgzKKysX_oKSyJzmRhh-KIcHGSJg597azPtcfl81l8EMYvR5yhQneSZ6UxOXF6FobMpiOHdb9hfUuEqLtgzZokn-mwk4YhTEfgOfygwvVSVp1G00]--></g></svg>