<?xml version="1.0" encoding="us-ascii" standalone="no"?><svg xmlns="http://www.w3.org/2000/svg" xmlns:xlink="http://www.w3.org/1999/xlink" contentStyleType="text/css" height="880.2083px" preserveAspectRatio="none" style="width:783px;height:880px;" version="1.1" viewBox="0 0 783 880" width="783.3333px" zoomAndPan="magnify"><defs><filter height="300%" id="f1cotjj3h5fdqc" width="300%" x="-1" y="-1"><feGaussianBlur result="blurOut" stdDeviation="2.0833333333333335"/><feColorMatrix in="blurOut" result="blurOut2" type="matrix" values="0 0 0 0 0 0 0 0 0 0 0 0 0 0 0 0 0 0 .4 0"/><feOffset dx="4.166666666666667" dy="4.166666666666667" in="blurOut2" result="blurOut3"/><feBlend in="SourceGraphic" in2="blurOut3" mode="normal"/></filter></defs><g><!--cluster IoT--><g id="cluster_IoT"><rect fill="none" filter="url(#f1cotjj3h5fdqc)" height="641" rx="4.1667" ry="4.1667" style="stroke:#9C27B0;stroke-width:2.0833333333333335;" width="325" x="17.7083" y="221.5381"/><path d="M71.875,221.5381 L71.875,250.2715 L61.4583,260.6881 L17.7083,260.6881 " fill="none" style="stroke:#9C27B0;stroke-width:2.0833333333333335;"/><text fill="#9C27B0" font-family="Verdana" font-size="12.5" font-weight="bold" lengthAdjust="spacing" textLength="22.9167" x="31.25" y="245.5636">IoT</text></g><!--cluster Backend RFID--><g id="cluster_Backend RFID"><path d="M46.875,469.4548 L162.5,469.4548 A6.25,6.25 0 0 1 166.6667,473.6215 L173.9583,511.7298 L313.5417,511.7298 A4.1667,4.1667 0 0 1 317.7083,515.8965 L317.7083,833.3715 A4.1667,4.1667 0 0 1 313.5417,837.5381 L46.875,837.5381 A4.1667,4.1667 0 0 1 42.7083,833.3715 L42.7083,473.6215 A4.1667,4.1667 0 0 1 46.875,469.4548 " fill="none" filter="url(#f1cotjj3h5fdqc)" style="stroke:#2196F3;stroke-width:2.0833333333333335;"/><line style="stroke:#2196F3;stroke-width:2.0833333333333335;" x1="42.7083" x2="173.9583" y1="511.7298" y2="511.7298"/><text fill="#2196F3" font-family="Verdana" font-size="12.5" font-weight="bold" lengthAdjust="spacing" textLength="96.875" x="57.2917" y="494.5219">Backend RFID</text></g><!--cluster Node-RED--><g id="cluster_Node-RED"><polygon fill="none" filter="url(#f1cotjj3h5fdqc)" points="76.0417,551.7465,86.4583,541.3298,284.375,541.3298,284.375,793.7881,273.9583,804.2048,76.0417,804.2048,76.0417,551.7465" style="stroke:#2196F3;stroke-width:1.0416666666666667;"/><line style="stroke:#2196F3;stroke-width:1.0416666666666667;" x1="273.9583" x2="284.375" y1="551.7465" y2="541.3298"/><line style="stroke:#2196F3;stroke-width:1.0416666666666667;" x1="76.0417" x2="273.9583" y1="551.7465" y2="551.7465"/><line style="stroke:#2196F3;stroke-width:1.0416666666666667;" x1="273.9583" x2="273.9583" y1="551.7465" y2="804.2048"/><text fill="#222222" font-family="Verdana" font-size="12.5" font-weight="bold" lengthAdjust="spacing" textLength="69.7917" x="141.1458" y="577.8553">Node-RED</text></g><!--cluster Hardware RFID--><g id="cluster_Hardware RFID"><polygon fill="none" filter="url(#f1cotjj3h5fdqc)" points="67.7083,295.4965,78.125,285.0798,309.375,285.0798,309.375,434.0381,298.9583,444.4548,67.7083,444.4548,67.7083,295.4965" style="stroke:#2196F3;stroke-width:1.0416666666666667;"/><line style="stroke:#2196F3;stroke-width:1.0416666666666667;" x1="298.9583" x2="309.375" y1="295.4965" y2="285.0798"/><line style="stroke:#2196F3;stroke-width:1.0416666666666667;" x1="67.7083" x2="298.9583" y1="295.4965" y2="295.4965"/><line style="stroke:#2196F3;stroke-width:1.0416666666666667;" x1="298.9583" x2="298.9583" y1="295.4965" y2="444.4548"/><text fill="#222222" font-family="Verdana" font-size="12.5" font-weight="bold" lengthAdjust="spacing" textLength="107.2917" x="130.7292" y="321.6053">Hardware RFID</text></g><!--cluster Backend Web--><g id="cluster_Backend Web"><path d="M371.875,290.2881 L484.375,290.2881 A6.25,6.25 0 0 1 488.5417,294.4548 L495.8333,332.5631 L702.0833,332.5631 A4.1667,4.1667 0 0 1 706.25,336.7298 L706.25,440.2881 A4.1667,4.1667 0 0 1 702.0833,444.4548 L371.875,444.4548 A4.1667,4.1667 0 0 1 367.7083,440.2881 L367.7083,294.4548 A4.1667,4.1667 0 0 1 371.875,290.2881 " fill="none" filter="url(#f1cotjj3h5fdqc)" style="stroke:#2196F3;stroke-width:2.0833333333333335;"/><line style="stroke:#2196F3;stroke-width:2.0833333333333335;" x1="367.7083" x2="495.8333" y1="332.5631" y2="332.5631"/><text fill="#2196F3" font-family="Verdana" font-size="12.5" font-weight="bold" lengthAdjust="spacing" textLength="93.75" x="382.2917" y="315.3553">Backend Web</text></g><!--cluster Frontend Web--><g id="cluster_Frontend Web"><path d="M510.6027,35.3934 C516.9003,26.003 523.0107,26.2888 528.3796,36.2466 C530.8831,27.7759 538.4488,24.4358 545.2791,31.5569 C548.999,23.1309 555.3179,23.8698 560.3373,30.234 C565.4507,21.1711 571.3821,19.6953 578.7755,27.7828 C584.0221,20.5435 588.8854,19.7679 594.786,27.0624 C598.9581,18.8626 605.7637,18.8684 610.6529,26.3363 C615.3559,18.0193 621.3741,17.6499 627.9844,24.0974 C634.8598,17.6031 641.9099,16.6667 645.7342,27.2657 C650.922,19.5723 655.9511,19.2266 661.3921,27.0095 C667.2396,19.8639 674.5508,20.2959 678.2124,29.2878 C682.7912,22.9951 690.5193,22.1674 694.0187,30.4577 C701.0054,22.9051 707.0909,24.8379 710.6089,33.9176 C715.653,26.5323 722.0228,25.7386 726.8553,34.1354 C738.3952,26.4122 745.841,29.3532 750,42.3715 C750.7954,42.4623 751.0335,42.9891 750.5596,43.6399 C758.8538,48.4839 759.9923,54.7728 752.9573,61.6569 C761.7438,64.6023 763.4238,72.2544 757.0652,78.8239 C767.203,80.3517 769.1942,88.4932 761.9516,95.2053 C770.3797,99.0604 771.6057,107.5548 763.0205,112.4636 C769.9693,119.1257 771.0058,125.1351 761.7308,130.6465 C769.9528,137.2841 767.5538,143.7318 758.7179,147.2795 C767.0654,154.4106 764.3729,161.5934 755.4322,165.6287 C762.54,179.304 756.9434,186.5584 742.7083,188.2048 C744.3215,187.4028 745.3779,188.5078 745.3006,190.0634 C741.6818,197.6831 734.0572,199.3038 728.8824,191.7467 C723.641,200.2519 717.664,199.2909 712.5545,191.6136 C706.4185,201.7131 700.3969,201.8643 693.2086,192.6687 C689.6727,199.8146 682.7073,201.219 678.21,193.6486 C672.6618,200.5625 665.9334,199.5112 661.6897,192.14 C656.2531,199.8996 649.6591,201.0092 643.5297,192.9346 C639.1071,199.5654 631.36,201.5861 626.9898,192.8781 C622.6024,199.4903 616.9103,201.2983 611.5785,193.9184 C604.8836,201.1337 599.0785,201.8309 593.4496,192.7337 C589.0848,199.5654 583.5501,200.6052 578.8293,193.0968 C574.0714,201.5884 564.7075,202.6185 560.1153,192.9263 C554.4082,200.0393 547.3922,199.2599 544.4446,190.2451 C539.5464,199.1266 531.92,198.6469 526.7583,190.5191 C514.5258,200.75 504.3933,196.1705 502.0833,180.9131 C504.0892,180.2337 504.9352,180.9301 504.9536,182.9932 C496.2667,178.2024 495.8659,171.9038 502.2996,164.8956 C494.272,161.883 492.3561,155.5739 497.6512,148.7303 C490.0416,143.9986 488.6461,136.4414 496.7921,130.9485 C488.3698,126.8387 485.5223,121.2107 492.6479,113.4241 C484.2487,107.1234 487.0012,101.2269 494.5284,96.7189 C486.6258,89.5655 488.8645,82.5584 498.7911,79.9326 C492.6089,74.1155 492.2127,65.1529 502.4918,62.9155 C493.4888,50.9039 494.059,41.0779 509.375,35.0798 C509.9016,34.5091 510.4144,34.6403 510.6027,35.3934 " fill="none" filter="url(#f1cotjj3h5fdqc)" style="stroke:#2196F3;stroke-width:1.0416666666666667;"/><text fill="#222222" font-family="Verdana" font-size="12.5" font-weight="bold" lengthAdjust="spacing" textLength="96.875" x="577.6042" y="63.2719">Frontend Web</text></g><!--cluster Importaci?n y \n exportaci?n \n de datos--><g id="cluster_Importaci&#243;n y \n exportaci&#243;n \n de datos"><path d="M558.2676,484.5172 C561.1179,477.7132 566.6308,478.0856 570.4159,483.5949 C572.5173,477.691 578.1525,477.3307 581.6169,482.1744 C584.4592,475.8738 588.6656,474.8214 593.7952,479.6777 C595.5334,473.9378 600.4503,473.591 603.7182,478.2128 C607.8298,473.4582 611.4397,473.5194 614.9587,478.8718 C617.4152,472.2609 621.6354,471.7557 626.7953,475.8953 C631.0609,471.6221 634.9548,472.3049 637.9682,477.3903 C641.9794,472.5446 646.7995,472.6602 649.6455,478.6464 C653.7394,474.1482 658.4999,473.3478 661.3775,479.9338 C665.1162,474.6994 669.0297,476.0364 672.0222,480.7336 C676.4517,474.7513 681.6787,474.6287 685.0883,481.7505 C694.5763,477.2236 700.1819,479.3051 702.0833,490.1423 C703.2948,490.1762 703.5622,491.0874 702.9039,491.9637 C709.0513,494.7801 710.0665,499.8694 704.1592,503.9485 C709.8046,507.0637 710.9682,511.6607 704.8619,515.4913 C709.4944,518.4066 709.7464,522.1311 705.3908,525.5204 C710.6808,527.4851 712.859,533.0359 707.6224,537.0399 C713.1749,539.6458 714.1084,544.1415 709.7276,548.5622 C715.3938,551.1364 714.8998,556.4639 710.2888,559.5624 C715.6024,564.5003 713.9226,569.642 707.7868,572.3375 C713.1866,575.7298 713.09,581.0944 707.1367,583.8453 C711.6849,587.839 711.8618,591.4404 706.9649,595.2923 C712.8101,598.9443 713.0073,604.2398 706.4787,607.3948 C711.2801,612.0291 710.7125,616.0381 704.217,618.3376 C709.7178,628.7123 705.0969,634.0472 694.7917,635.9756 C695.9239,635.052 696.6874,635.1979 697.0726,636.6831 C693.6095,643.3233 689.1467,642.7053 684.5288,637.9547 C682.3885,644.0027 678.5254,645.1274 674.0528,640.176 C670.5389,646.0633 666.1049,646.5875 662.4007,640.359 C659.0781,646.5629 654.9678,646.843 650.1177,642.0679 C646.5275,648.174 643.0129,649.0418 638.336,643.1335 C634.7441,647.5684 631.1826,647.4954 628.2271,642.4546 C624.7203,648.1734 619.6666,647.3684 616.5543,642.0379 C612.673,647.1937 606.8295,646.5113 604.6579,640.2556 C600.869,646.2807 596.3608,645.7942 592.1681,640.7095 C588.3962,645.8903 583.5454,645.3638 580.619,639.8007 C576.934,644.3745 573.1755,644.0133 570.6043,638.6753 C559.4574,644.9043 551.4375,642.478 550,628.684 C551.0934,628.2712 551.5633,628.8879 551.472,629.9042 C544.3753,627.8218 544.6684,621.5942 549.3538,617.4999 C543.7246,614.8678 544.4191,609.9688 548.8729,606.8801 C542.098,603.0256 542.647,599.1791 548.2699,594.7103 C541.3664,592.3166 540.8631,587.5857 545.5329,582.5805 C540.0337,579.5664 540.9439,575.9026 545.1502,572.5193 C538.3946,568.4857 538.7667,564.4864 544.2649,559.6123 C539.1027,555.7112 540.7544,552.0752 545.5216,549.3955 C540.4727,545.369 541.1076,540.0933 547.5354,538.1156 C542.6073,533.7344 541.7374,529.0943 548.3953,525.5031 C543.8366,521.4889 543.3379,517.8835 549.2997,514.7545 C544.1852,509.8568 545.0338,506.2184 550.9086,502.7997 C543.4921,493.6913 544.7859,485.5845 557.2917,482.8506 C558.4783,482.9063 558.804,483.4526 558.2676,484.5172 " fill="none" filter="url(#f1cotjj3h5fdqc)" style="stroke:#2196F3;stroke-width:1.0416666666666667;"/><text fill="#222222" font-family="Verdana" font-size="12.5" font-weight="bold" lengthAdjust="spacing" textLength="95.8333" x="576.0417" y="511.0428">Importaci&#243;n y</text><text fill="#222222" font-family="Verdana" font-size="12.5" font-weight="bold" lengthAdjust="spacing" textLength="81.25" x="585.4167" y="526.2344">exportaci&#243;n</text><text fill="#222222" font-family="Verdana" font-size="12.5" font-weight="bold" lengthAdjust="spacing" textLength="58.3333" x="598.9583" y="541.4261">de datos</text></g><!--entity mqtt--><g id="elem_mqtt"><rect fill="none" filter="url(#f1cotjj3h5fdqc)" height="82.4666" rx="4.1667" ry="4.1667" style="stroke:#2196F3;stroke-width:1.0416666666666667;" width="157.2917" x="101.5625" y="696.9131"/><rect fill="none" height="10.4167" style="stroke:#2196F3;stroke-width:1.0416666666666667;" width="15.625" x="238.0208" y="702.1215"/><rect fill="none" height="2.0833" style="stroke:#2196F3;stroke-width:1.0416666666666667;" width="4.1667" x="235.9375" y="704.2048"/><rect fill="none" height="2.0833" style="stroke:#2196F3;stroke-width:1.0416666666666667;" width="4.1667" x="235.9375" y="708.3715"/><text fill="#2196F3" font-family="Verdana" font-size="12.5" font-weight="bold" lengthAdjust="spacing" textLength="90.625" x="127.6042" y="740.7303">MQTT Broker</text><text fill="#2196F3" font-family="Verdana" font-size="12.5" lengthAdjust="spacing" textLength="75" x="139.5833" y="755.9219">(Mosquitto)</text></g><!--entity equiposRFID--><g id="elem_equiposRFID"><rect fill="none" filter="url(#f1cotjj3h5fdqc)" height="82.4666" rx="4.1667" ry="4.1667" style="stroke:#2196F3;stroke-width:1.0416666666666667;" width="208.3333" x="84.375" y="345.4965"/><rect fill="none" height="10.4167" style="stroke:#2196F3;stroke-width:1.0416666666666667;" width="15.625" x="271.875" y="350.7048"/><rect fill="none" height="2.0833" style="stroke:#2196F3;stroke-width:1.0416666666666667;" width="4.1667" x="269.7917" y="352.7881"/><rect fill="none" height="2.0833" style="stroke:#2196F3;stroke-width:1.0416666666666667;" width="4.1667" x="269.7917" y="356.9548"/><text fill="#2196F3" font-family="Verdana" font-size="12.5" font-weight="bold" lengthAdjust="spacing" textLength="91.6667" x="135.4167" y="389.3136">Equipos RFID</text><text fill="#2196F3" font-family="Verdana" font-size="12.5" lengthAdjust="spacing" textLength="141.6667" x="114.5833" y="404.5053">(Antenas y Sensores)</text></g><!--entity apiWeb--><g id="elem_apiWeb"><rect fill="none" filter="url(#f1cotjj3h5fdqc)" height="82.4666" rx="4.1667" ry="4.1667" style="stroke:#2196F3;stroke-width:1.0416666666666667;" width="127.0833" x="562.5" y="345.4965"/><rect fill="none" height="10.4167" style="stroke:#2196F3;stroke-width:1.0416666666666667;" width="15.625" x="668.75" y="350.7048"/><rect fill="none" height="2.0833" style="stroke:#2196F3;stroke-width:1.0416666666666667;" width="4.1667" x="666.6667" y="352.7881"/><rect fill="none" height="2.0833" style="stroke:#2196F3;stroke-width:1.0416666666666667;" width="4.1667" x="666.6667" y="356.9548"/><text fill="#2196F3" font-family="Verdana" font-size="12.5" font-weight="bold" lengthAdjust="spacing" textLength="60.4167" x="588.5417" y="389.3136">API Web</text><text fill="#2196F3" font-family="Verdana" font-size="12.5" lengthAdjust="spacing" textLength="60.4167" x="592.7083" y="404.5053">(FastAPI)</text></g><!--entity orm--><g id="elem_orm"><rect fill="none" filter="url(#f1cotjj3h5fdqc)" height="82.4666" rx="4.1667" ry="4.1667" style="stroke:#2196F3;stroke-width:1.0416666666666667;" width="141.6667" x="384.375" y="345.4965"/><rect fill="none" height="10.4167" style="stroke:#2196F3;stroke-width:1.0416666666666667;" width="15.625" x="505.2083" y="350.7048"/><rect fill="none" height="2.0833" style="stroke:#2196F3;stroke-width:1.0416666666666667;" width="4.1667" x="503.125" y="352.7881"/><rect fill="none" height="2.0833" style="stroke:#2196F3;stroke-width:1.0416666666666667;" width="4.1667" x="503.125" y="356.9548"/><text fill="#2196F3" font-family="Verdana" font-size="12.5" font-weight="bold" lengthAdjust="spacing" textLength="67.7083" x="414.0625" y="389.3136">ORM Web</text><text fill="#2196F3" font-family="Verdana" font-size="12.5" lengthAdjust="spacing" textLength="75" x="414.5833" y="404.5053">(SQLModel)</text></g><!--entity interfaz--><g id="elem_interfaz"><rect fill="none" filter="url(#f1cotjj3h5fdqc)" height="97.6583" rx="4.1667" ry="4.1667" style="stroke:#2196F3;stroke-width:1.0416666666666667;" width="230.2083" x="510.9375" y="81.9548"/><rect fill="none" height="10.4167" style="stroke:#2196F3;stroke-width:1.0416666666666667;" width="15.625" x="720.3125" y="87.1631"/><rect fill="none" height="2.0833" style="stroke:#2196F3;stroke-width:1.0416666666666667;" width="4.1667" x="718.2292" y="89.2465"/><rect fill="none" height="2.0833" style="stroke:#2196F3;stroke-width:1.0416666666666667;" width="4.1667" x="718.2292" y="93.4131"/><text fill="#2196F3" font-family="Verdana" font-size="12.5" font-weight="bold" lengthAdjust="spacing" textLength="112.5" x="562.5" y="125.7719">Interfaz Usuario</text><text fill="#2196F3" font-family="Verdana" font-size="12.5" lengthAdjust="spacing" textLength="60.4167" x="590.625" y="140.9636">(ReactJS)</text><text fill="#2196F3" font-family="Verdana" font-size="12.5" lengthAdjust="spacing" textLength="163.5417" x="541.1458" y="156.1552">(Material-UI o Bootstrap)</text></g><!--entity datos--><g id="elem_datos"><rect fill="none" filter="url(#f1cotjj3h5fdqc)" height="67.275" rx="4.1667" ry="4.1667" style="stroke:#2196F3;stroke-width:1.0416666666666667;" width="135.4167" x="558.3333" y="559.934"/><rect fill="none" height="10.4167" style="stroke:#2196F3;stroke-width:1.0416666666666667;" width="15.625" x="672.9167" y="565.1423"/><rect fill="none" height="2.0833" style="stroke:#2196F3;stroke-width:1.0416666666666667;" width="4.1667" x="670.8333" y="567.2256"/><rect fill="none" height="2.0833" style="stroke:#2196F3;stroke-width:1.0416666666666667;" width="4.1667" x="670.8333" y="571.3923"/><text fill="#2196F3" font-family="Verdana" font-size="12.5" font-weight="bold" lengthAdjust="spacing" textLength="72.9167" x="584.375" y="603.7511">CSV/Excel</text></g><!--entity db--><g id="elem_db"><path d="M369.7917,563.5798 C369.7917,553.1631 440.625,553.1631 440.625,553.1631 C440.625,553.1631 511.4583,553.1631 511.4583,563.5798 L511.4583,624.1714 C511.4583,634.5881 440.625,634.5881 440.625,634.5881 C440.625,634.5881 369.7917,634.5881 369.7917,624.1714 L369.7917,563.5798 " fill="none" filter="url(#f1cotjj3h5fdqc)" style="stroke:#2196F3;stroke-width:1.0416666666666667;"/><path d="M369.7917,563.5798 C369.7917,573.9965 440.625,573.9965 440.625,573.9965 C440.625,573.9965 511.4583,573.9965 511.4583,563.5798 " fill="none" style="stroke:#2196F3;stroke-width:1.0416666666666667;"/><text fill="#2196F3" font-family="Verdana" font-size="12.5" font-weight="bold" lengthAdjust="spacing" textLength="95.8333" x="390.625" y="601.1469">Base de datos</text><text fill="#2196F3" font-family="Verdana" font-size="12.5" lengthAdjust="spacing" textLength="87.5" x="398.9583" y="616.3386">(PostgreSQL)</text></g><!--link Node-RED to mqtt--><g id="link_Node-RED_mqtt"><path d="M188.5417,600.4548 C188.5417,605.8194 188.5417,649.8402 188.5417,690.4027 " fill="none" id="Node-RED-mqtt" style="stroke:#2196F3;stroke-width:3.125;"/><polygon fill="#2196F3" points="188.5417,594.2048,184.375,603.5798,188.5417,599.4131,192.7083,603.5798,188.5417,594.2048" style="stroke:#2196F3;stroke-width:3.125;"/><polygon fill="#2196F3" points="188.5417,696.6527,192.7083,687.2777,188.5417,691.4444,184.375,687.2777,188.5417,696.6527" style="stroke:#2196F3;stroke-width:3.125;"/><text fill="#222222" font-family="Verdana" font-size="12.5" font-style="italic" font-weight="bold" lengthAdjust="spacing" textLength="64.5833" x="75" y="616.3344">Publica y</text><text fill="#222222" font-family="Verdana" font-size="12.5" lengthAdjust="spacing" textLength="4.1667" x="41.6667" y="631.5261">&#160;</text><text fill="#222222" font-family="Verdana" font-size="12.5" font-style="italic" font-weight="bold" lengthAdjust="spacing" textLength="131.25" x="45.8333" y="631.5261">suscribe mensajes</text></g><!--link Node-RED to db--><g id="link_Node-RED_db"><path d="M284.569,593.7881 C285.1702,593.7881 285.7723,593.7881 286.3754,593.7881 C287.5815,593.7881 288.7912,593.7881 290.0041,593.7881 C292.43,593.7881 294.8684,593.7881 297.3157,593.7881 C302.2103,593.7881 307.1403,593.7881 312.0754,593.7881 C331.8158,593.7881 351.638,593.7881 369.6042,593.7881 " fill="none" id="Node-RED-db" style="stroke:#2196F3;stroke-width:3.125;"/><text fill="#222222" font-family="Verdana" font-size="12.5" font-style="italic" font-weight="bold" lengthAdjust="spacing" textLength="82.2917" x="236.0417" y="617.8136">Consultas y</text><text fill="#222222" font-family="Verdana" font-size="12.5" lengthAdjust="spacing" textLength="4.1667" x="223.5417" y="633.0053">&#160;</text><text fill="#222222" font-family="Verdana" font-size="12.5" font-style="italic" font-weight="bold" lengthAdjust="spacing" textLength="107.2917" x="227.7083" y="633.0053">actualizaciones</text></g><!--link equiposRFID to Node-RED--><g id="link_equiposRFID_Node-RED"><path d="M188.5417,434.309 C188.5417,463.1215 188.5417,495.8611 188.5417,528.7842 C188.5417,532.8996 188.5417,530.6702 188.5417,534.5643 " fill="none" id="equiposRFID-Node-RED" style="stroke:#2196F3;stroke-width:3.125;"/><polygon fill="#2196F3" points="188.5417,428.059,184.375,437.434,188.5417,433.2673,192.7083,437.434,188.5417,428.059" style="stroke:#2196F3;stroke-width:3.125;"/><polygon fill="#2196F3" points="188.5417,540.8143,192.7083,531.4393,188.5417,535.606,184.375,531.4393,188.5417,540.8143" style="stroke:#2196F3;stroke-width:3.125;"/><text fill="#222222" font-family="Verdana" font-size="12.5" font-style="italic" font-weight="bold" lengthAdjust="spacing" textLength="68.75" x="213.5417" y="534.6157">Captura y</text><text fill="#222222" font-family="Verdana" font-size="12.5" lengthAdjust="spacing" textLength="4.1667" x="200" y="549.8073">&#160;</text><text fill="#222222" font-family="Verdana" font-size="12.5" font-style="italic" font-weight="bold" lengthAdjust="spacing" textLength="95.8333" x="204.1667" y="549.8073">configuraci&#243;n</text></g><!--link orm to apiWeb--><g id="link_orm_apiWeb"><path d="M532.4271,387.5381 C544.4271,387.5381 544.3333,387.5381 556.1458,387.5381 " fill="none" id="orm-apiWeb" style="stroke:#2196F3;stroke-width:3.125;"/><polygon fill="#2196F3" points="526.1771,387.5381,535.5521,391.7048,531.3854,387.5381,535.5521,383.3715,526.1771,387.5381" style="stroke:#2196F3;stroke-width:3.125;"/><polygon fill="#2196F3" points="562.3958,387.5381,553.0208,383.3715,557.1875,387.5381,553.0208,391.7048,562.3958,387.5381" style="stroke:#2196F3;stroke-width:3.125;"/><text fill="#222222" font-family="Verdana" font-size="12.5" font-style="italic" font-weight="bold" lengthAdjust="spacing" textLength="96.875" x="493.7604" y="411.5636">Lee, escribe y</text><text fill="#222222" font-family="Verdana" font-size="12.5" lengthAdjust="spacing" textLength="4.1667" x="490.1146" y="426.7553">&#160;</text><text fill="#222222" font-family="Verdana" font-size="12.5" font-style="italic" font-weight="bold" lengthAdjust="spacing" textLength="104.1667" x="494.2813" y="426.7553">actualiza datos</text></g><!--link orm to db--><g id="link_orm_db"><path d="M447.9167,428.059 C447.9167,464.4236 447.9167,517.0173 447.9167,553.1423 " fill="none" id="orm-db" style="stroke:#2196F3;stroke-width:3.125;"/><text fill="#222222" font-family="Verdana" font-size="12.5" font-style="italic" font-weight="bold" lengthAdjust="spacing" textLength="82.2917" x="337.5" y="461.5011">Consultas y</text><text fill="#222222" font-family="Verdana" font-size="12.5" lengthAdjust="spacing" textLength="4.1667" x="325" y="476.6928">&#160;</text><text fill="#222222" font-family="Verdana" font-size="12.5" font-style="italic" font-weight="bold" lengthAdjust="spacing" textLength="107.2917" x="329.1667" y="476.6928">actualizaciones</text></g><!--link interfaz to apiWeb--><g id="link_interfaz_apiWeb"><path d="M626.0417,186.1631 C626.0417,234.1736 626.0417,294.0069 626.0417,339.1527 " fill="none" id="interfaz-apiWeb" style="stroke:#2196F3;stroke-width:3.125;"/><polygon fill="#2196F3" points="626.0417,179.9131,621.875,189.2881,626.0417,185.1215,630.2083,189.2881,626.0417,179.9131" style="stroke:#2196F3;stroke-width:3.125;"/><polygon fill="#2196F3" points="626.0417,345.4027,630.2083,336.0277,626.0417,340.1944,621.875,336.0277,626.0417,345.4027" style="stroke:#2196F3;stroke-width:3.125;"/><text fill="#222222" font-family="Verdana" font-size="12.5" font-style="italic" font-weight="bold" lengthAdjust="spacing" textLength="80.2083" x="530.2083" y="233.5636">Interacci&#243;n</text><text fill="#222222" font-family="Verdana" font-size="12.5" lengthAdjust="spacing" textLength="4.1667" x="531.25" y="248.7553">&#160;</text><text fill="#222222" font-family="Verdana" font-size="12.5" font-style="italic" font-weight="bold" lengthAdjust="spacing" textLength="78.125" x="535.4167" y="248.7553">del usuario</text></g><!--link apiWeb to datos--><g id="link_apiWeb_datos"><path d="M626.0417,434.309 C626.0417,472.9236 626.0417,517.309 626.0417,553.3819 " fill="none" id="apiWeb-datos" style="stroke:#2196F3;stroke-width:3.125;"/><polygon fill="#2196F3" points="626.0417,428.059,621.875,437.434,626.0417,433.2673,630.2083,437.434,626.0417,428.059" style="stroke:#2196F3;stroke-width:3.125;"/><polygon fill="#2196F3" points="626.0417,559.6319,630.2083,550.2569,626.0417,554.4236,621.875,550.2569,626.0417,559.6319" style="stroke:#2196F3;stroke-width:3.125;"/><text fill="#222222" font-family="Verdana" font-size="12.5" font-style="italic" font-weight="bold" lengthAdjust="spacing" textLength="65.625" x="529.1667" y="464.7511">Exporta e</text><text fill="#222222" font-family="Verdana" font-size="12.5" lengthAdjust="spacing" textLength="4.1667" x="513.5417" y="479.9428">&#160;</text><text fill="#222222" font-family="Verdana" font-size="12.5" font-style="italic" font-weight="bold" lengthAdjust="spacing" textLength="96.875" x="517.7083" y="479.9428">importa datos</text></g><!--SRC=[bLJ1Rjim3BtxAxXSkW8pTX-204cNO1wIBKtIxT3rmDYCeyMMN4b6qmxvgdt2VcoKP3iErii4mx0fykczHzflx9vAWX8jQO6ngcqX94MHEGXPeSOICjfXNTWD7Usu4BaiILf8-KQwb-Mgx7D5eBJTgoZAqE8M3S5Wk1rDt4F65rfbu8U4jqjbRAvfVJk_7W0QoBPHj6CSpa_KPW2_8k1r1HDC3oGpMCsIZpvKSG1pJklljFbkISK73RxmFLvDBtRSkcSsYzlD1YPQ7KXxBWjb7cjXhRf-S5JAHskxcbFtTDz2Fi0mZaS-3Ju0umt5Q5bl2v4YF3l043ArIRNOihKa3VuaynfIh4M-jp7Bxw1kb3HiDnFfWM5gQop42wP2IJ8GdRbTmIVKsHDgEfiKFBY8zurm9anPSiNDS7lUXJ4tLFfJrqnOQJB13Wg97RPRlLWmeoUfqu6LhVM59QcIEv5pC1L_Vij6mocApcrcsWN2ik3XsIbT8dodRVHFopdOod5Inil4XRoA6HhBxu4wLiBLkxnKbHKxnvFhvl7hQj5Ly0Wkc7mHvf0FzVcXbCKLjBCiaEETiZdHEw2ckwyrASovnt5ryN_tDvWoqyhrnEkDqaBL6GpwiRu7YViST_W2TwP6BPINjYB6_Ro-3bCUll0Ylaj0mKGfQwp6AZWbcdAFrxw4rZPEjFJzGPZw3fxvitzGXvC3z-cnuX-1byCwvoethOAaR7OSWBU0Zhq8lxS_Yhw-c_MtzzDZIeMdU_QtwrEcdYIp3N-Obcp30kZCL8JZ6uZJNm00]--></g></svg>