<?xml version="1.0" encoding="us-ascii" standalone="no"?><svg xmlns="http://www.w3.org/2000/svg" xmlns:xlink="http://www.w3.org/1999/xlink" contentStyleType="text/css" height="1094.7917px" preserveAspectRatio="none" style="width:2228px;height:1094px;" version="1.1" viewBox="0 0 2228 1094" width="2228.125px" zoomAndPan="magnify"><defs><filter height="300%" id="f18pyv5b9ufdc9" width="300%" x="-1" y="-1"><feGaussianBlur result="blurOut" stdDeviation="2.0833333333333335"/><feColorMatrix in="blurOut" result="blurOut2" type="matrix" values="0 0 0 0 0 0 0 0 0 0 0 0 0 0 0 0 0 0 .4 0"/><feOffset dx="4.166666666666667" dy="4.166666666666667" in="blurOut2" result="blurOut3"/><feBlend in="SourceGraphic" in2="blurOut3" mode="normal"/></filter></defs><g><ellipse cx="906.25" cy="20.8333" fill="#9C27B0" filter="url(#f18pyv5b9ufdc9)" rx="10.4167" ry="10.4167" style="stroke:#1A78C2;stroke-width:1.0416666666666667;"/><rect fill="none" filter="url(#f18pyv5b9ufdc9)" height="48.525" rx="4.1667" ry="4.1667" style="stroke:#2196F3;stroke-width:1.0416666666666667;" width="390.625" x="710.9375" y="52.0833"/><text fill="#2196F3" font-family="Verdana" font-size="12.5" lengthAdjust="spacing" textLength="357.2917" x="727.6042" y="81.3171">Administrador accede al m&#243;dulo "Gesti&#243;n de Usuarios"</text><rect fill="none" filter="url(#f18pyv5b9ufdc9)" height="48.525" rx="4.1667" ry="4.1667" style="stroke:#2196F3;stroke-width:1.0416666666666667;" width="445.8333" x="683.3333" y="121.4417"/><text fill="#2196F3" font-family="Verdana" font-size="12.5" lengthAdjust="spacing" textLength="412.5" x="700" y="150.6755">Seleccionar operaci&#243;n CRUD (Crear, Editar, Eliminar, Consultar)</text><polygon fill="none" filter="url(#f18pyv5b9ufdc9)" points="843.2292,190.8,969.2708,190.8,981.7708,208.8125,969.2708,226.825,843.2292,226.825,830.7292,208.8125,843.2292,190.8" style="stroke:#CCCCCC;stroke-width:1.0416666666666667;"/><text fill="#CCCCCC" font-family="Verdana" font-size="12.5" lengthAdjust="spacing" textLength="105.2083" x="853.6458" y="213.7838">&#191;Crear Usuario?</text><text fill="#222222" font-family="Verdana" font-size="12.5" lengthAdjust="spacing" textLength="11.4583" x="808.8542" y="195.7713">S&#237;</text><text fill="#222222" font-family="Verdana" font-size="12.5" lengthAdjust="spacing" textLength="17.7083" x="992.1875" y="195.7713">No</text><rect fill="none" filter="url(#f18pyv5b9ufdc9)" height="48.525" rx="4.1667" ry="4.1667" style="stroke:#2196F3;stroke-width:1.0416666666666667;" width="482.2917" x="102.3438" y="237.2416"/><text fill="#2196F3" font-family="Verdana" font-size="12.5" lengthAdjust="spacing" textLength="448.9583" x="119.0104" y="266.4754">Completar formulario con datos del usuario (nombre, email, bodega)</text><rect fill="none" filter="url(#f18pyv5b9ufdc9)" height="48.525" rx="4.1667" ry="4.1667" style="stroke:#2196F3;stroke-width:1.0416666666666667;" width="216.6667" x="235.1563" y="322.2249"/><text fill="#2196F3" font-family="Verdana" font-size="12.5" lengthAdjust="spacing" textLength="183.3333" x="251.8229" y="351.4587">Seleccionar un rol de la lista</text><rect fill="none" filter="url(#f18pyv5b9ufdc9)" height="48.525" rx="4.1667" ry="4.1667" style="stroke:#2196F3;stroke-width:1.0416666666666667;" width="188.5417" x="249.2188" y="407.2083"/><text fill="#2196F3" font-family="Verdana" font-size="12.5" lengthAdjust="spacing" textLength="155.2083" x="265.8854" y="436.4421">Enviar datos al servidor</text><polygon fill="none" filter="url(#f18pyv5b9ufdc9)" points="281.5104,492.1916,405.4688,492.1916,417.9688,510.2041,405.4688,528.2166,281.5104,528.2166,269.0104,510.2041,281.5104,492.1916" style="stroke:#CCCCCC;stroke-width:1.0416666666666667;"/><text fill="#CCCCCC" font-family="Verdana" font-size="12.5" lengthAdjust="spacing" textLength="103.125" x="291.9271" y="515.1754">&#191;Datos v&#225;lidos?</text><text fill="#222222" font-family="Verdana" font-size="12.5" lengthAdjust="spacing" textLength="11.4583" x="247.1354" y="497.1629">S&#237;</text><text fill="#222222" font-family="Verdana" font-size="12.5" lengthAdjust="spacing" textLength="17.7083" x="428.3854" y="497.1629">No</text><rect fill="none" filter="url(#f18pyv5b9ufdc9)" height="48.525" rx="4.1667" ry="4.1667" style="stroke:#2196F3;stroke-width:1.0416666666666667;" width="281.25" x="32.2917" y="538.6332"/><text fill="#2196F3" font-family="Verdana" font-size="12.5" lengthAdjust="spacing" textLength="247.9167" x="48.9583" y="567.867">Registrar usuario en la base de datos</text><rect fill="none" filter="url(#f18pyv5b9ufdc9)" height="48.525" rx="4.1667" ry="4.1667" style="stroke:#2196F3;stroke-width:1.0416666666666667;" width="322.9167" x="11.4583" y="623.6165"/><text fill="#2196F3" font-family="Verdana" font-size="12.5" lengthAdjust="spacing" textLength="289.5833" x="28.125" y="652.8503">Mostrar mensaje "Usuario creado con &#233;xito"</text><rect fill="none" filter="url(#f18pyv5b9ufdc9)" height="48.525" rx="4.1667" ry="4.1667" style="stroke:#2196F3;stroke-width:1.0416666666666667;" width="317.7083" x="355.2083" y="538.6332"/><text fill="#2196F3" font-family="Verdana" font-size="12.5" lengthAdjust="spacing" textLength="284.375" x="371.875" y="567.867">Mostrar mensaje de error "Datos inv&#225;lidos"</text><polygon fill="none" filter="url(#f18pyv5b9ufdc9)" points="343.4896,699.2249,355.9896,711.7249,343.4896,724.2249,330.9896,711.7249,343.4896,699.2249" style="stroke:#CCCCCC;stroke-width:1.0416666666666667;"/><polygon fill="none" filter="url(#f18pyv5b9ufdc9)" points="1417.513,237.2416,1545.638,237.2416,1558.138,255.2541,1545.638,273.2666,1417.513,273.2666,1405.013,255.2541,1417.513,237.2416" style="stroke:#CCCCCC;stroke-width:1.0416666666666667;"/><text fill="#CCCCCC" font-family="Verdana" font-size="12.5" lengthAdjust="spacing" textLength="107.2917" x="1427.9297" y="260.2254">&#191;Editar Usuario?</text><text fill="#222222" font-family="Verdana" font-size="12.5" lengthAdjust="spacing" textLength="11.4583" x="1383.138" y="242.2129">S&#237;</text><text fill="#222222" font-family="Verdana" font-size="12.5" lengthAdjust="spacing" textLength="17.7083" x="1568.5547" y="242.2129">No</text><rect fill="none" filter="url(#f18pyv5b9ufdc9)" height="48.525" rx="4.1667" ry="4.1667" style="stroke:#2196F3;stroke-width:1.0416666666666667;" width="228.125" x="990.2995" y="283.6833"/><text fill="#2196F3" font-family="Verdana" font-size="12.5" lengthAdjust="spacing" textLength="194.7917" x="1006.9661" y="312.9171">Seleccionar usuario de la lista</text><rect fill="none" filter="url(#f18pyv5b9ufdc9)" height="48.525" rx="4.1667" ry="4.1667" style="stroke:#2196F3;stroke-width:1.0416666666666667;" width="364.5833" x="922.0703" y="368.6666"/><text fill="#2196F3" font-family="Verdana" font-size="12.5" lengthAdjust="spacing" textLength="331.25" x="938.737" y="397.9004">Modificar datos del usuario (nombre, bodega, etc.)</text><rect fill="none" filter="url(#f18pyv5b9ufdc9)" height="48.525" rx="4.1667" ry="4.1667" style="stroke:#2196F3;stroke-width:1.0416666666666667;" width="240.625" x="984.0495" y="526.4374"/><text fill="#2196F3" font-family="Verdana" font-size="12.5" lengthAdjust="spacing" textLength="207.2917" x="1000.7161" y="555.6712">Seleccionar nuevo rol de la lista</text><polygon fill="none" filter="url(#f18pyv5b9ufdc9)" points="1049.1536,453.6499,1159.5703,453.6499,1172.0703,471.6624,1159.5703,489.6749,1049.1536,489.6749,1036.6536,471.6624,1049.1536,453.6499" style="stroke:#CCCCCC;stroke-width:1.0416666666666667;"/><text fill="#222222" font-family="Verdana" font-size="12.5" lengthAdjust="spacing" textLength="11.4583" x="1118.9453" y="512.6587">S&#237;</text><text fill="#CCCCCC" font-family="Verdana" font-size="12.5" lengthAdjust="spacing" textLength="89.5833" x="1059.5703" y="476.6337">&#191;Cambiar rol?</text><polygon fill="none" filter="url(#f18pyv5b9ufdc9)" points="1104.362,632.5582,1116.862,645.0582,1104.362,657.5582,1091.862,645.0582,1104.362,632.5582" style="stroke:#CCCCCC;stroke-width:1.0416666666666667;"/><rect fill="none" filter="url(#f18pyv5b9ufdc9)" height="48.525" rx="4.1667" ry="4.1667" style="stroke:#2196F3;stroke-width:1.0416666666666667;" width="204.1667" x="1002.2786" y="694.0165"/><text fill="#2196F3" font-family="Verdana" font-size="12.5" lengthAdjust="spacing" textLength="170.8333" x="1018.9453" y="723.2503">Enviar cambios al servidor</text><polygon fill="none" filter="url(#f18pyv5b9ufdc9)" points="1033.5286,763.3748,1175.1953,763.3748,1187.6953,781.3873,1175.1953,799.3998,1033.5286,799.3998,1021.0286,781.3873,1033.5286,763.3748" style="stroke:#CCCCCC;stroke-width:1.0416666666666667;"/><text fill="#CCCCCC" font-family="Verdana" font-size="12.5" lengthAdjust="spacing" textLength="120.8333" x="1043.9453" y="786.3586">&#191;Cambios v&#225;lidos?</text><text fill="#222222" font-family="Verdana" font-size="12.5" lengthAdjust="spacing" textLength="11.4583" x="999.1536" y="768.3462">S&#237;</text><text fill="#222222" font-family="Verdana" font-size="12.5" lengthAdjust="spacing" textLength="17.7083" x="1198.112" y="768.3462">No</text><rect fill="none" filter="url(#f18pyv5b9ufdc9)" height="48.525" rx="4.1667" ry="4.1667" style="stroke:#2196F3;stroke-width:1.0416666666666667;" width="396.875" x="712.4349" y="809.8165"/><text fill="#2196F3" font-family="Verdana" font-size="12.5" lengthAdjust="spacing" textLength="363.5417" x="729.1016" y="839.0503">Actualizar datos y/o rol del usuario en la base de datos</text><rect fill="none" filter="url(#f18pyv5b9ufdc9)" height="48.525" rx="4.1667" ry="4.1667" style="stroke:#2196F3;stroke-width:1.0416666666666667;" width="353.125" x="734.3099" y="879.1748"/><text fill="#2196F3" font-family="Verdana" font-size="12.5" lengthAdjust="spacing" textLength="319.7917" x="750.9766" y="908.4086">Mostrar mensaje "Usuario actualizado con &#233;xito"</text><rect fill="none" filter="url(#f18pyv5b9ufdc9)" height="48.525" rx="4.1667" ry="4.1667" style="stroke:#2196F3;stroke-width:1.0416666666666667;" width="335.4167" x="1130.1432" y="809.8165"/><text fill="#2196F3" font-family="Verdana" font-size="12.5" lengthAdjust="spacing" textLength="302.0833" x="1146.8099" y="839.0503">Mostrar mensaje de error "Cambios inv&#225;lidos"</text><polygon fill="none" filter="url(#f18pyv5b9ufdc9)" points="1104.362,938.1165,1116.862,950.6165,1104.362,963.1165,1091.862,950.6165,1104.362,938.1165" style="stroke:#CCCCCC;stroke-width:1.0416666666666667;"/><polygon fill="none" filter="url(#f18pyv5b9ufdc9)" points="1788.4766,283.6833,1929.1016,283.6833,1941.6016,301.6958,1929.1016,319.7083,1788.4766,319.7083,1775.9766,301.6958,1788.4766,283.6833" style="stroke:#CCCCCC;stroke-width:1.0416666666666667;"/><text fill="#CCCCCC" font-family="Verdana" font-size="12.5" lengthAdjust="spacing" textLength="119.7917" x="1798.8932" y="306.6671">&#191;Eliminar Usuario?</text><text fill="#222222" font-family="Verdana" font-size="12.5" lengthAdjust="spacing" textLength="11.4583" x="1754.1016" y="288.6546">S&#237;</text><text fill="#222222" font-family="Verdana" font-size="12.5" lengthAdjust="spacing" textLength="125" x="1952.0182" y="288.6546">Consultar Usuarios</text><rect fill="none" filter="url(#f18pyv5b9ufdc9)" height="48.525" rx="4.1667" ry="4.1667" style="stroke:#2196F3;stroke-width:1.0416666666666667;" width="228.125" x="1563.4766" y="330.1249"/><text fill="#2196F3" font-family="Verdana" font-size="12.5" lengthAdjust="spacing" textLength="194.7917" x="1580.1432" y="359.3587">Seleccionar usuario de la lista</text><rect fill="none" filter="url(#f18pyv5b9ufdc9)" height="48.525" rx="4.1667" ry="4.1667" style="stroke:#2196F3;stroke-width:1.0416666666666667;" width="172.9167" x="1591.0807" y="415.1082"/><text fill="#2196F3" font-family="Verdana" font-size="12.5" lengthAdjust="spacing" textLength="139.5833" x="1607.7474" y="444.342">Confirmar eliminaci&#243;n</text><rect fill="none" filter="url(#f18pyv5b9ufdc9)" height="48.525" rx="4.1667" ry="4.1667" style="stroke:#2196F3;stroke-width:1.0416666666666667;" width="272.9167" x="1541.0807" y="500.0916"/><text fill="#2196F3" font-family="Verdana" font-size="12.5" lengthAdjust="spacing" textLength="239.5833" x="1557.7474" y="529.3254">Eliminar usuario de la base de datos</text><rect fill="none" filter="url(#f18pyv5b9ufdc9)" height="48.525" rx="4.1667" ry="4.1667" style="stroke:#2196F3;stroke-width:1.0416666666666667;" width="340.625" x="1507.2266" y="585.0749"/><text fill="#2196F3" font-family="Verdana" font-size="12.5" lengthAdjust="spacing" textLength="307.2917" x="1523.8932" y="614.3087">Mostrar mensaje "Usuario eliminado con &#233;xito"</text><rect fill="none" filter="url(#f18pyv5b9ufdc9)" height="48.525" rx="4.1667" ry="4.1667" style="stroke:#2196F3;stroke-width:1.0416666666666667;" width="257.2917" x="1911.3932" y="330.1249"/><text fill="#2196F3" font-family="Verdana" font-size="12.5" lengthAdjust="spacing" textLength="223.9583" x="1928.0599" y="359.3587">Cargar y mostrar lista de usuarios</text><rect fill="none" filter="url(#f18pyv5b9ufdc9)" height="48.525" rx="4.1667" ry="4.1667" style="stroke:#2196F3;stroke-width:1.0416666666666667;" width="342.7083" x="1868.6849" y="415.1082"/><text fill="#2196F3" font-family="Verdana" font-size="12.5" lengthAdjust="spacing" textLength="309.375" x="1885.3516" y="444.342">Mostrar nombre, email, bodega y rol asignados</text><polygon fill="none" filter="url(#f18pyv5b9ufdc9)" points="1858.7891,660.6832,1871.2891,673.1832,1858.7891,685.6832,1846.2891,673.1832,1858.7891,660.6832" style="stroke:#CCCCCC;stroke-width:1.0416666666666667;"/><polygon fill="none" filter="url(#f18pyv5b9ufdc9)" points="1481.5755,973.5331,1494.0755,986.0331,1481.5755,998.5331,1469.0755,986.0331,1481.5755,973.5331" style="stroke:#CCCCCC;stroke-width:1.0416666666666667;"/><polygon fill="none" filter="url(#f18pyv5b9ufdc9)" points="906.25,1008.9498,918.75,1021.4498,906.25,1033.9498,893.75,1021.4498,906.25,1008.9498" style="stroke:#CCCCCC;stroke-width:1.0416666666666667;"/><ellipse cx="906.25" cy="1066.2415" fill="none" filter="url(#f18pyv5b9ufdc9)" rx="11.4583" ry="11.4583" style="stroke:#1A78C2;stroke-width:1.0416666666666667;"/><ellipse cx="906.25" cy="1066.2415" fill="none" rx="6.25" ry="6.25" style="stroke:#1A78C2;stroke-width:1.0416666666666667;"/><line style="stroke:#2196F3;stroke-width:3.125;" x1="906.25" x2="906.25" y1="31.25" y2="52.0833"/><polygon fill="#2196F3" points="902.0833,41.6667,906.25,52.0833,910.4167,41.6667,906.25,45.8333" style="stroke:#2196F3;stroke-width:1.0416666666666667;"/><line style="stroke:#2196F3;stroke-width:3.125;" x1="906.25" x2="906.25" y1="100.6083" y2="121.4417"/><polygon fill="#2196F3" points="902.0833,111.025,906.25,121.4417,910.4167,111.025,906.25,115.1917" style="stroke:#2196F3;stroke-width:1.0416666666666667;"/><line style="stroke:#2196F3;stroke-width:3.125;" x1="343.4896" x2="343.4896" y1="285.7666" y2="322.2249"/><polygon fill="#2196F3" points="339.3229,311.8083,343.4896,322.2249,347.6563,311.8083,343.4896,315.9749" style="stroke:#2196F3;stroke-width:1.0416666666666667;"/><line style="stroke:#2196F3;stroke-width:3.125;" x1="343.4896" x2="343.4896" y1="370.7499" y2="407.2083"/><polygon fill="#2196F3" points="339.3229,396.7916,343.4896,407.2083,347.6563,396.7916,343.4896,400.9583" style="stroke:#2196F3;stroke-width:1.0416666666666667;"/><line style="stroke:#2196F3;stroke-width:3.125;" x1="172.9167" x2="172.9167" y1="587.1582" y2="623.6165"/><polygon fill="#2196F3" points="168.75,613.1999,172.9167,623.6165,177.0833,613.1999,172.9167,617.3665" style="stroke:#2196F3;stroke-width:1.0416666666666667;"/><line style="stroke:#2196F3;stroke-width:3.125;" x1="269.0104" x2="172.9167" y1="510.2041" y2="510.2041"/><line style="stroke:#2196F3;stroke-width:3.125;" x1="172.9167" x2="172.9167" y1="510.2041" y2="538.6332"/><polygon fill="#2196F3" points="168.75,528.2166,172.9167,538.6332,177.0833,528.2166,172.9167,532.3832" style="stroke:#2196F3;stroke-width:1.0416666666666667;"/><line style="stroke:#2196F3;stroke-width:3.125;" x1="417.9688" x2="514.0625" y1="510.2041" y2="510.2041"/><line style="stroke:#2196F3;stroke-width:3.125;" x1="514.0625" x2="514.0625" y1="510.2041" y2="538.6332"/><polygon fill="#2196F3" points="509.8958,528.2166,514.0625,538.6332,518.2292,528.2166,514.0625,532.3832" style="stroke:#2196F3;stroke-width:1.0416666666666667;"/><line style="stroke:#2196F3;stroke-width:3.125;" x1="172.9167" x2="172.9167" y1="672.1415" y2="711.7249"/><line style="stroke:#2196F3;stroke-width:3.125;" x1="172.9167" x2="330.9896" y1="711.7249" y2="711.7249"/><polygon fill="#2196F3" points="320.5729,707.5582,330.9896,711.7249,320.5729,715.8915,324.7396,711.7249" style="stroke:#2196F3;stroke-width:1.0416666666666667;"/><line style="stroke:#2196F3;stroke-width:3.125;" x1="514.0625" x2="514.0625" y1="587.1582" y2="711.7249"/><line style="stroke:#2196F3;stroke-width:3.125;" x1="514.0625" x2="355.9896" y1="711.7249" y2="711.7249"/><polygon fill="#2196F3" points="366.4063,707.5582,355.9896,711.7249,366.4063,715.8915,362.2396,711.7249" style="stroke:#2196F3;stroke-width:1.0416666666666667;"/><line style="stroke:#2196F3;stroke-width:3.125;" x1="343.4896" x2="343.4896" y1="455.7332" y2="492.1916"/><polygon fill="#2196F3" points="339.3229,481.7749,343.4896,492.1916,347.6563,481.7749,343.4896,485.9416" style="stroke:#2196F3;stroke-width:1.0416666666666667;"/><line style="stroke:#2196F3;stroke-width:3.125;" x1="1104.362" x2="1104.362" y1="332.2083" y2="368.6666"/><polygon fill="#2196F3" points="1100.1953,358.2499,1104.362,368.6666,1108.5286,358.2499,1104.362,362.4166" style="stroke:#2196F3;stroke-width:1.0416666666666667;"/><line style="stroke:#2196F3;stroke-width:3.125;" x1="1104.362" x2="1104.362" y1="489.6749" y2="526.4374"/><polygon fill="#2196F3" points="1100.1953,516.0207,1104.362,526.4374,1108.5286,516.0207,1104.362,520.1874" style="stroke:#2196F3;stroke-width:1.0416666666666667;"/><line style="stroke:#2196F3;stroke-width:3.125;" x1="1172.0703" x2="1235.0911" y1="471.6624" y2="471.6624"/><polygon fill="#2196F3" points="1230.9245,547.9436,1235.0911,558.3603,1239.2578,547.9436,1235.0911,552.1103" style="stroke:#2196F3;stroke-width:3.125;"/><line style="stroke:#2196F3;stroke-width:3.125;" x1="1235.0911" x2="1235.0911" y1="471.6624" y2="645.0582"/><line style="stroke:#2196F3;stroke-width:3.125;" x1="1235.0911" x2="1116.862" y1="645.0582" y2="645.0582"/><polygon fill="#2196F3" points="1127.2786,640.8915,1116.862,645.0582,1127.2786,649.2249,1123.112,645.0582" style="stroke:#2196F3;stroke-width:1.0416666666666667;"/><line style="stroke:#2196F3;stroke-width:3.125;" x1="1104.362" x2="1104.362" y1="574.9624" y2="632.5582"/><polygon fill="#2196F3" points="1100.1953,622.1415,1104.362,632.5582,1108.5286,622.1415,1104.362,626.3082" style="stroke:#2196F3;stroke-width:1.0416666666666667;"/><line style="stroke:#2196F3;stroke-width:3.125;" x1="1104.362" x2="1104.362" y1="417.1916" y2="453.6499"/><polygon fill="#2196F3" points="1100.1953,443.2332,1104.362,453.6499,1108.5286,443.2332,1104.362,447.3999" style="stroke:#2196F3;stroke-width:1.0416666666666667;"/><line style="stroke:#2196F3;stroke-width:3.125;" x1="1104.362" x2="1104.362" y1="657.5582" y2="694.0165"/><polygon fill="#2196F3" points="1100.1953,683.5999,1104.362,694.0165,1108.5286,683.5999,1104.362,687.7665" style="stroke:#2196F3;stroke-width:1.0416666666666667;"/><line style="stroke:#2196F3;stroke-width:3.125;" x1="910.8724" x2="910.8724" y1="858.3415" y2="879.1748"/><polygon fill="#2196F3" points="906.7057,868.7581,910.8724,879.1748,915.0391,868.7581,910.8724,872.9248" style="stroke:#2196F3;stroke-width:1.0416666666666667;"/><line style="stroke:#2196F3;stroke-width:3.125;" x1="1021.0286" x2="910.8724" y1="781.3873" y2="781.3873"/><line style="stroke:#2196F3;stroke-width:3.125;" x1="910.8724" x2="910.8724" y1="781.3873" y2="809.8165"/><polygon fill="#2196F3" points="906.7057,799.3998,910.8724,809.8165,915.0391,799.3998,910.8724,803.5665" style="stroke:#2196F3;stroke-width:1.0416666666666667;"/><line style="stroke:#2196F3;stroke-width:3.125;" x1="1187.6953" x2="1297.8516" y1="781.3873" y2="781.3873"/><line style="stroke:#2196F3;stroke-width:3.125;" x1="1297.8516" x2="1297.8516" y1="781.3873" y2="809.8165"/><polygon fill="#2196F3" points="1293.6849,799.3998,1297.8516,809.8165,1302.0182,799.3998,1297.8516,803.5665" style="stroke:#2196F3;stroke-width:1.0416666666666667;"/><line style="stroke:#2196F3;stroke-width:3.125;" x1="910.8724" x2="910.8724" y1="927.6998" y2="950.6165"/><line style="stroke:#2196F3;stroke-width:3.125;" x1="910.8724" x2="1091.862" y1="950.6165" y2="950.6165"/><polygon fill="#2196F3" points="1081.4453,946.4498,1091.862,950.6165,1081.4453,954.7831,1085.612,950.6165" style="stroke:#2196F3;stroke-width:1.0416666666666667;"/><line style="stroke:#2196F3;stroke-width:3.125;" x1="1297.8516" x2="1297.8516" y1="858.3415" y2="950.6165"/><line style="stroke:#2196F3;stroke-width:3.125;" x1="1297.8516" x2="1116.862" y1="950.6165" y2="950.6165"/><polygon fill="#2196F3" points="1127.2786,946.4498,1116.862,950.6165,1127.2786,954.7831,1123.112,950.6165" style="stroke:#2196F3;stroke-width:1.0416666666666667;"/><line style="stroke:#2196F3;stroke-width:3.125;" x1="1104.362" x2="1104.362" y1="742.5415" y2="763.3748"/><polygon fill="#2196F3" points="1100.1953,752.9582,1104.362,763.3748,1108.5286,752.9582,1104.362,757.1248" style="stroke:#2196F3;stroke-width:1.0416666666666667;"/><line style="stroke:#2196F3;stroke-width:3.125;" x1="1677.5391" x2="1677.5391" y1="378.6499" y2="415.1082"/><polygon fill="#2196F3" points="1673.3724,404.6916,1677.5391,415.1082,1681.7057,404.6916,1677.5391,408.8582" style="stroke:#2196F3;stroke-width:1.0416666666666667;"/><line style="stroke:#2196F3;stroke-width:3.125;" x1="1677.5391" x2="1677.5391" y1="463.6332" y2="500.0916"/><polygon fill="#2196F3" points="1673.3724,489.6749,1677.5391,500.0916,1681.7057,489.6749,1677.5391,493.8416" style="stroke:#2196F3;stroke-width:1.0416666666666667;"/><line style="stroke:#2196F3;stroke-width:3.125;" x1="1677.5391" x2="1677.5391" y1="548.6165" y2="585.0749"/><polygon fill="#2196F3" points="1673.3724,574.6582,1677.5391,585.0749,1681.7057,574.6582,1677.5391,578.8249" style="stroke:#2196F3;stroke-width:1.0416666666666667;"/><line style="stroke:#2196F3;stroke-width:3.125;" x1="2040.0391" x2="2040.0391" y1="378.6499" y2="415.1082"/><polygon fill="#2196F3" points="2035.8724,404.6916,2040.0391,415.1082,2044.2057,404.6916,2040.0391,408.8582" style="stroke:#2196F3;stroke-width:1.0416666666666667;"/><line style="stroke:#2196F3;stroke-width:3.125;" x1="1775.9766" x2="1677.5391" y1="301.6958" y2="301.6958"/><line style="stroke:#2196F3;stroke-width:3.125;" x1="1677.5391" x2="1677.5391" y1="301.6958" y2="330.1249"/><polygon fill="#2196F3" points="1673.3724,319.7083,1677.5391,330.1249,1681.7057,319.7083,1677.5391,323.8749" style="stroke:#2196F3;stroke-width:1.0416666666666667;"/><line style="stroke:#2196F3;stroke-width:3.125;" x1="1941.6016" x2="2040.0391" y1="301.6958" y2="301.6958"/><line style="stroke:#2196F3;stroke-width:3.125;" x1="2040.0391" x2="2040.0391" y1="301.6958" y2="330.1249"/><polygon fill="#2196F3" points="2035.8724,319.7083,2040.0391,330.1249,2044.2057,319.7083,2040.0391,323.8749" style="stroke:#2196F3;stroke-width:1.0416666666666667;"/><line style="stroke:#2196F3;stroke-width:3.125;" x1="1677.5391" x2="1677.5391" y1="633.5999" y2="673.1832"/><line style="stroke:#2196F3;stroke-width:3.125;" x1="1677.5391" x2="1846.2891" y1="673.1832" y2="673.1832"/><polygon fill="#2196F3" points="1835.8724,669.0165,1846.2891,673.1832,1835.8724,677.3499,1840.0391,673.1832" style="stroke:#2196F3;stroke-width:1.0416666666666667;"/><line style="stroke:#2196F3;stroke-width:3.125;" x1="2040.0391" x2="2040.0391" y1="463.6332" y2="673.1832"/><line style="stroke:#2196F3;stroke-width:3.125;" x1="2040.0391" x2="1871.2891" y1="673.1832" y2="673.1832"/><polygon fill="#2196F3" points="1881.7057,669.0165,1871.2891,673.1832,1881.7057,677.3499,1877.5391,673.1832" style="stroke:#2196F3;stroke-width:1.0416666666666667;"/><line style="stroke:#2196F3;stroke-width:3.125;" x1="1405.013" x2="1104.362" y1="255.2541" y2="255.2541"/><line style="stroke:#2196F3;stroke-width:3.125;" x1="1104.362" x2="1104.362" y1="255.2541" y2="283.6833"/><polygon fill="#2196F3" points="1100.1953,273.2666,1104.362,283.6833,1108.5286,273.2666,1104.362,277.4333" style="stroke:#2196F3;stroke-width:1.0416666666666667;"/><line style="stroke:#2196F3;stroke-width:3.125;" x1="1558.138" x2="1858.7891" y1="255.2541" y2="255.2541"/><line style="stroke:#2196F3;stroke-width:3.125;" x1="1858.7891" x2="1858.7891" y1="255.2541" y2="283.6833"/><polygon fill="#2196F3" points="1854.6224,273.2666,1858.7891,283.6833,1862.9557,273.2666,1858.7891,277.4333" style="stroke:#2196F3;stroke-width:1.0416666666666667;"/><line style="stroke:#2196F3;stroke-width:3.125;" x1="1104.362" x2="1104.362" y1="963.1165" y2="986.0331"/><line style="stroke:#2196F3;stroke-width:3.125;" x1="1104.362" x2="1469.0755" y1="986.0331" y2="986.0331"/><polygon fill="#2196F3" points="1458.6589,981.8665,1469.0755,986.0331,1458.6589,990.1998,1462.8255,986.0331" style="stroke:#2196F3;stroke-width:1.0416666666666667;"/><line style="stroke:#2196F3;stroke-width:3.125;" x1="1858.7891" x2="1858.7891" y1="685.6832" y2="986.0331"/><line style="stroke:#2196F3;stroke-width:3.125;" x1="1858.7891" x2="1494.0755" y1="986.0331" y2="986.0331"/><polygon fill="#2196F3" points="1504.4922,981.8665,1494.0755,986.0331,1504.4922,990.1998,1500.3255,986.0331" style="stroke:#2196F3;stroke-width:1.0416666666666667;"/><line style="stroke:#2196F3;stroke-width:3.125;" x1="830.7292" x2="343.4896" y1="208.8125" y2="208.8125"/><line style="stroke:#2196F3;stroke-width:3.125;" x1="343.4896" x2="343.4896" y1="208.8125" y2="237.2416"/><polygon fill="#2196F3" points="339.3229,226.825,343.4896,237.2416,347.6563,226.825,343.4896,230.9916" style="stroke:#2196F3;stroke-width:1.0416666666666667;"/><line style="stroke:#2196F3;stroke-width:3.125;" x1="981.7708" x2="1481.5755" y1="208.8125" y2="208.8125"/><line style="stroke:#2196F3;stroke-width:3.125;" x1="1481.5755" x2="1481.5755" y1="208.8125" y2="237.2416"/><polygon fill="#2196F3" points="1477.4089,226.825,1481.5755,237.2416,1485.7422,226.825,1481.5755,230.9916" style="stroke:#2196F3;stroke-width:1.0416666666666667;"/><line style="stroke:#2196F3;stroke-width:3.125;" x1="343.4896" x2="343.4896" y1="724.2249" y2="1021.4498"/><line style="stroke:#2196F3;stroke-width:3.125;" x1="343.4896" x2="893.75" y1="1021.4498" y2="1021.4498"/><polygon fill="#2196F3" points="883.3333,1017.2831,893.75,1021.4498,883.3333,1025.6165,887.5,1021.4498" style="stroke:#2196F3;stroke-width:1.0416666666666667;"/><line style="stroke:#2196F3;stroke-width:3.125;" x1="1481.5755" x2="1481.5755" y1="998.5331" y2="1021.4498"/><line style="stroke:#2196F3;stroke-width:3.125;" x1="1481.5755" x2="918.75" y1="1021.4498" y2="1021.4498"/><polygon fill="#2196F3" points="929.1667,1017.2831,918.75,1021.4498,929.1667,1025.6165,925,1021.4498" style="stroke:#2196F3;stroke-width:1.0416666666666667;"/><line style="stroke:#2196F3;stroke-width:3.125;" x1="906.25" x2="906.25" y1="169.9666" y2="190.8"/><polygon fill="#2196F3" points="902.0833,180.3833,906.25,190.8,910.4167,180.3833,906.25,184.55" style="stroke:#2196F3;stroke-width:1.0416666666666667;"/><line style="stroke:#2196F3;stroke-width:3.125;" x1="906.25" x2="906.25" y1="1033.9498" y2="1054.7831"/><polygon fill="#2196F3" points="902.0833,1044.3665,906.25,1054.7831,910.4167,1044.3665,906.25,1048.5331" style="stroke:#2196F3;stroke-width:1.0416666666666667;"/><!--SRC=[bLIxaXCn4CptAmP7TfM1t1TGBjyL4GHtt0UCjMEVG0_NIEiwypU414Jt0LJX7sCaxIxs-W4akwxLJ7TFjpMluXDP0ekHMEDhtqIZ7LNXYtORPBHGqmeR4p_HSvmRlNQMN0Gb3-A3gjGKTni2p_79LrM8oB6QpMkhdGwHiVOCg1JL16Z0xb_gndWOlQSGzVx52GqyXWPP-p2wgQhP0nbIIdk737v3Z2gNBUuVRs6yO4AUmbsjOtuRBJJfryAx86AH9uAXLp3-zJFNTjZl9Y3pEXW_x7zCAe3PmjkD8Mc0bMVRc5G4oeiUZ3w8AWDDQOMnytR9D0MogCqKbhwcDGgHm1ogRHomDsaWW-ABE95BxjnMosd15Gi2yLQBA-cmABtDHzlzDoFVmr2gGDpJEdl9lIOv5v8b1afy6Vkcr7xmfLBY2lYPODGw04hygCkC- -_FElfHwY0Z4EEFVdA-My29MI8S5P7QTJ9BjwlrgZh4A1ELW2wPF_Ij5JWmBgiHUArwzywcKkAGTA9wCocDxHy0xJ8vBw6SAXXeS0rj_RdukXbpHnkbIi2dOHxnNWrKeEOgDcZqrtwstTkEt_mzvMivOuTy6lOmxgk1TsCC8lzZo35M6tnx8oz7_w_XvplgLfgjL561pQkWF-wvZZ7-qwuM-h9P_MhfzrG_o09vBTztO5lqh3-Hjv9E-S_k4a58qMEGDIjAmi3dSidoCqI_-Gq0]--></g></svg>