<?xml version="1.0" encoding="us-ascii" standalone="no"?><svg xmlns="http://www.w3.org/2000/svg" xmlns:xlink="http://www.w3.org/1999/xlink" contentStyleType="text/css" height="1106px" preserveAspectRatio="none" style="width:949px;height:1106px;background:#FFFFFF;" version="1.1" viewBox="0 0 949 1106" width="949px" zoomAndPan="magnify"><defs/><g><text fill="#000000" font-family="sans-serif" font-size="14" font-weight="bold" lengthAdjust="spacing" textLength="188" x="373.875" y="24.5332">Diagrama Entidad-Relaci&#243;n</text><!--class Usuario--><g id="elem_Usuario"><rect codeLine="6" fill="#F1F1F1" height="166.875" id="Usuario" rx="2.5" ry="2.5" style="stroke:#181818;stroke-width:0.5;" width="185" x="123.25" y="384.1094"/><text fill="#000000" font-family="sans-serif" font-size="14" lengthAdjust="spacing" textLength="48" x="191.75" y="403.6426">Usuario</text><line style="stroke:#181818;stroke-width:0.5;" x1="124.25" x2="307.25" y1="411.7188" y2="411.7188"/><ellipse cx="134.25" cy="426.0234" fill="#000000" rx="3" ry="3" style="stroke:#000000;stroke-width:1.0;"/><text fill="#000000" font-family="sans-serif" font-size="14" lengthAdjust="spacing" textLength="40" x="143.25" y="430.252">ID : int</text><ellipse cx="134.25" cy="443.6328" fill="#000000" rx="3" ry="3" style="stroke:#000000;stroke-width:1.0;"/><text fill="#000000" font-family="sans-serif" font-size="14" lengthAdjust="spacing" textLength="96" x="143.25" y="447.8613">Nombre : string</text><ellipse cx="134.25" cy="461.2422" fill="#000000" rx="3" ry="3" style="stroke:#000000;stroke-width:1.0;"/><text fill="#000000" font-family="sans-serif" font-size="14" lengthAdjust="spacing" textLength="81" x="143.25" y="465.4707">Email : string</text><ellipse cx="134.25" cy="478.8516" fill="#000000" rx="3" ry="3" style="stroke:#000000;stroke-width:1.0;"/><text fill="#000000" font-family="sans-serif" font-size="14" lengthAdjust="spacing" textLength="121" x="143.25" y="483.0801">Contrase&#241;a : string</text><ellipse cx="134.25" cy="496.4609" fill="#000000" rx="3" ry="3" style="stroke:#000000;stroke-width:1.0;"/><text fill="#000000" font-family="sans-serif" font-size="14" lengthAdjust="spacing" textLength="61" x="143.25" y="500.6895">RolID : int</text><ellipse cx="134.25" cy="514.0703" fill="#000000" rx="3" ry="3" style="stroke:#000000;stroke-width:1.0;"/><text fill="#000000" font-family="sans-serif" font-size="14" lengthAdjust="spacing" textLength="101" x="143.25" y="518.2988">UbicacionID : int</text><ellipse cx="134.25" cy="531.6797" fill="#000000" rx="3" ry="3" style="stroke:#000000;stroke-width:1.0;"/><text fill="#000000" font-family="sans-serif" font-size="14" lengthAdjust="spacing" textLength="159" x="143.25" y="535.9082">FechaRegistro : datetime</text><line style="stroke:#181818;stroke-width:0.5;" x1="124.25" x2="307.25" y1="542.9844" y2="542.9844"/></g><!--class Rol--><g id="elem_Rol"><rect codeLine="16" fill="#F1F1F1" height="96.4375" id="Rol" rx="2.5" ry="2.5" style="stroke:#181818;stroke-width:0.5;" width="268" x="8.75" y="219.6094"/><text fill="#000000" font-family="sans-serif" font-size="14" lengthAdjust="spacing" textLength="21" x="132.25" y="239.1426">Rol</text><line style="stroke:#181818;stroke-width:0.5;" x1="9.75" x2="275.75" y1="247.2188" y2="247.2188"/><ellipse cx="19.75" cy="261.5234" fill="#000000" rx="3" ry="3" style="stroke:#000000;stroke-width:1.0;"/><text fill="#000000" font-family="sans-serif" font-size="14" lengthAdjust="spacing" textLength="40" x="28.75" y="265.752">ID : int</text><ellipse cx="19.75" cy="279.1328" fill="#000000" rx="3" ry="3" style="stroke:#000000;stroke-width:1.0;"/><text fill="#000000" font-family="sans-serif" font-size="14" lengthAdjust="spacing" textLength="96" x="28.75" y="283.3613">Nombre : string</text><ellipse cx="19.75" cy="296.7422" fill="#000000" rx="3" ry="3" style="stroke:#000000;stroke-width:1.0;"/><text fill="#000000" font-family="sans-serif" font-size="14" lengthAdjust="spacing" textLength="242" x="28.75" y="300.9707">Permisos : string[] -- Lista de permisos</text><line style="stroke:#181818;stroke-width:0.5;" x1="9.75" x2="275.75" y1="308.0469" y2="308.0469"/></g><!--class LogActividad--><g id="elem_LogActividad"><rect codeLine="22" fill="#F1F1F1" height="114.0469" id="LogActividad" rx="2.5" ry="2.5" style="stroke:#181818;stroke-width:0.5;" width="132" x="44.75" y="646.1094"/><text fill="#000000" font-family="sans-serif" font-size="14" lengthAdjust="spacing" textLength="81" x="70.25" y="665.6426">LogActividad</text><line style="stroke:#181818;stroke-width:0.5;" x1="45.75" x2="175.75" y1="673.7188" y2="673.7188"/><ellipse cx="55.75" cy="688.0234" fill="#000000" rx="3" ry="3" style="stroke:#000000;stroke-width:1.0;"/><text fill="#000000" font-family="sans-serif" font-size="14" lengthAdjust="spacing" textLength="40" x="64.75" y="692.252">ID : int</text><ellipse cx="55.75" cy="705.6328" fill="#000000" rx="3" ry="3" style="stroke:#000000;stroke-width:1.0;"/><text fill="#000000" font-family="sans-serif" font-size="14" lengthAdjust="spacing" textLength="88" x="64.75" y="709.8613">UsuarioID : int</text><ellipse cx="55.75" cy="723.2422" fill="#000000" rx="3" ry="3" style="stroke:#000000;stroke-width:1.0;"/><text fill="#000000" font-family="sans-serif" font-size="14" lengthAdjust="spacing" textLength="106" x="64.75" y="727.4707">Fecha : datetime</text><ellipse cx="55.75" cy="740.8516" fill="#000000" rx="3" ry="3" style="stroke:#000000;stroke-width:1.0;"/><text fill="#000000" font-family="sans-serif" font-size="14" lengthAdjust="spacing" textLength="89" x="64.75" y="745.0801">Acci&#243;n : string</text><line style="stroke:#181818;stroke-width:0.5;" x1="45.75" x2="175.75" y1="752.1563" y2="752.1563"/></g><!--class Bodega--><g id="elem_Bodega"><rect codeLine="29" fill="#F1F1F1" height="114.0469" id="Bodega" rx="2.5" ry="2.5" style="stroke:#181818;stroke-width:0.5;" width="312" x="363.75" y="45.6094"/><text fill="#000000" font-family="sans-serif" font-size="14" lengthAdjust="spacing" textLength="49" x="495.25" y="65.1426">Bodega</text><line style="stroke:#181818;stroke-width:0.5;" x1="364.75" x2="674.75" y1="73.2188" y2="73.2188"/><ellipse cx="374.75" cy="87.5234" fill="#000000" rx="3" ry="3" style="stroke:#000000;stroke-width:1.0;"/><text fill="#000000" font-family="sans-serif" font-size="14" lengthAdjust="spacing" textLength="40" x="383.75" y="91.752">ID : int</text><ellipse cx="374.75" cy="105.1328" fill="#000000" rx="3" ry="3" style="stroke:#000000;stroke-width:1.0;"/><text fill="#000000" font-family="sans-serif" font-size="14" lengthAdjust="spacing" textLength="96" x="383.75" y="109.3613">Nombre : string</text><ellipse cx="374.75" cy="122.7422" fill="#000000" rx="3" ry="3" style="stroke:#000000;stroke-width:1.0;"/><text fill="#000000" font-family="sans-serif" font-size="14" lengthAdjust="spacing" textLength="106" x="383.75" y="126.9707">Direcci&#243;n : string</text><ellipse cx="374.75" cy="140.3516" fill="#000000" rx="3" ry="3" style="stroke:#000000;stroke-width:1.0;"/><text fill="#000000" font-family="sans-serif" font-size="14" lengthAdjust="spacing" textLength="286" x="383.75" y="144.5801">Capacidad : string -- Volumen o peso m&#225;ximo</text><line style="stroke:#181818;stroke-width:0.5;" x1="364.75" x2="674.75" y1="151.6563" y2="151.6563"/></g><!--class Ubicaci?n--><g id="elem_Ubicaci&#243;n"><rect codeLine="36" fill="#F1F1F1" height="96.4375" id="Ubicaci&#243;n" rx="2.5" ry="2.5" style="stroke:#181818;stroke-width:0.5;" width="122" x="458.75" y="219.6094"/><text fill="#000000" font-family="sans-serif" font-size="14" lengthAdjust="spacing" textLength="61" x="489.25" y="239.1426">Ubicaci&#243;n</text><line style="stroke:#181818;stroke-width:0.5;" x1="459.75" x2="579.75" y1="247.2188" y2="247.2188"/><ellipse cx="469.75" cy="261.5234" fill="#000000" rx="3" ry="3" style="stroke:#000000;stroke-width:1.0;"/><text fill="#000000" font-family="sans-serif" font-size="14" lengthAdjust="spacing" textLength="40" x="478.75" y="265.752">ID : int</text><ellipse cx="469.75" cy="279.1328" fill="#000000" rx="3" ry="3" style="stroke:#000000;stroke-width:1.0;"/><text fill="#000000" font-family="sans-serif" font-size="14" lengthAdjust="spacing" textLength="96" x="478.75" y="283.3613">Nombre : string</text><ellipse cx="469.75" cy="296.7422" fill="#000000" rx="3" ry="3" style="stroke:#000000;stroke-width:1.0;"/><text fill="#000000" font-family="sans-serif" font-size="14" lengthAdjust="spacing" textLength="89" x="478.75" y="300.9707">BodegaID : int</text><line style="stroke:#181818;stroke-width:0.5;" x1="459.75" x2="579.75" y1="308.0469" y2="308.0469"/></g><!--class Pallet--><g id="elem_Pallet"><rect codeLine="42" fill="#F1F1F1" height="114.0469" id="Pallet" rx="2.5" ry="2.5" style="stroke:#181818;stroke-width:0.5;" width="210" x="414.75" y="410.6094"/><text fill="#000000" font-family="sans-serif" font-size="14" lengthAdjust="spacing" textLength="35" x="502.25" y="430.1426">Pallet</text><line style="stroke:#181818;stroke-width:0.5;" x1="415.75" x2="623.75" y1="438.2188" y2="438.2188"/><ellipse cx="425.75" cy="452.5234" fill="#000000" rx="3" ry="3" style="stroke:#000000;stroke-width:1.0;"/><text fill="#000000" font-family="sans-serif" font-size="14" lengthAdjust="spacing" textLength="40" x="434.75" y="456.752">ID : int</text><ellipse cx="425.75" cy="470.1328" fill="#000000" rx="3" ry="3" style="stroke:#000000;stroke-width:1.0;"/><text fill="#000000" font-family="sans-serif" font-size="14" lengthAdjust="spacing" textLength="92" x="434.75" y="474.3613">C&#243;digo : string</text><ellipse cx="425.75" cy="487.7422" fill="#000000" rx="3" ry="3" style="stroke:#000000;stroke-width:1.0;"/><text fill="#000000" font-family="sans-serif" font-size="14" lengthAdjust="spacing" textLength="101" x="434.75" y="491.9707">UbicacionID : int</text><ellipse cx="425.75" cy="505.3516" fill="#000000" rx="3" ry="3" style="stroke:#000000;stroke-width:1.0;"/><text fill="#000000" font-family="sans-serif" font-size="14" lengthAdjust="spacing" textLength="184" x="434.75" y="509.5801">FechaModificaci&#243;n : datetime</text><line style="stroke:#181818;stroke-width:0.5;" x1="415.75" x2="623.75" y1="516.6563" y2="516.6563"/></g><!--class Carga--><g id="elem_Carga"><rect codeLine="49" fill="#F1F1F1" height="78.8281" id="Carga" rx="2.5" ry="2.5" style="stroke:#181818;stroke-width:0.5;" width="101" x="487.25" y="663.6094"/><text fill="#000000" font-family="sans-serif" font-size="14" lengthAdjust="spacing" textLength="39" x="518.25" y="683.1426">Carga</text><line style="stroke:#181818;stroke-width:0.5;" x1="488.25" x2="587.25" y1="691.2188" y2="691.2188"/><ellipse cx="498.25" cy="705.5234" fill="#000000" rx="3" ry="3" style="stroke:#000000;stroke-width:1.0;"/><text fill="#000000" font-family="sans-serif" font-size="14" lengthAdjust="spacing" textLength="40" x="507.25" y="709.752">ID : int</text><ellipse cx="498.25" cy="723.1328" fill="#000000" rx="3" ry="3" style="stroke:#000000;stroke-width:1.0;"/><text fill="#000000" font-family="sans-serif" font-size="14" lengthAdjust="spacing" textLength="75" x="507.25" y="727.3613">PalletID : int</text><line style="stroke:#181818;stroke-width:0.5;" x1="488.25" x2="587.25" y1="734.4375" y2="734.4375"/></g><!--class Producto--><g id="elem_Producto"><rect codeLine="54" fill="#F1F1F1" height="114.0469" id="Producto" rx="2.5" ry="2.5" style="stroke:#181818;stroke-width:0.5;" width="122" x="445.75" y="846.6094"/><text fill="#000000" font-family="sans-serif" font-size="14" lengthAdjust="spacing" textLength="57" x="478.25" y="866.1426">Producto</text><line style="stroke:#181818;stroke-width:0.5;" x1="446.75" x2="566.75" y1="874.2188" y2="874.2188"/><ellipse cx="456.75" cy="888.5234" fill="#000000" rx="3" ry="3" style="stroke:#000000;stroke-width:1.0;"/><text fill="#000000" font-family="sans-serif" font-size="14" lengthAdjust="spacing" textLength="40" x="465.75" y="892.752">ID : int</text><ellipse cx="456.75" cy="906.1328" fill="#000000" rx="3" ry="3" style="stroke:#000000;stroke-width:1.0;"/><text fill="#000000" font-family="sans-serif" font-size="14" lengthAdjust="spacing" textLength="79" x="465.75" y="910.3613">CargaID : int</text><ellipse cx="456.75" cy="923.7422" fill="#000000" rx="3" ry="3" style="stroke:#000000;stroke-width:1.0;"/><text fill="#000000" font-family="sans-serif" font-size="14" lengthAdjust="spacing" textLength="96" x="465.75" y="927.9707">Nombre : string</text><ellipse cx="456.75" cy="941.3516" fill="#000000" rx="3" ry="3" style="stroke:#000000;stroke-width:1.0;"/><text fill="#000000" font-family="sans-serif" font-size="14" lengthAdjust="spacing" textLength="84" x="465.75" y="945.5801">Cantidad : int</text><line style="stroke:#181818;stroke-width:0.5;" x1="446.75" x2="566.75" y1="952.6563" y2="952.6563"/></g><!--class EtiquetaRFID--><g id="elem_EtiquetaRFID"><rect codeLine="61" fill="#F1F1F1" height="166.875" id="EtiquetaRFID" rx="2.5" ry="2.5" style="stroke:#181818;stroke-width:0.5;" width="218" x="233.75" y="619.6094"/><text fill="#000000" font-family="sans-serif" font-size="14" lengthAdjust="spacing" textLength="84" x="300.75" y="639.1426">EtiquetaRFID</text><line style="stroke:#181818;stroke-width:0.5;" x1="234.75" x2="450.75" y1="647.2188" y2="647.2188"/><ellipse cx="244.75" cy="661.5234" fill="#000000" rx="3" ry="3" style="stroke:#000000;stroke-width:1.0;"/><text fill="#000000" font-family="sans-serif" font-size="14" lengthAdjust="spacing" textLength="40" x="253.75" y="665.752">ID : int</text><ellipse cx="244.75" cy="679.1328" fill="#000000" rx="3" ry="3" style="stroke:#000000;stroke-width:1.0;"/><text fill="#000000" font-family="sans-serif" font-size="14" lengthAdjust="spacing" textLength="75" x="253.75" y="683.3613">PalletID : int</text><ellipse cx="244.75" cy="696.7422" fill="#000000" rx="3" ry="3" style="stroke:#000000;stroke-width:1.0;"/><text fill="#000000" font-family="sans-serif" font-size="14" lengthAdjust="spacing" textLength="101" x="253.75" y="700.9707">UbicacionID : int</text><ellipse cx="244.75" cy="714.3516" fill="#000000" rx="3" ry="3" style="stroke:#000000;stroke-width:1.0;"/><text fill="#000000" font-family="sans-serif" font-size="14" lengthAdjust="spacing" textLength="92" x="253.75" y="718.5801">C&#243;digo : string</text><ellipse cx="244.75" cy="731.9609" fill="#000000" rx="3" ry="3" style="stroke:#000000;stroke-width:1.0;"/><text fill="#000000" font-family="sans-serif" font-size="14" lengthAdjust="spacing" textLength="192" x="253.75" y="736.1895">Fecha&#218;ltimaLectura : datetime</text><ellipse cx="244.75" cy="749.5703" fill="#000000" rx="3" ry="3" style="stroke:#000000;stroke-width:1.0;"/><text fill="#000000" font-family="sans-serif" font-size="14" lengthAdjust="spacing" textLength="111" x="253.75" y="753.7988">Latitude : decimal</text><ellipse cx="244.75" cy="767.1797" fill="#000000" rx="3" ry="3" style="stroke:#000000;stroke-width:1.0;"/><text fill="#000000" font-family="sans-serif" font-size="14" lengthAdjust="spacing" textLength="123" x="253.75" y="771.4082">Longitude : decimal</text><line style="stroke:#181818;stroke-width:0.5;" x1="234.75" x2="450.75" y1="778.4844" y2="778.4844"/></g><!--class DispositivoRFID--><g id="elem_DispositivoRFID"><rect codeLine="71" fill="#F1F1F1" height="184.4844" id="DispositivoRFID" rx="2.5" ry="2.5" style="stroke:#181818;stroke-width:0.5;" width="185" x="660.25" y="375.6094"/><text fill="#000000" font-family="sans-serif" font-size="14" lengthAdjust="spacing" textLength="100" x="702.75" y="395.1426">DispositivoRFID</text><line style="stroke:#181818;stroke-width:0.5;" x1="661.25" x2="844.25" y1="403.2188" y2="403.2188"/><ellipse cx="671.25" cy="417.5234" fill="#000000" rx="3" ry="3" style="stroke:#000000;stroke-width:1.0;"/><text fill="#000000" font-family="sans-serif" font-size="14" lengthAdjust="spacing" textLength="40" x="680.25" y="421.752">ID : int</text><ellipse cx="671.25" cy="435.1328" fill="#000000" rx="3" ry="3" style="stroke:#000000;stroke-width:1.0;"/><text fill="#000000" font-family="sans-serif" font-size="14" lengthAdjust="spacing" textLength="101" x="680.25" y="439.3613">UbicacionID : int</text><ellipse cx="671.25" cy="452.7422" fill="#000000" rx="3" ry="3" style="stroke:#000000;stroke-width:1.0;"/><text fill="#000000" font-family="sans-serif" font-size="14" lengthAdjust="spacing" textLength="92" x="680.25" y="456.9707">C&#243;digo : string</text><ellipse cx="671.25" cy="470.3516" fill="#000000" rx="3" ry="3" style="stroke:#000000;stroke-width:1.0;"/><text fill="#000000" font-family="sans-serif" font-size="14" lengthAdjust="spacing" textLength="93" x="680.25" y="474.5801">Modelo : string</text><ellipse cx="671.25" cy="487.9609" fill="#000000" rx="3" ry="3" style="stroke:#000000;stroke-width:1.0;"/><text fill="#000000" font-family="sans-serif" font-size="14" lengthAdjust="spacing" textLength="115" x="680.25" y="492.1895">Fabricante : string</text><ellipse cx="671.25" cy="505.5703" fill="#000000" rx="3" ry="3" style="stroke:#000000;stroke-width:1.0;"/><text fill="#000000" font-family="sans-serif" font-size="14" lengthAdjust="spacing" textLength="131" x="680.25" y="509.7988">Frecuencia : decimal</text><ellipse cx="671.25" cy="523.1797" fill="#000000" rx="3" ry="3" style="stroke:#000000;stroke-width:1.0;"/><text fill="#000000" font-family="sans-serif" font-size="14" lengthAdjust="spacing" textLength="159" x="680.25" y="527.4082">FechaRegistro : datetime</text><ellipse cx="671.25" cy="540.7891" fill="#000000" rx="3" ry="3" style="stroke:#000000;stroke-width:1.0;"/><text fill="#000000" font-family="sans-serif" font-size="14" lengthAdjust="spacing" textLength="153" x="680.25" y="545.0176">EstadoOperativo : string</text><line style="stroke:#181818;stroke-width:0.5;" x1="661.25" x2="844.25" y1="552.0938" y2="552.0938"/></g><!--class SensorRFID--><g id="elem_SensorRFID"><rect codeLine="82" fill="#F1F1F1" height="96.4375" id="SensorRFID" rx="2.5" ry="2.5" style="stroke:#181818;stroke-width:0.5;" width="178" x="602.75" y="855.6094"/><text fill="#000000" font-family="sans-serif" font-size="14" lengthAdjust="spacing" textLength="77" x="653.25" y="875.1426">SensorRFID</text><line style="stroke:#181818;stroke-width:0.5;" x1="603.75" x2="779.75" y1="883.2188" y2="883.2188"/><ellipse cx="613.75" cy="897.5234" fill="#000000" rx="3" ry="3" style="stroke:#000000;stroke-width:1.0;"/><text fill="#000000" font-family="sans-serif" font-size="14" lengthAdjust="spacing" textLength="40" x="622.75" y="901.752">ID : int</text><ellipse cx="613.75" cy="915.1328" fill="#000000" rx="3" ry="3" style="stroke:#000000;stroke-width:1.0;"/><text fill="#000000" font-family="sans-serif" font-size="14" lengthAdjust="spacing" textLength="150" x="622.75" y="919.3613">RangoLectura : decimal</text><ellipse cx="613.75" cy="932.7422" fill="#000000" rx="3" ry="3" style="stroke:#000000;stroke-width:1.0;"/><text fill="#000000" font-family="sans-serif" font-size="14" lengthAdjust="spacing" textLength="152" x="622.75" y="936.9707">&#218;ltimaLectura : datetime</text><line style="stroke:#181818;stroke-width:0.5;" x1="603.75" x2="779.75" y1="944.0469" y2="944.0469"/></g><!--class AntenaRFID--><g id="elem_AntenaRFID"><rect codeLine="88" fill="#F1F1F1" height="114.0469" id="AntenaRFID" rx="2.5" ry="2.5" style="stroke:#181818;stroke-width:0.5;" width="218" x="724.75" y="646.1094"/><text fill="#000000" font-family="sans-serif" font-size="14" lengthAdjust="spacing" textLength="77" x="795.25" y="665.6426">AntenaRFID</text><line style="stroke:#181818;stroke-width:0.5;" x1="725.75" x2="941.75" y1="673.7188" y2="673.7188"/><ellipse cx="735.75" cy="688.0234" fill="#000000" rx="3" ry="3" style="stroke:#000000;stroke-width:1.0;"/><text fill="#000000" font-family="sans-serif" font-size="14" lengthAdjust="spacing" textLength="40" x="744.75" y="692.252">ID : int</text><ellipse cx="735.75" cy="705.6328" fill="#000000" rx="3" ry="3" style="stroke:#000000;stroke-width:1.0;"/><text fill="#000000" font-family="sans-serif" font-size="14" lengthAdjust="spacing" textLength="120" x="744.75" y="709.8613">Orientaci&#243;n : string</text><ellipse cx="735.75" cy="723.2422" fill="#000000" rx="3" ry="3" style="stroke:#000000;stroke-width:1.0;"/><text fill="#000000" font-family="sans-serif" font-size="14" lengthAdjust="spacing" textLength="192" x="744.75" y="727.4707">PotenciaTransmisi&#243;n : decimal</text><ellipse cx="735.75" cy="740.8516" fill="#000000" rx="3" ry="3" style="stroke:#000000;stroke-width:1.0;"/><text fill="#000000" font-family="sans-serif" font-size="14" lengthAdjust="spacing" textLength="173" x="744.75" y="745.0801">FechaInstalaci&#243;n : datetime</text><line style="stroke:#181818;stroke-width:0.5;" x1="725.75" x2="941.75" y1="752.1563" y2="752.1563"/></g><!--class Estado--><g id="elem_Estado"><rect codeLine="95" fill="#F1F1F1" height="78.8281" id="Estado" rx="2.5" ry="2.5" style="stroke:#181818;stroke-width:0.5;" width="122" x="630.75" y="1020.6094"/><text fill="#000000" font-family="sans-serif" font-size="14" lengthAdjust="spacing" textLength="44" x="669.75" y="1040.1426">Estado</text><line style="stroke:#181818;stroke-width:0.5;" x1="631.75" x2="751.75" y1="1048.2188" y2="1048.2188"/><ellipse cx="641.75" cy="1062.5234" fill="#000000" rx="3" ry="3" style="stroke:#000000;stroke-width:1.0;"/><text fill="#000000" font-family="sans-serif" font-size="14" lengthAdjust="spacing" textLength="40" x="650.75" y="1066.752">ID : int</text><ellipse cx="641.75" cy="1080.1328" fill="#000000" rx="3" ry="3" style="stroke:#000000;stroke-width:1.0;"/><text fill="#000000" font-family="sans-serif" font-size="14" lengthAdjust="spacing" textLength="96" x="650.75" y="1084.3613">Nombre : string</text><line style="stroke:#181818;stroke-width:0.5;" x1="631.75" x2="751.75" y1="1091.4375" y2="1091.4375"/></g><!--link Rol to Usuario--><g id="link_Rol_Usuario"><path codeLine="100" d="M200,323.7694 C200,344.2294 200,342.6894 200,365.9394 " fill="none" id="Rol-Usuario" style="stroke:#181818;stroke-width:1.0;"/><line style="stroke:#181818;stroke-width:1.0;" x1="196" x2="204" y1="319.7694" y2="319.7694"/><line style="stroke:#181818;stroke-width:1.0;" x1="196" x2="204" y1="322.7694" y2="322.7694"/><line style="stroke:#181818;stroke-width:1.0;" x1="200" x2="200" y1="323.7694" y2="315.7694"/><line style="stroke:#181818;stroke-width:1.0;" x1="200" x2="206" y1="375.9394" y2="383.9394"/><line style="stroke:#181818;stroke-width:1.0;" x1="200" x2="194" y1="375.9394" y2="383.9394"/><line style="stroke:#181818;stroke-width:1.0;" x1="200" x2="200" y1="375.9394" y2="383.9394"/><ellipse cx="200" cy="369.9394" fill="none" rx="4" ry="4" style="stroke:#181818;stroke-width:1.0;"/><text fill="#000000" font-family="sans-serif" font-size="13" lengthAdjust="spacing" textLength="63" x="136" y="346.3445">asignado a</text></g><!--link Rol to LogActividad--><g id="link_Rol_LogActividad"><path codeLine="101" d="M84,323.8794 C84,404.8194 84,541.5394 84,628.0194 " fill="none" id="Rol-LogActividad" style="stroke:#181818;stroke-width:1.0;"/><line style="stroke:#181818;stroke-width:1.0;" x1="80" x2="88" y1="319.8794" y2="319.8794"/><line style="stroke:#181818;stroke-width:1.0;" x1="80" x2="88" y1="322.8794" y2="322.8794"/><line style="stroke:#181818;stroke-width:1.0;" x1="84" x2="84" y1="323.8794" y2="315.8794"/><line style="stroke:#181818;stroke-width:1.0;" x1="84" x2="90" y1="638.0194" y2="646.0194"/><line style="stroke:#181818;stroke-width:1.0;" x1="84" x2="78" y1="638.0194" y2="646.0194"/><line style="stroke:#181818;stroke-width:1.0;" x1="84" x2="84" y1="638.0194" y2="646.0194"/><ellipse cx="84" cy="632.0194" fill="none" rx="4" ry="4" style="stroke:#181818;stroke-width:1.0;"/><text fill="#000000" font-family="sans-serif" font-size="13" lengthAdjust="spacing" textLength="76" x="7" y="477.4445">define acci&#243;n</text></g><!--link Usuario to LogActividad--><g id="link_Usuario_LogActividad"><path codeLine="102" d="M150,559.2994 C150,590.6294 150,599.4894 150,627.8894 " fill="none" id="Usuario-LogActividad" style="stroke:#181818;stroke-width:1.0;"/><line style="stroke:#181818;stroke-width:1.0;" x1="146" x2="154" y1="555.2994" y2="555.2994"/><line style="stroke:#181818;stroke-width:1.0;" x1="146" x2="154" y1="558.2994" y2="558.2994"/><line style="stroke:#181818;stroke-width:1.0;" x1="150" x2="150" y1="559.2994" y2="551.2994"/><line style="stroke:#181818;stroke-width:1.0;" x1="150" x2="156" y1="637.8894" y2="645.8894"/><line style="stroke:#181818;stroke-width:1.0;" x1="150" x2="144" y1="637.8894" y2="645.8894"/><line style="stroke:#181818;stroke-width:1.0;" x1="150" x2="150" y1="637.8894" y2="645.8894"/><ellipse cx="150" cy="631.8894" fill="none" rx="4" ry="4" style="stroke:#181818;stroke-width:1.0;"/><text fill="#000000" font-family="sans-serif" font-size="13" lengthAdjust="spacing" textLength="38" x="111" y="595.0845">realiza</text></g><!--link Usuario to EtiquetaRFID--><g id="link_Usuario_EtiquetaRFID"><path codeLine="104" d="M271,559.2994 C271,581.3794 271,579.2094 271,601.2894 " fill="none" id="Usuario-EtiquetaRFID" style="stroke:#181818;stroke-width:1.0;"/><line style="stroke:#181818;stroke-width:1.0;" x1="267" x2="275" y1="555.2994" y2="555.2994"/><line style="stroke:#181818;stroke-width:1.0;" x1="267" x2="275" y1="558.2994" y2="558.2994"/><line style="stroke:#181818;stroke-width:1.0;" x1="271" x2="271" y1="559.2994" y2="551.2994"/><line style="stroke:#181818;stroke-width:1.0;" x1="271" x2="277" y1="611.2894" y2="619.2894"/><line style="stroke:#181818;stroke-width:1.0;" x1="271" x2="265" y1="611.2894" y2="619.2894"/><line style="stroke:#181818;stroke-width:1.0;" x1="271" x2="271" y1="611.2894" y2="619.2894"/><ellipse cx="271" cy="605.2894" fill="none" rx="4" ry="4" style="stroke:#181818;stroke-width:1.0;"/><text fill="#000000" font-family="sans-serif" font-size="13" lengthAdjust="spacing" textLength="49" x="221" y="581.7945">asocia a</text></g><!--link Bodega to Ubicaci?n--><g id="link_Bodega_Ubicaci&#243;n"><path codeLine="106" d="M519.75,167.8594 C519.75,187.3094 519.75,182.8394 519.75,201.4994 " fill="none" id="Bodega-Ubicaci&#243;n" style="stroke:#181818;stroke-width:1.0;"/><line style="stroke:#181818;stroke-width:1.0;" x1="515.75" x2="523.75" y1="163.8594" y2="163.8594"/><line style="stroke:#181818;stroke-width:1.0;" x1="515.75" x2="523.75" y1="166.8594" y2="166.8594"/><line style="stroke:#181818;stroke-width:1.0;" x1="519.75" x2="519.75" y1="167.8594" y2="159.8594"/><line style="stroke:#181818;stroke-width:1.0;" x1="519.75" x2="525.75" y1="211.4994" y2="219.4994"/><line style="stroke:#181818;stroke-width:1.0;" x1="519.75" x2="513.75" y1="211.4994" y2="219.4994"/><line style="stroke:#181818;stroke-width:1.0;" x1="519.75" x2="519.75" y1="211.4994" y2="219.4994"/><ellipse cx="519.75" cy="205.4994" fill="none" rx="4" ry="4" style="stroke:#181818;stroke-width:1.0;"/><text fill="#000000" font-family="sans-serif" font-size="13" lengthAdjust="spacing" textLength="49" x="469.75" y="186.1745">contiene</text></g><!--link Ubicaci?n to Pallet--><g id="link_Ubicaci&#243;n_Pallet"><path codeLine="107" d="M519.75,323.7694 C519.75,352.1994 519.75,362.3694 519.75,392.2694 " fill="none" id="Ubicaci&#243;n-Pallet" style="stroke:#181818;stroke-width:1.0;"/><line style="stroke:#181818;stroke-width:1.0;" x1="515.75" x2="523.75" y1="319.7694" y2="319.7694"/><line style="stroke:#181818;stroke-width:1.0;" x1="515.75" x2="523.75" y1="322.7694" y2="322.7694"/><line style="stroke:#181818;stroke-width:1.0;" x1="519.75" x2="519.75" y1="323.7694" y2="315.7694"/><line style="stroke:#181818;stroke-width:1.0;" x1="519.75" x2="525.75" y1="402.2694" y2="410.2694"/><line style="stroke:#181818;stroke-width:1.0;" x1="519.75" x2="513.75" y1="402.2694" y2="410.2694"/><line style="stroke:#181818;stroke-width:1.0;" x1="519.75" x2="519.75" y1="402.2694" y2="410.2694"/><ellipse cx="519.75" cy="396.2694" fill="none" rx="4" ry="4" style="stroke:#181818;stroke-width:1.0;"/><text fill="#000000" font-family="sans-serif" font-size="13" lengthAdjust="spacing" textLength="49" x="469.75" y="359.5145">contiene</text></g><!--link Ubicaci?n to EtiquetaRFID--><g id="link_Ubicaci&#243;n_EtiquetaRFID"><path codeLine="108" d="M450.7,267.6094 C416.74,267.6094 389.25,267.6094 389.25,267.6094 C389.25,267.6094 389.25,474.8994 389.25,601.3994 " fill="none" id="Ubicaci&#243;n-EtiquetaRFID" style="stroke:#181818;stroke-width:1.0;"/><line style="stroke:#181818;stroke-width:1.0;" x1="454.7" x2="454.7" y1="263.6094" y2="271.6094"/><line style="stroke:#181818;stroke-width:1.0;" x1="451.7" x2="451.7" y1="263.6094" y2="271.6094"/><line style="stroke:#181818;stroke-width:1.0;" x1="450.7" x2="458.7" y1="267.6094" y2="267.6094"/><line style="stroke:#181818;stroke-width:1.0;" x1="389.25" x2="395.25" y1="611.3994" y2="619.3994"/><line style="stroke:#181818;stroke-width:1.0;" x1="389.25" x2="383.25" y1="611.3994" y2="619.3994"/><line style="stroke:#181818;stroke-width:1.0;" x1="389.25" x2="389.25" y1="611.3994" y2="619.3994"/><ellipse cx="389.25" cy="605.3994" fill="none" rx="4" ry="4" style="stroke:#181818;stroke-width:1.0;"/><text fill="#000000" font-family="sans-serif" font-size="13" lengthAdjust="spacing" textLength="44" x="344.25" y="405.2745">localiza</text></g><!--link Ubicaci?n to DispositivoRFID--><g id="link_Ubicaci&#243;n_DispositivoRFID"><path codeLine="109" d="M588.9,267.6094 C629.74,267.6094 668,267.6094 668,267.6094 C668,267.6094 668,305.0194 668,357.5094 " fill="none" id="Ubicaci&#243;n-DispositivoRFID" style="stroke:#181818;stroke-width:1.0;"/><line style="stroke:#181818;stroke-width:1.0;" x1="584.9" x2="584.9" y1="271.6094" y2="263.6094"/><line style="stroke:#181818;stroke-width:1.0;" x1="587.9" x2="587.9" y1="271.6094" y2="263.6094"/><line style="stroke:#181818;stroke-width:1.0;" x1="588.9" x2="580.9" y1="267.6094" y2="267.6094"/><line style="stroke:#181818;stroke-width:1.0;" x1="668" x2="674" y1="367.5094" y2="375.5094"/><line style="stroke:#181818;stroke-width:1.0;" x1="668" x2="662" y1="367.5094" y2="375.5094"/><line style="stroke:#181818;stroke-width:1.0;" x1="668" x2="668" y1="367.5094" y2="375.5094"/><ellipse cx="668" cy="361.5094" fill="none" rx="4" ry="4" style="stroke:#181818;stroke-width:1.0;"/><text fill="#000000" font-family="sans-serif" font-size="13" lengthAdjust="spacing" textLength="49" x="618" y="274.5045">contiene</text></g><!--link Pallet to EtiquetaRFID--><g id="link_Pallet_EtiquetaRFID"><path codeLine="111" d="M433.25,532.6194 C433.25,561.0694 433.25,580.0294 433.25,611.4494 " fill="none" id="Pallet-EtiquetaRFID" style="stroke:#181818;stroke-width:1.0;"/><line style="stroke:#181818;stroke-width:1.0;" x1="429.25" x2="437.25" y1="528.6194" y2="528.6194"/><line style="stroke:#181818;stroke-width:1.0;" x1="429.25" x2="437.25" y1="531.6194" y2="531.6194"/><line style="stroke:#181818;stroke-width:1.0;" x1="433.25" x2="433.25" y1="532.6194" y2="524.6194"/><line style="stroke:#181818;stroke-width:1.0;" x1="437.25" x2="429.25" y1="615.4494" y2="615.4494"/><line style="stroke:#181818;stroke-width:1.0;" x1="437.25" x2="429.25" y1="612.4494" y2="612.4494"/><line style="stroke:#181818;stroke-width:1.0;" x1="433.25" x2="433.25" y1="611.4494" y2="619.4494"/><text fill="#000000" font-family="sans-serif" font-size="13" lengthAdjust="spacing" textLength="77" x="355.25" y="568.5345">asociado con</text></g><!--link Pallet to Carga--><g id="link_Pallet_Carga"><path codeLine="112" d="M537.75,532.6194 C537.75,575.6294 537.75,607.5394 537.75,645.5794 " fill="none" id="Pallet-Carga" style="stroke:#181818;stroke-width:1.0;"/><line style="stroke:#181818;stroke-width:1.0;" x1="533.75" x2="541.75" y1="528.6194" y2="528.6194"/><line style="stroke:#181818;stroke-width:1.0;" x1="533.75" x2="541.75" y1="531.6194" y2="531.6194"/><line style="stroke:#181818;stroke-width:1.0;" x1="537.75" x2="537.75" y1="532.6194" y2="524.6194"/><line style="stroke:#181818;stroke-width:1.0;" x1="537.75" x2="543.75" y1="655.5794" y2="663.5794"/><line style="stroke:#181818;stroke-width:1.0;" x1="537.75" x2="531.75" y1="655.5794" y2="663.5794"/><line style="stroke:#181818;stroke-width:1.0;" x1="537.75" x2="537.75" y1="655.5794" y2="663.5794"/><ellipse cx="537.75" cy="649.5794" fill="none" rx="4" ry="4" style="stroke:#181818;stroke-width:1.0;"/><text fill="#000000" font-family="sans-serif" font-size="13" lengthAdjust="spacing" textLength="49" x="487.75" y="590.5945">contiene</text></g><!--link Carga to Producto--><g id="link_Carga_Producto"><path codeLine="113" d="M527.5,750.7194 C527.5,780.2794 527.5,795.0994 527.5,828.2294 " fill="none" id="Carga-Producto" style="stroke:#181818;stroke-width:1.0;"/><line style="stroke:#181818;stroke-width:1.0;" x1="523.5" x2="531.5" y1="746.7194" y2="746.7194"/><line style="stroke:#181818;stroke-width:1.0;" x1="523.5" x2="531.5" y1="749.7194" y2="749.7194"/><line style="stroke:#181818;stroke-width:1.0;" x1="527.5" x2="527.5" y1="750.7194" y2="742.7194"/><line style="stroke:#181818;stroke-width:1.0;" x1="527.5" x2="533.5" y1="838.2294" y2="846.2294"/><line style="stroke:#181818;stroke-width:1.0;" x1="527.5" x2="521.5" y1="838.2294" y2="846.2294"/><line style="stroke:#181818;stroke-width:1.0;" x1="527.5" x2="527.5" y1="838.2294" y2="846.2294"/><ellipse cx="527.5" cy="832.2294" fill="none" rx="4" ry="4" style="stroke:#181818;stroke-width:1.0;"/><text fill="#000000" font-family="sans-serif" font-size="13" lengthAdjust="spacing" textLength="28" x="498.5" y="790.9745">tiene</text></g><!--link EtiquetaRFID to Estado--><g id="link_EtiquetaRFID_Estado"><path codeLine="115" d="M339.75,794.9294 C339.75,900.5894 339.75,1060.6094 339.75,1060.6094 C339.75,1060.6094 521.59,1060.6094 622.44,1060.6094 " fill="none" id="EtiquetaRFID-Estado" style="stroke:#181818;stroke-width:1.0;"/><line style="stroke:#181818;stroke-width:1.0;" x1="335.75" x2="343.75" y1="790.9294" y2="790.9294"/><line style="stroke:#181818;stroke-width:1.0;" x1="335.75" x2="343.75" y1="793.9294" y2="793.9294"/><line style="stroke:#181818;stroke-width:1.0;" x1="339.75" x2="339.75" y1="794.9294" y2="786.9294"/><line style="stroke:#181818;stroke-width:1.0;" x1="626.44" x2="626.44" y1="1056.6094" y2="1064.6094"/><line style="stroke:#181818;stroke-width:1.0;" x1="623.44" x2="623.44" y1="1056.6094" y2="1064.6094"/><line style="stroke:#181818;stroke-width:1.0;" x1="622.44" x2="630.44" y1="1060.6094" y2="1060.6094"/><text fill="#000000" font-family="sans-serif" font-size="13" lengthAdjust="spacing" textLength="28" x="319.25" y="1057.1045">tiene</text></g><!--link DispositivoRFID to SensorRFID--><g id="link_DispositivoRFID_SensorRFID"><path codeLine="116" d="M692.5,567.8094 C692.5,658.1494 692.5,766.3094 692.5,837.3694 " fill="none" id="DispositivoRFID-SensorRFID" style="stroke:#181818;stroke-width:1.0;"/><line style="stroke:#181818;stroke-width:1.0;" x1="688.5" x2="696.5" y1="563.8094" y2="563.8094"/><line style="stroke:#181818;stroke-width:1.0;" x1="688.5" x2="696.5" y1="566.8094" y2="566.8094"/><line style="stroke:#181818;stroke-width:1.0;" x1="692.5" x2="692.5" y1="567.8094" y2="559.8094"/><line style="stroke:#181818;stroke-width:1.0;" x1="692.5" x2="698.5" y1="847.3694" y2="855.3694"/><line style="stroke:#181818;stroke-width:1.0;" x1="692.5" x2="686.5" y1="847.3694" y2="855.3694"/><line style="stroke:#181818;stroke-width:1.0;" x1="692.5" x2="692.5" y1="847.3694" y2="855.3694"/><ellipse cx="692.5" cy="841.3694" fill="none" rx="4" ry="4" style="stroke:#181818;stroke-width:1.0;"/><text fill="#000000" font-family="sans-serif" font-size="13" lengthAdjust="spacing" textLength="39" x="652.5" y="704.0845">hereda</text></g><!--link DispositivoRFID to AntenaRFID--><g id="link_DispositivoRFID_AntenaRFID"><path codeLine="117" d="M785,567.6694 C785,596.6994 785,601.9094 785,627.7894 " fill="none" id="DispositivoRFID-AntenaRFID" style="stroke:#181818;stroke-width:1.0;"/><line style="stroke:#181818;stroke-width:1.0;" x1="781" x2="789" y1="563.6694" y2="563.6694"/><line style="stroke:#181818;stroke-width:1.0;" x1="781" x2="789" y1="566.6694" y2="566.6694"/><line style="stroke:#181818;stroke-width:1.0;" x1="785" x2="785" y1="567.6694" y2="559.6694"/><line style="stroke:#181818;stroke-width:1.0;" x1="785" x2="791" y1="637.7894" y2="645.7894"/><line style="stroke:#181818;stroke-width:1.0;" x1="785" x2="779" y1="637.7894" y2="645.7894"/><line style="stroke:#181818;stroke-width:1.0;" x1="785" x2="785" y1="637.7894" y2="645.7894"/><ellipse cx="785" cy="631.7894" fill="none" rx="4" ry="4" style="stroke:#181818;stroke-width:1.0;"/><text fill="#000000" font-family="sans-serif" font-size="13" lengthAdjust="spacing" textLength="39" x="745" y="599.2245">hereda</text></g><!--link SensorRFID to Estado--><g id="link_SensorRFID_Estado"><path codeLine="119" d="M691.75,959.8394 C691.75,981.8494 691.75,991.5794 691.75,1012.4394 " fill="none" id="SensorRFID-Estado" style="stroke:#181818;stroke-width:1.0;"/><line style="stroke:#181818;stroke-width:1.0;" x1="687.75" x2="695.75" y1="955.8394" y2="955.8394"/><line style="stroke:#181818;stroke-width:1.0;" x1="687.75" x2="695.75" y1="958.8394" y2="958.8394"/><line style="stroke:#181818;stroke-width:1.0;" x1="691.75" x2="691.75" y1="959.8394" y2="951.8394"/><line style="stroke:#181818;stroke-width:1.0;" x1="695.75" x2="687.75" y1="1016.4394" y2="1016.4394"/><line style="stroke:#181818;stroke-width:1.0;" x1="695.75" x2="687.75" y1="1013.4394" y2="1013.4394"/><line style="stroke:#181818;stroke-width:1.0;" x1="691.75" x2="691.75" y1="1012.4394" y2="1020.4394"/><text fill="#000000" font-family="sans-serif" font-size="13" lengthAdjust="spacing" textLength="28" x="662.75" y="982.6345">tiene</text></g><!--link AntenaRFID to Estado--><g id="link_AntenaRFID_Estado"><path codeLine="120" d="M861.75,768.1494 C861.75,869.0794 861.75,1060.6094 861.75,1060.6094 C861.75,1060.6094 809.82,1060.6094 761.12,1060.6094 " fill="none" id="AntenaRFID-Estado" style="stroke:#181818;stroke-width:1.0;"/><line style="stroke:#181818;stroke-width:1.0;" x1="857.75" x2="865.75" y1="764.1494" y2="764.1494"/><line style="stroke:#181818;stroke-width:1.0;" x1="857.75" x2="865.75" y1="767.1494" y2="767.1494"/><line style="stroke:#181818;stroke-width:1.0;" x1="861.75" x2="861.75" y1="768.1494" y2="760.1494"/><line style="stroke:#181818;stroke-width:1.0;" x1="757.12" x2="757.12" y1="1064.6094" y2="1056.6094"/><line style="stroke:#181818;stroke-width:1.0;" x1="760.12" x2="760.12" y1="1064.6094" y2="1056.6094"/><line style="stroke:#181818;stroke-width:1.0;" x1="761.12" x2="753.12" y1="1060.6094" y2="1060.6094"/><text fill="#000000" font-family="sans-serif" font-size="13" lengthAdjust="spacing" textLength="28" x="832.75" y="961.1845">tiene</text></g><!--link AntenaRFID to SensorRFID--><g id="link_AntenaRFID_SensorRFID"><path codeLine="121" d="M752.75,768.2994 C752.75,798.3894 752.75,808.8794 752.75,837.4994 " fill="none" id="AntenaRFID-SensorRFID" style="stroke:#181818;stroke-width:1.0;"/><line style="stroke:#181818;stroke-width:1.0;" x1="748.75" x2="756.75" y1="764.2994" y2="764.2994"/><line style="stroke:#181818;stroke-width:1.0;" x1="748.75" x2="756.75" y1="767.2994" y2="767.2994"/><line style="stroke:#181818;stroke-width:1.0;" x1="752.75" x2="752.75" y1="768.2994" y2="760.2994"/><line style="stroke:#181818;stroke-width:1.0;" x1="752.75" x2="758.75" y1="847.4994" y2="855.4994"/><line style="stroke:#181818;stroke-width:1.0;" x1="752.75" x2="746.75" y1="847.4994" y2="855.4994"/><line style="stroke:#181818;stroke-width:1.0;" x1="752.75" x2="752.75" y1="847.4994" y2="855.4994"/><ellipse cx="752.75" cy="841.4994" fill="none" rx="4" ry="4" style="stroke:#181818;stroke-width:1.0;"/><text fill="#000000" font-family="sans-serif" font-size="13" lengthAdjust="spacing" textLength="57" x="694.75" y="804.3945">monitorea</text></g><!--SRC=[bLLBRjj03Dth50Cj2_W2tQN-007S9d2JReekw1b69ZeQkgDHqJJkHRhh4OeSmHSh9LdsI9OIrpjJZu-FJoHrHy6YcX5a7d9GSnV8W9ciq8Ac_RDBaWqPL9gyjfWKNybjGP3AaiFmk4N5FcmuIL0ImwDAxuiIF76gdXAbtgZhcNgho8NwpmVErnubK0HFBgjZynp8TaDJTi53WVk_q7smOjlXkr-J5fNiEj45wWsiC2F9P8aR21Wen-JNIQKmNQpm5drE1HV7wESlQZ9HI-479TPi3yzZ_YLdLphGzyhBmK87cyw5nuAhu9MkNyD9KbJb7HlCuE96PkInprRx3LjnKPGUmrL_dzYMEJh5qc31Aj__-K4vn-KFzWlVnH8QnKTOH7OBrc8O99hkdmrbt6LwuTs_PqCFhRIH0PY27t6k4J8eqRCfTHYUxPhmrVwdqEpNEVayqBSI0wmMrxDBT8rxC6XNRSp-jnKVO8awbFviqfOWIafJAJQe1MURCBki7uzqpwZOSa4owpmg_Jzqohj3szSEQoy4BlJCNCWub-WqGK_ow0Me3uwihU4RsLgeH0ykraTq1VlHVbRWCevSZ4gFMnpHNqahRlnDttWI90niwYs7kjyx3wwGezCEUB_tQoTDsXSNeB7XeiMLBBcNgltjTfC9FxKNJ60f59GvOLEG3Y7ZOrZ13Jx8nqD1SulIf6Lw8SKZMFefz4FWU7KQELpDH8LkxarNzpew3QcMRusuZQBY53zYcvrx7TTNO5aVz0wXUolJfKyEDO-ITxkH1iLlIKlF4gH2VOowl4seWshlMGLigyUbskhrf4IWllu3tMbfAkm6FHeO1PzM80Od4OSQAn-bNemvavUpey0oLka_]--></g></svg>