<?xml version="1.0" encoding="us-ascii" standalone="no"?><svg xmlns="http://www.w3.org/2000/svg" xmlns:xlink="http://www.w3.org/1999/xlink" contentStyleType="text/css" height="1683.3333px" preserveAspectRatio="none" style="width:1153px;height:1683px;" version="1.1" viewBox="0 0 1153 1683" width="1153.125px" zoomAndPan="magnify"><defs><filter height="300%" id="f33kni1wm8ota" width="300%" x="-1" y="-1"><feGaussianBlur result="blurOut" stdDeviation="2.0833333333333335"/><feColorMatrix in="blurOut" result="blurOut2" type="matrix" values="0 0 0 0 0 0 0 0 0 0 0 0 0 0 0 0 0 0 .4 0"/><feOffset dx="4.166666666666667" dy="4.166666666666667" in="blurOut2" result="blurOut3"/><feBlend in="SourceGraphic" in2="blurOut3" mode="normal"/></filter><linearGradient id="g33kni1wm8ota0" x1="50%" x2="50%" y1="0%" y2="100%"><stop offset="0%" stop-color="#2196F3"/><stop offset="100%" stop-color="#1A78C2"/></linearGradient></defs><g><rect fill="none" height="58.6528" id="_title" rx="4.1667" ry="4.1667" style="stroke:#CCCCCC;stroke-width:1.0416666666666667;" width="220.8333" x="461.7188" y="20.8333"/><text fill="#2196F3" font-family="Verdana" font-size="20.8333" font-weight="bold" lengthAdjust="spacing" textLength="187.5" x="478.3854" y="58.4452">Diagrama F&#237;sico</text><!--class usuario--><g id="elem_usuario"><rect codeLine="7" fill="none" filter="url(#f33kni1wm8ota)" height="305.1554" id="usuario" rx="4.1667" ry="4.1667" style="stroke:#2196F3;stroke-width:1.0416666666666667;" width="226.0417" x="38.5417" y="361.7778"/><rect fill="url(#g33kni1wm8ota0)" height="45.1757" rx="4.1667" ry="4.1667" style="stroke:url(#g33kni1wm8ota0);stroke-width:1.0416666666666667;" width="226.0417" x="38.5417" y="361.7778"/><rect fill="url(#g33kni1wm8ota0)" height="4.1667" style="stroke:url(#g33kni1wm8ota0);stroke-width:1.0416666666666667;" width="226.0417" x="38.5417" y="402.7868"/><rect codeLine="7" fill="none" height="305.1554" id="usuario" rx="4.1667" ry="4.1667" style="stroke:#2196F3;stroke-width:1.0416666666666667;" width="226.0417" x="38.5417" y="361.7778"/><text fill="#222222" font-family="Verdana" font-size="11.4583" lengthAdjust="spacing" textLength="44.7917" x="129.1667" y="388.9226">Usuario</text><line style="stroke:#2196F3;stroke-width:1.0416666666666667;" x1="39.5833" x2="263.5417" y1="406.9534" y2="406.9534"/><text fill="#222222" font-family="Verdana" font-size="11.4583" lengthAdjust="spacing" textLength="68.75" x="55.2083" y="433.0566">id: int &#171;PK&#187;</text><line style="stroke:#2196F3;stroke-width:1.0416666666666667;" x1="39.5833" x2="263.5417" y1="450.0458" y2="450.0458"/><text fill="#222222" font-family="Verdana" font-size="11.4583" lengthAdjust="spacing" textLength="90.625" x="55.2083" y="476.149">rol_id: int &#171;FK&#187;</text><text fill="#222222" font-family="Verdana" font-size="11.4583" lengthAdjust="spacing" textLength="130.2083" x="55.2083" y="510.908">ubicacion_id: int &#171;FK&#187;</text><text fill="#222222" font-family="Verdana" font-size="11.4583" lengthAdjust="spacing" textLength="140.625" x="55.2083" y="545.667">nombre: varchar2(255)</text><text fill="#222222" font-family="Verdana" font-size="11.4583" lengthAdjust="spacing" textLength="192.7083" x="55.2083" y="580.426">email: varchar2(255) &#171;UNIQUE&#187;</text><text fill="#222222" font-family="Verdana" font-size="11.4583" lengthAdjust="spacing" textLength="160.4167" x="55.2083" y="615.185">contrase&#241;a: varchar2(255)</text><text fill="#222222" font-family="Verdana" font-size="11.4583" lengthAdjust="spacing" textLength="146.875" x="55.2083" y="649.9441">fecha_registro: datetime</text></g><!--class rol--><g id="elem_rol"><rect codeLine="18" fill="none" filter="url(#f33kni1wm8ota)" height="166.1194" id="rol" rx="4.1667" ry="4.1667" style="stroke:#2196F3;stroke-width:1.0416666666666667;" width="189.5833" x="56.7708" y="115.9444"/><rect fill="url(#g33kni1wm8ota0)" height="45.1757" rx="4.1667" ry="4.1667" style="stroke:url(#g33kni1wm8ota0);stroke-width:1.0416666666666667;" width="189.5833" x="56.7708" y="115.9444"/><rect fill="url(#g33kni1wm8ota0)" height="4.1667" style="stroke:url(#g33kni1wm8ota0);stroke-width:1.0416666666666667;" width="189.5833" x="56.7708" y="156.9534"/><rect codeLine="18" fill="none" height="166.1194" id="rol" rx="4.1667" ry="4.1667" style="stroke:#2196F3;stroke-width:1.0416666666666667;" width="189.5833" x="56.7708" y="115.9444"/><text fill="#222222" font-family="Verdana" font-size="11.4583" lengthAdjust="spacing" textLength="18.75" x="142.1875" y="143.0893">Rol</text><line style="stroke:#2196F3;stroke-width:1.0416666666666667;" x1="57.8125" x2="245.3125" y1="161.1201" y2="161.1201"/><text fill="#222222" font-family="Verdana" font-size="11.4583" lengthAdjust="spacing" textLength="68.75" x="73.4375" y="187.2233">id: int &#171;PK&#187;</text><line style="stroke:#2196F3;stroke-width:1.0416666666666667;" x1="57.8125" x2="245.3125" y1="204.2124" y2="204.2124"/><text fill="#222222" font-family="Verdana" font-size="11.4583" lengthAdjust="spacing" textLength="140.625" x="73.4375" y="230.3157">nombre: varchar2(100)</text><text fill="#222222" font-family="Verdana" font-size="11.4583" lengthAdjust="spacing" textLength="156.25" x="73.4375" y="265.0747">permisos: text[] &#171;ARRAY&#187;</text></g><!--class logactividad--><g id="elem_logactividad"><rect codeLine="25" fill="none" filter="url(#f33kni1wm8ota)" height="200.8784" id="logactividad" rx="4.1667" ry="4.1667" style="stroke:#2196F3;stroke-width:1.0416666666666667;" width="165.625" x="17.7083" y="798.7569"/><rect fill="url(#g33kni1wm8ota0)" height="45.1757" rx="4.1667" ry="4.1667" style="stroke:url(#g33kni1wm8ota0);stroke-width:1.0416666666666667;" width="165.625" x="17.7083" y="798.7569"/><rect fill="url(#g33kni1wm8ota0)" height="4.1667" style="stroke:url(#g33kni1wm8ota0);stroke-width:1.0416666666666667;" width="165.625" x="17.7083" y="839.7659"/><rect codeLine="25" fill="none" height="200.8784" id="logactividad" rx="4.1667" ry="4.1667" style="stroke:#2196F3;stroke-width:1.0416666666666667;" width="165.625" x="17.7083" y="798.7569"/><text fill="#222222" font-family="Verdana" font-size="11.4583" lengthAdjust="spacing" textLength="75" x="63.0208" y="825.9018">LogActividad</text><line style="stroke:#2196F3;stroke-width:1.0416666666666667;" x1="18.75" x2="182.2917" y1="843.9326" y2="843.9326"/><text fill="#222222" font-family="Verdana" font-size="11.4583" lengthAdjust="spacing" textLength="68.75" x="34.375" y="870.0358">id: int &#171;PK&#187;</text><line style="stroke:#2196F3;stroke-width:1.0416666666666667;" x1="18.75" x2="182.2917" y1="887.0249" y2="887.0249"/><text fill="#222222" font-family="Verdana" font-size="11.4583" lengthAdjust="spacing" textLength="118.75" x="34.375" y="913.1282">usuario_id: int &#171;FK&#187;</text><text fill="#222222" font-family="Verdana" font-size="11.4583" lengthAdjust="spacing" textLength="93.75" x="34.375" y="947.8872">fecha: datetime</text><text fill="#222222" font-family="Verdana" font-size="11.4583" lengthAdjust="spacing" textLength="132.2917" x="34.375" y="982.6462">accion: varchar2(255)</text></g><!--class centro_dist--><g id="elem_centro_dist"><rect codeLine="33" fill="none" filter="url(#f33kni1wm8ota)" height="166.1194" id="centro_dist" rx="4.1667" ry="4.1667" style="stroke:#2196F3;stroke-width:1.0416666666666667;" width="181.25" x="692.1875" y="115.9444"/><rect fill="url(#g33kni1wm8ota0)" height="45.1757" rx="4.1667" ry="4.1667" style="stroke:url(#g33kni1wm8ota0);stroke-width:1.0416666666666667;" width="181.25" x="692.1875" y="115.9444"/><rect fill="url(#g33kni1wm8ota0)" height="4.1667" style="stroke:url(#g33kni1wm8ota0);stroke-width:1.0416666666666667;" width="181.25" x="692.1875" y="156.9534"/><rect codeLine="33" fill="none" height="166.1194" id="centro_dist" rx="4.1667" ry="4.1667" style="stroke:#2196F3;stroke-width:1.0416666666666667;" width="181.25" x="692.1875" y="115.9444"/><text fill="#222222" font-family="Verdana" font-size="11.4583" lengthAdjust="spacing" textLength="110.4167" x="727.6042" y="143.0893">CentroDistribuci&#243;n</text><line style="stroke:#2196F3;stroke-width:1.0416666666666667;" x1="693.2292" x2="872.3958" y1="161.1201" y2="161.1201"/><text fill="#222222" font-family="Verdana" font-size="11.4583" lengthAdjust="spacing" textLength="68.75" x="708.8542" y="187.2233">id: int &#171;PK&#187;</text><line style="stroke:#2196F3;stroke-width:1.0416666666666667;" x1="693.2292" x2="872.3958" y1="204.2124" y2="204.2124"/><text fill="#222222" font-family="Verdana" font-size="11.4583" lengthAdjust="spacing" textLength="140.625" x="708.8542" y="230.3157">nombre: varchar2(255)</text><text fill="#222222" font-family="Verdana" font-size="11.4583" lengthAdjust="spacing" textLength="147.9167" x="708.8542" y="265.0747">direccion: varchar2(255)</text></g><!--class centro_bodega--><g id="elem_centro_bodega"><rect codeLine="40" fill="none" filter="url(#f33kni1wm8ota)" height="131.3604" id="centro_bodega" rx="4.1667" ry="4.1667" style="stroke:#2196F3;stroke-width:1.0416666666666667;" width="189.5833" x="656.7708" y="448.7569"/><rect fill="url(#g33kni1wm8ota0)" height="45.1757" rx="4.1667" ry="4.1667" style="stroke:url(#g33kni1wm8ota0);stroke-width:1.0416666666666667;" width="189.5833" x="656.7708" y="448.7569"/><rect fill="url(#g33kni1wm8ota0)" height="4.1667" style="stroke:url(#g33kni1wm8ota0);stroke-width:1.0416666666666667;" width="189.5833" x="656.7708" y="489.7659"/><rect codeLine="40" fill="none" height="131.3604" id="centro_bodega" rx="4.1667" ry="4.1667" style="stroke:#2196F3;stroke-width:1.0416666666666667;" width="189.5833" x="656.7708" y="448.7569"/><text fill="#222222" font-family="Verdana" font-size="11.4583" lengthAdjust="spacing" textLength="162.5" x="670.3125" y="475.9018">CentroDistribuci&#243;n_Bodega</text><line style="stroke:#2196F3;stroke-width:1.0416666666666667;" x1="657.8125" x2="845.3125" y1="493.9326" y2="493.9326"/><text fill="#222222" font-family="Verdana" font-size="11.4583" lengthAdjust="spacing" textLength="156.25" x="673.4375" y="520.0358">centro_dist_id: &#171;PK&#187; &#171;FK&#187;</text><text fill="#222222" font-family="Verdana" font-size="11.4583" lengthAdjust="spacing" textLength="134.375" x="673.4375" y="554.7948">bodega_id: &#171;PK&#187; &#171;FK&#187;</text><line style="stroke:#2196F3;stroke-width:1.0416666666666667;" x1="657.8125" x2="845.3125" y1="571.784" y2="571.784"/></g><!--class bodega--><g id="elem_bodega"><rect codeLine="45" fill="none" filter="url(#f33kni1wm8ota)" height="200.8784" id="bodega" rx="4.1667" ry="4.1667" style="stroke:#2196F3;stroke-width:1.0416666666666667;" width="346.875" x="308.3333" y="98.2361"/><rect fill="url(#g33kni1wm8ota0)" height="45.1757" rx="4.1667" ry="4.1667" style="stroke:url(#g33kni1wm8ota0);stroke-width:1.0416666666666667;" width="346.875" x="308.3333" y="98.2361"/><rect fill="url(#g33kni1wm8ota0)" height="4.1667" style="stroke:url(#g33kni1wm8ota0);stroke-width:1.0416666666666667;" width="346.875" x="308.3333" y="139.2451"/><rect codeLine="45" fill="none" height="200.8784" id="bodega" rx="4.1667" ry="4.1667" style="stroke:#2196F3;stroke-width:1.0416666666666667;" width="346.875" x="308.3333" y="98.2361"/><text fill="#222222" font-family="Verdana" font-size="11.4583" lengthAdjust="spacing" textLength="44.7917" x="459.375" y="125.381">Bodega</text><line style="stroke:#2196F3;stroke-width:1.0416666666666667;" x1="309.375" x2="654.1667" y1="143.4118" y2="143.4118"/><text fill="#222222" font-family="Verdana" font-size="11.4583" lengthAdjust="spacing" textLength="68.75" x="325" y="169.515">id: int &#171;PK&#187;</text><line style="stroke:#2196F3;stroke-width:1.0416666666666667;" x1="309.375" x2="654.1667" y1="186.5041" y2="186.5041"/><text fill="#222222" font-family="Verdana" font-size="11.4583" lengthAdjust="spacing" textLength="140.625" x="325" y="212.6073">nombre: varchar2(255)</text><text fill="#222222" font-family="Verdana" font-size="11.4583" lengthAdjust="spacing" textLength="147.9167" x="325" y="247.3663">direccion: varchar2(255)</text><text fill="#222222" font-family="Verdana" font-size="11.4583" lengthAdjust="spacing" textLength="313.5417" x="325" y="282.1253">capacidad: varchar2(20) -- Volumen o peso m&#225;ximo</text></g><!--class ubicacion--><g id="elem_ubicacion"><rect codeLine="53" fill="none" filter="url(#f33kni1wm8ota)" height="166.1194" id="ubicacion" rx="4.1667" ry="4.1667" style="stroke:#2196F3;stroke-width:1.0416666666666667;" width="166.6667" x="410.9375" y="431.5694"/><rect fill="url(#g33kni1wm8ota0)" height="45.1757" rx="4.1667" ry="4.1667" style="stroke:url(#g33kni1wm8ota0);stroke-width:1.0416666666666667;" width="166.6667" x="410.9375" y="431.5694"/><rect fill="url(#g33kni1wm8ota0)" height="4.1667" style="stroke:url(#g33kni1wm8ota0);stroke-width:1.0416666666666667;" width="166.6667" x="410.9375" y="472.5784"/><rect codeLine="53" fill="none" height="166.1194" id="ubicacion" rx="4.1667" ry="4.1667" style="stroke:#2196F3;stroke-width:1.0416666666666667;" width="166.6667" x="410.9375" y="431.5694"/><text fill="#222222" font-family="Verdana" font-size="11.4583" lengthAdjust="spacing" textLength="56.25" x="466.1458" y="458.7143">Ubicaci&#243;n</text><line style="stroke:#2196F3;stroke-width:1.0416666666666667;" x1="411.9792" x2="576.5625" y1="476.7451" y2="476.7451"/><text fill="#222222" font-family="Verdana" font-size="11.4583" lengthAdjust="spacing" textLength="68.75" x="427.6042" y="502.8483">id: int &#171;PK&#187;</text><line style="stroke:#2196F3;stroke-width:1.0416666666666667;" x1="411.9792" x2="576.5625" y1="519.8374" y2="519.8374"/><text fill="#222222" font-family="Verdana" font-size="11.4583" lengthAdjust="spacing" textLength="133.3333" x="427.6042" y="545.9407">nombre: varchar2(50)</text><text fill="#222222" font-family="Verdana" font-size="11.4583" lengthAdjust="spacing" textLength="118.75" x="427.6042" y="580.6997">bodega_id: int &#171;FK&#187;</text></g><!--class pallet--><g id="elem_pallet"><rect codeLine="60" fill="none" filter="url(#f33kni1wm8ota)" height="200.8784" id="pallet" rx="4.1667" ry="4.1667" style="stroke:#2196F3;stroke-width:1.0416666666666667;" width="232.2917" x="219.7917" y="798.7569"/><rect fill="url(#g33kni1wm8ota0)" height="45.1757" rx="4.1667" ry="4.1667" style="stroke:url(#g33kni1wm8ota0);stroke-width:1.0416666666666667;" width="232.2917" x="219.7917" y="798.7569"/><rect fill="url(#g33kni1wm8ota0)" height="4.1667" style="stroke:url(#g33kni1wm8ota0);stroke-width:1.0416666666666667;" width="232.2917" x="219.7917" y="839.7659"/><rect codeLine="60" fill="none" height="200.8784" id="pallet" rx="4.1667" ry="4.1667" style="stroke:#2196F3;stroke-width:1.0416666666666667;" width="232.2917" x="219.7917" y="798.7569"/><text fill="#222222" font-family="Verdana" font-size="11.4583" lengthAdjust="spacing" textLength="32.2917" x="319.7917" y="825.9018">Pallet</text><line style="stroke:#2196F3;stroke-width:1.0416666666666667;" x1="220.8333" x2="451.0417" y1="843.9326" y2="843.9326"/><text fill="#222222" font-family="Verdana" font-size="11.4583" lengthAdjust="spacing" textLength="68.75" x="236.4583" y="870.0358">id: int &#171;PK&#187;</text><line style="stroke:#2196F3;stroke-width:1.0416666666666667;" x1="220.8333" x2="451.0417" y1="887.0249" y2="887.0249"/><text fill="#222222" font-family="Verdana" font-size="11.4583" lengthAdjust="spacing" textLength="198.9583" x="236.4583" y="913.1282">codigo: varchar2(100) &#171;UNIQUE&#187;</text><text fill="#222222" font-family="Verdana" font-size="11.4583" lengthAdjust="spacing" textLength="130.2083" x="236.4583" y="947.8872">ubicacion_id: int &#171;FK&#187;</text><text fill="#222222" font-family="Verdana" font-size="11.4583" lengthAdjust="spacing" textLength="175" x="236.4583" y="982.6462">fecha_modificacion: datetime</text></g><!--class carga--><g id="elem_carga"><rect codeLine="68" fill="none" filter="url(#f33kni1wm8ota)" height="131.3604" id="carga" rx="4.1667" ry="4.1667" style="stroke:#2196F3;stroke-width:1.0416666666666667;" width="140.625" x="164.5833" y="1201.3611"/><rect fill="url(#g33kni1wm8ota0)" height="45.1757" rx="4.1667" ry="4.1667" style="stroke:url(#g33kni1wm8ota0);stroke-width:1.0416666666666667;" width="140.625" x="164.5833" y="1201.3611"/><rect fill="url(#g33kni1wm8ota0)" height="4.1667" style="stroke:url(#g33kni1wm8ota0);stroke-width:1.0416666666666667;" width="140.625" x="164.5833" y="1242.3701"/><rect codeLine="68" fill="none" height="131.3604" id="carga" rx="4.1667" ry="4.1667" style="stroke:#2196F3;stroke-width:1.0416666666666667;" width="140.625" x="164.5833" y="1201.3611"/><text fill="#222222" font-family="Verdana" font-size="11.4583" lengthAdjust="spacing" textLength="36.4583" x="216.6667" y="1228.506">Carga</text><line style="stroke:#2196F3;stroke-width:1.0416666666666667;" x1="165.625" x2="304.1667" y1="1246.5368" y2="1246.5368"/><text fill="#222222" font-family="Verdana" font-size="11.4583" lengthAdjust="spacing" textLength="68.75" x="181.25" y="1272.64">id: int &#171;PK&#187;</text><line style="stroke:#2196F3;stroke-width:1.0416666666666667;" x1="165.625" x2="304.1667" y1="1289.6291" y2="1289.6291"/><text fill="#222222" font-family="Verdana" font-size="11.4583" lengthAdjust="spacing" textLength="107.2917" x="181.25" y="1315.7323">pallet_id: int &#171;FK&#187;</text></g><!--class producto--><g id="elem_producto"><rect codeLine="74" fill="none" filter="url(#f33kni1wm8ota)" height="200.8784" id="producto" rx="4.1667" ry="4.1667" style="stroke:#2196F3;stroke-width:1.0416666666666667;" width="166.6667" x="151.5625" y="1464.9028"/><rect fill="url(#g33kni1wm8ota0)" height="45.1757" rx="4.1667" ry="4.1667" style="stroke:url(#g33kni1wm8ota0);stroke-width:1.0416666666666667;" width="166.6667" x="151.5625" y="1464.9028"/><rect fill="url(#g33kni1wm8ota0)" height="4.1667" style="stroke:url(#g33kni1wm8ota0);stroke-width:1.0416666666666667;" width="166.6667" x="151.5625" y="1505.9118"/><rect codeLine="74" fill="none" height="200.8784" id="producto" rx="4.1667" ry="4.1667" style="stroke:#2196F3;stroke-width:1.0416666666666667;" width="166.6667" x="151.5625" y="1464.9028"/><text fill="#222222" font-family="Verdana" font-size="11.4583" lengthAdjust="spacing" textLength="52.0833" x="208.8542" y="1492.0476">Producto</text><line style="stroke:#2196F3;stroke-width:1.0416666666666667;" x1="152.6042" x2="317.1875" y1="1510.0784" y2="1510.0784"/><text fill="#222222" font-family="Verdana" font-size="11.4583" lengthAdjust="spacing" textLength="68.75" x="168.2292" y="1536.1816">id: int &#171;PK&#187;</text><line style="stroke:#2196F3;stroke-width:1.0416666666666667;" x1="152.6042" x2="317.1875" y1="1553.1708" y2="1553.1708"/><text fill="#222222" font-family="Verdana" font-size="11.4583" lengthAdjust="spacing" textLength="108.3333" x="168.2292" y="1579.274">carga_id: int &#171;FK&#187;</text><text fill="#222222" font-family="Verdana" font-size="11.4583" lengthAdjust="spacing" textLength="133.3333" x="168.2292" y="1614.033">nombre: varchar2(50)</text><text fill="#222222" font-family="Verdana" font-size="11.4583" lengthAdjust="spacing" textLength="73.9583" x="168.2292" y="1648.792">cantidad: int</text></g><!--class etiq_rfid--><g id="elem_etiq_rfid"><rect codeLine="82" fill="none" filter="url(#f33kni1wm8ota)" height="270.3964" id="etiq_rfid" rx="4.1667" ry="4.1667" style="stroke:#2196F3;stroke-width:1.0416666666666667;" width="310.4167" x="342.1875" y="1131.5694"/><rect fill="url(#g33kni1wm8ota0)" height="45.1757" rx="4.1667" ry="4.1667" style="stroke:url(#g33kni1wm8ota0);stroke-width:1.0416666666666667;" width="310.4167" x="342.1875" y="1131.5694"/><rect fill="url(#g33kni1wm8ota0)" height="4.1667" style="stroke:url(#g33kni1wm8ota0);stroke-width:1.0416666666666667;" width="310.4167" x="342.1875" y="1172.5784"/><rect codeLine="82" fill="none" height="270.3964" id="etiq_rfid" rx="4.1667" ry="4.1667" style="stroke:#2196F3;stroke-width:1.0416666666666667;" width="310.4167" x="342.1875" y="1131.5694"/><text fill="#222222" font-family="Verdana" font-size="11.4583" lengthAdjust="spacing" textLength="77.0833" x="458.8542" y="1158.7143">EtiquetaRFID</text><line style="stroke:#2196F3;stroke-width:1.0416666666666667;" x1="343.2292" x2="651.5625" y1="1176.7451" y2="1176.7451"/><text fill="#222222" font-family="Verdana" font-size="11.4583" lengthAdjust="spacing" textLength="68.75" x="358.8542" y="1202.8483">id: int &#171;PK&#187;</text><line style="stroke:#2196F3;stroke-width:1.0416666666666667;" x1="343.2292" x2="651.5625" y1="1219.8374" y2="1219.8374"/><text fill="#222222" font-family="Verdana" font-size="11.4583" lengthAdjust="spacing" textLength="130.2083" x="358.8542" y="1245.9407">ubicacion_id: int &#171;FK&#187;</text><text fill="#222222" font-family="Verdana" font-size="11.4583" lengthAdjust="spacing" textLength="107.2917" x="358.8542" y="1280.6997">pallet_id: int &#171;FK&#187;</text><text fill="#222222" font-family="Verdana" font-size="11.4583" lengthAdjust="spacing" textLength="185.4167" x="358.8542" y="1315.4587">fecha_ultima_lectura: datetime</text><text fill="#222222" font-family="Verdana" font-size="11.4583" lengthAdjust="spacing" textLength="266.6667" x="358.8542" y="1350.2177">latitude: decimal(10, 8) -- Coordenadas GPS</text><text fill="#222222" font-family="Verdana" font-size="11.4583" lengthAdjust="spacing" textLength="277.0833" x="358.8542" y="1384.9767">longitude: decimal(11, 8) -- Coordenadas GPS</text></g><!--class dispositivo_rfid--><g id="elem_dispositivo_rfid"><rect codeLine="92" fill="none" filter="url(#f33kni1wm8ota)" height="339.9144" id="dispositivo_rfid" rx="4.1667" ry="4.1667" style="stroke:#2196F3;stroke-width:1.0416666666666667;" width="266.6667" x="574.4792" y="729.4861"/><rect fill="url(#g33kni1wm8ota0)" height="45.1757" rx="4.1667" ry="4.1667" style="stroke:url(#g33kni1wm8ota0);stroke-width:1.0416666666666667;" width="266.6667" x="574.4792" y="729.4861"/><rect fill="url(#g33kni1wm8ota0)" height="4.1667" style="stroke:url(#g33kni1wm8ota0);stroke-width:1.0416666666666667;" width="266.6667" x="574.4792" y="770.4951"/><rect codeLine="92" fill="none" height="339.9144" id="dispositivo_rfid" rx="4.1667" ry="4.1667" style="stroke:#2196F3;stroke-width:1.0416666666666667;" width="266.6667" x="574.4792" y="729.4861"/><text fill="#222222" font-family="Verdana" font-size="11.4583" lengthAdjust="spacing" textLength="93.75" x="660.9375" y="756.631">DispositivoRFID</text><line style="stroke:#2196F3;stroke-width:1.0416666666666667;" x1="575.5208" x2="840.1042" y1="774.6618" y2="774.6618"/><text fill="#222222" font-family="Verdana" font-size="11.4583" lengthAdjust="spacing" textLength="68.75" x="591.1458" y="800.765">id: int &#171;PK&#187;</text><line style="stroke:#2196F3;stroke-width:1.0416666666666667;" x1="575.5208" x2="840.1042" y1="817.7541" y2="817.7541"/><text fill="#222222" font-family="Verdana" font-size="11.4583" lengthAdjust="spacing" textLength="198.9583" x="591.1458" y="843.8573">codigo: varchar2(100) &#171;UNIQUE&#187;</text><text fill="#222222" font-family="Verdana" font-size="11.4583" lengthAdjust="spacing" textLength="130.2083" x="591.1458" y="878.6163">ubicacion_id: int &#171;FK&#187;</text><text fill="#222222" font-family="Verdana" font-size="11.4583" lengthAdjust="spacing" textLength="138.5417" x="591.1458" y="913.3753">modelo: varchar2(100)</text><text fill="#222222" font-family="Verdana" font-size="11.4583" lengthAdjust="spacing" textLength="154.1667" x="591.1458" y="948.1344">fabricante: varchar2(100)</text><text fill="#222222" font-family="Verdana" font-size="11.4583" lengthAdjust="spacing" textLength="233.3333" x="591.1458" y="982.8934">frecuencia: decimal(5, 2) -- KHz o MHZ</text><text fill="#222222" font-family="Verdana" font-size="11.4583" lengthAdjust="spacing" textLength="146.875" x="591.1458" y="1017.6524">fecha_registro: datetime</text><text fill="#222222" font-family="Verdana" font-size="11.4583" lengthAdjust="spacing" textLength="190.625" x="591.1458" y="1052.4114">estado_operativo: varchar2(50)</text></g><!--class sensor_rfid--><g id="elem_sensor_rfid"><rect codeLine="104" fill="none" filter="url(#f33kni1wm8ota)" height="166.1194" id="sensor_rfid" rx="4.1667" ry="4.1667" style="stroke:#2196F3;stroke-width:1.0416666666666667;" width="262.5" x="697.3958" y="1482.6111"/><rect fill="url(#g33kni1wm8ota0)" height="45.1757" rx="4.1667" ry="4.1667" style="stroke:url(#g33kni1wm8ota0);stroke-width:1.0416666666666667;" width="262.5" x="697.3958" y="1482.6111"/><rect fill="url(#g33kni1wm8ota0)" height="4.1667" style="stroke:url(#g33kni1wm8ota0);stroke-width:1.0416666666666667;" width="262.5" x="697.3958" y="1523.6201"/><rect codeLine="104" fill="none" height="166.1194" id="sensor_rfid" rx="4.1667" ry="4.1667" style="stroke:#2196F3;stroke-width:1.0416666666666667;" width="262.5" x="697.3958" y="1482.6111"/><text fill="#222222" font-family="Verdana" font-size="11.4583" lengthAdjust="spacing" textLength="70.8333" x="793.2292" y="1509.756">SensorRFID</text><line style="stroke:#2196F3;stroke-width:1.0416666666666667;" x1="698.4375" x2="958.8542" y1="1527.7868" y2="1527.7868"/><text fill="#222222" font-family="Verdana" font-size="11.4583" lengthAdjust="spacing" textLength="102.0833" x="714.0625" y="1553.89">id: int &#171;PK&#187; &#171;FK&#187;</text><line style="stroke:#2196F3;stroke-width:1.0416666666666667;" x1="698.4375" x2="958.8542" y1="1570.8791" y2="1570.8791"/><text fill="#222222" font-family="Verdana" font-size="11.4583" lengthAdjust="spacing" textLength="229.1667" x="714.0625" y="1596.9823">rango_lectura: decimal(5, 2) -- Metros</text><text fill="#222222" font-family="Verdana" font-size="11.4583" lengthAdjust="spacing" textLength="145.8333" x="714.0625" y="1631.7413">ultima_lectura: datetime</text></g><!--class antena_rfid--><g id="elem_antena_rfid"><rect codeLine="111" fill="none" filter="url(#f33kni1wm8ota)" height="200.8784" id="antena_rfid" rx="4.1667" ry="4.1667" style="stroke:#2196F3;stroke-width:1.0416666666666667;" width="372.9167" x="763.0208" y="1166.4653"/><rect fill="url(#g33kni1wm8ota0)" height="45.1757" rx="4.1667" ry="4.1667" style="stroke:url(#g33kni1wm8ota0);stroke-width:1.0416666666666667;" width="372.9167" x="763.0208" y="1166.4653"/><rect fill="url(#g33kni1wm8ota0)" height="4.1667" style="stroke:url(#g33kni1wm8ota0);stroke-width:1.0416666666666667;" width="372.9167" x="763.0208" y="1207.4743"/><rect codeLine="111" fill="none" height="200.8784" id="antena_rfid" rx="4.1667" ry="4.1667" style="stroke:#2196F3;stroke-width:1.0416666666666667;" width="372.9167" x="763.0208" y="1166.4653"/><text fill="#222222" font-family="Verdana" font-size="11.4583" lengthAdjust="spacing" textLength="70.8333" x="914.0625" y="1193.6101">AntenaRFID</text><line style="stroke:#2196F3;stroke-width:1.0416666666666667;" x1="764.0625" x2="1134.8958" y1="1211.6409" y2="1211.6409"/><text fill="#222222" font-family="Verdana" font-size="11.4583" lengthAdjust="spacing" textLength="102.0833" x="779.6875" y="1237.7441">id: int &#171;PK&#187; &#171;FK&#187;</text><line style="stroke:#2196F3;stroke-width:1.0416666666666667;" x1="764.0625" x2="1134.8958" y1="1254.7333" y2="1254.7333"/><text fill="#222222" font-family="Verdana" font-size="11.4583" lengthAdjust="spacing" textLength="339.5833" x="779.6875" y="1280.8365">orientacion: varchar2(50) -- Ejemplo: vertical, horizontal</text><text fill="#222222" font-family="Verdana" font-size="11.4583" lengthAdjust="spacing" textLength="264.5833" x="779.6875" y="1315.5955">potencia_transmision: decimal (5, 2) -- dBm</text><text fill="#222222" font-family="Verdana" font-size="11.4583" lengthAdjust="spacing" textLength="163.5417" x="779.6875" y="1350.3545">fecha_instalacion: datetime</text></g><!--link rol to usuario--><g id="link_rol_usuario"><path codeLine="119" d="M151.5625,290.0173 C151.5625,314.5798 151.5625,315.2153 151.5625,342.7361 " fill="none" id="rol-usuario" style="stroke:#2196F3;stroke-width:3.125;"/><line style="stroke:#2196F3;stroke-width:3.125;" x1="147.3958" x2="155.7292" y1="285.8507" y2="285.8507"/><line style="stroke:#2196F3;stroke-width:3.125;" x1="147.3958" x2="155.7292" y1="288.9757" y2="288.9757"/><line style="stroke:#2196F3;stroke-width:3.125;" x1="151.5625" x2="151.5625" y1="290.0173" y2="281.684"/><line style="stroke:#2196F3;stroke-width:3.125;" x1="151.5625" x2="157.8125" y1="353.1528" y2="361.4861"/><line style="stroke:#2196F3;stroke-width:3.125;" x1="151.5625" x2="145.3125" y1="353.1528" y2="361.4861"/><line style="stroke:#2196F3;stroke-width:3.125;" x1="151.5625" x2="151.5625" y1="353.1528" y2="361.4861"/><ellipse cx="151.5625" cy="346.9028" fill="none" rx="4.1667" ry="4.1667" style="stroke:#2196F3;stroke-width:3.125;"/><text fill="#222222" font-family="Verdana" font-size="12.5" lengthAdjust="spacing" textLength="72.9167" x="67.1875" y="308.1053">asignado a</text></g><!--link usuario to logactividad--><g id="link_usuario_logactividad"><path codeLine="120" d="M110.9375,675.3923 C110.9375,719.5694 110.9375,739.5903 110.9375,779.7465 " fill="none" id="usuario-logactividad" style="stroke:#2196F3;stroke-width:3.125;"/><line style="stroke:#2196F3;stroke-width:3.125;" x1="106.7708" x2="115.1042" y1="671.2257" y2="671.2257"/><line style="stroke:#2196F3;stroke-width:3.125;" x1="106.7708" x2="115.1042" y1="674.3507" y2="674.3507"/><line style="stroke:#2196F3;stroke-width:3.125;" x1="110.9375" x2="110.9375" y1="675.3923" y2="667.059"/><line style="stroke:#2196F3;stroke-width:3.125;" x1="110.9375" x2="117.1875" y1="790.1632" y2="798.4965"/><line style="stroke:#2196F3;stroke-width:3.125;" x1="110.9375" x2="104.6875" y1="790.1632" y2="798.4965"/><line style="stroke:#2196F3;stroke-width:3.125;" x1="110.9375" x2="110.9375" y1="790.1632" y2="798.4965"/><ellipse cx="110.9375" cy="783.9132" fill="none" rx="4.1667" ry="4.1667" style="stroke:#2196F3;stroke-width:3.125;"/><text fill="#222222" font-family="Verdana" font-size="12.5" lengthAdjust="spacing" textLength="51.0417" x="48.4375" y="719.3032">registra</text></g><!--link bodega to usuario--><g id="link_bodega_usuario"><path codeLine="121" d="M299.9063,290.9444 C269.375,290.9444 255.4688,290.9444 255.4688,290.9444 C255.4688,290.9444 255.4688,303.6111 255.4688,342.8923 " fill="none" id="bodega-usuario" style="stroke:#2196F3;stroke-width:3.125;"/><line style="stroke:#2196F3;stroke-width:3.125;" x1="304.0729" x2="304.0729" y1="286.7778" y2="295.1111"/><line style="stroke:#2196F3;stroke-width:3.125;" x1="300.9479" x2="300.9479" y1="286.7778" y2="295.1111"/><line style="stroke:#2196F3;stroke-width:3.125;" x1="299.9063" x2="308.2396" y1="290.9444" y2="290.9444"/><line style="stroke:#2196F3;stroke-width:3.125;" x1="255.4688" x2="261.7188" y1="353.309" y2="361.6423"/><line style="stroke:#2196F3;stroke-width:3.125;" x1="255.4688" x2="249.2188" y1="353.309" y2="361.6423"/><line style="stroke:#2196F3;stroke-width:3.125;" x1="255.4688" x2="255.4688" y1="353.309" y2="361.6423"/><ellipse cx="255.4688" cy="347.059" fill="none" rx="4.1667" ry="4.1667" style="stroke:#2196F3;stroke-width:3.125;"/><text fill="#222222" font-family="Verdana" font-size="12.5" lengthAdjust="spacing" textLength="68.75" x="175.2604" y="323.9282">trabaja en</text></g><!--link centro_dist to centro_bodega--><g id="link_centro_dist_centro_bodega"><path codeLine="123" d="M769.2708,290.0173 C769.2708,342.0694 769.2708,381.1944 769.2708,429.6632 " fill="none" id="centro_dist-centro_bodega" style="stroke:#2196F3;stroke-width:3.125;"/><line style="stroke:#2196F3;stroke-width:3.125;" x1="765.1042" x2="773.4375" y1="285.8507" y2="285.8507"/><line style="stroke:#2196F3;stroke-width:3.125;" x1="765.1042" x2="773.4375" y1="288.9757" y2="288.9757"/><line style="stroke:#2196F3;stroke-width:3.125;" x1="769.2708" x2="769.2708" y1="290.0173" y2="281.684"/><line style="stroke:#2196F3;stroke-width:3.125;" x1="769.2708" x2="775.5208" y1="440.0798" y2="448.4132"/><line style="stroke:#2196F3;stroke-width:3.125;" x1="769.2708" x2="763.0208" y1="440.0798" y2="448.4132"/><line style="stroke:#2196F3;stroke-width:3.125;" x1="769.2708" x2="769.2708" y1="440.0798" y2="448.4132"/><ellipse cx="769.2708" cy="433.8298" fill="none" rx="4.1667" ry="4.1667" style="stroke:#2196F3;stroke-width:3.125;"/><text fill="#222222" font-family="Verdana" font-size="12.5" lengthAdjust="spacing" textLength="77.0833" x="680.7292" y="389.0741">distribuye a</text></g><!--link bodega to centro_bodega--><g id="link_bodega_centro_bodega"><path codeLine="124" d="M663.6354,290.9444 C675.4583,290.9444 674.4792,290.9444 674.4792,290.9444 C674.4792,290.9444 674.4792,363.8923 674.4792,429.7986 " fill="none" id="bodega-centro_bodega" style="stroke:#2196F3;stroke-width:3.125;"/><line style="stroke:#2196F3;stroke-width:3.125;" x1="659.4688" x2="659.4688" y1="295.1111" y2="286.7778"/><line style="stroke:#2196F3;stroke-width:3.125;" x1="662.5938" x2="662.5938" y1="295.1111" y2="286.7778"/><line style="stroke:#2196F3;stroke-width:3.125;" x1="663.6354" x2="655.3021" y1="290.9444" y2="290.9444"/><line style="stroke:#2196F3;stroke-width:3.125;" x1="674.4792" x2="680.7292" y1="440.2153" y2="448.5486"/><line style="stroke:#2196F3;stroke-width:3.125;" x1="674.4792" x2="668.2292" y1="440.2153" y2="448.5486"/><line style="stroke:#2196F3;stroke-width:3.125;" x1="674.4792" x2="674.4792" y1="440.2153" y2="448.5486"/><ellipse cx="674.4792" cy="433.9653" fill="none" rx="4.1667" ry="4.1667" style="stroke:#2196F3;stroke-width:3.125;"/><text fill="#222222" font-family="Verdana" font-size="12.5" lengthAdjust="spacing" textLength="60.4167" x="602.6042" y="346.6782">recibe de</text></g><!--link bodega to ubicacion--><g id="link_bodega_ubicacion"><path codeLine="125" d="M494.2708,307.8194 C494.2708,350.4028 494.2708,372.2986 494.2708,412.7361 " fill="none" id="bodega-ubicacion" style="stroke:#2196F3;stroke-width:3.125;"/><line style="stroke:#2196F3;stroke-width:3.125;" x1="490.1042" x2="498.4375" y1="303.6528" y2="303.6528"/><line style="stroke:#2196F3;stroke-width:3.125;" x1="490.1042" x2="498.4375" y1="306.7778" y2="306.7778"/><line style="stroke:#2196F3;stroke-width:3.125;" x1="494.2708" x2="494.2708" y1="307.8194" y2="299.4861"/><line style="stroke:#2196F3;stroke-width:3.125;" x1="494.2708" x2="500.5208" y1="423.1528" y2="431.4861"/><line style="stroke:#2196F3;stroke-width:3.125;" x1="494.2708" x2="488.0208" y1="423.1528" y2="431.4861"/><line style="stroke:#2196F3;stroke-width:3.125;" x1="494.2708" x2="494.2708" y1="423.1528" y2="431.4861"/><ellipse cx="494.2708" cy="416.9028" fill="none" rx="4.1667" ry="4.1667" style="stroke:#2196F3;stroke-width:3.125;"/><text fill="#222222" font-family="Verdana" font-size="12.5" lengthAdjust="spacing" textLength="56.25" x="426.5625" y="352.0116">contiene</text></g><!--link ubicacion to pallet--><g id="link_ubicacion_pallet"><path codeLine="126" d="M431.5104,605.7569 C431.5104,664.7673 431.5104,717.2361 431.5104,779.8507 " fill="none" id="ubicacion-pallet" style="stroke:#2196F3;stroke-width:3.125;"/><line style="stroke:#2196F3;stroke-width:3.125;" x1="427.3438" x2="435.6771" y1="601.5903" y2="601.5903"/><line style="stroke:#2196F3;stroke-width:3.125;" x1="427.3438" x2="435.6771" y1="604.7153" y2="604.7153"/><line style="stroke:#2196F3;stroke-width:3.125;" x1="431.5104" x2="431.5104" y1="605.7569" y2="597.4236"/><line style="stroke:#2196F3;stroke-width:3.125;" x1="431.5104" x2="437.7604" y1="790.2673" y2="798.6007"/><line style="stroke:#2196F3;stroke-width:3.125;" x1="431.5104" x2="425.2604" y1="790.2673" y2="798.6007"/><line style="stroke:#2196F3;stroke-width:3.125;" x1="431.5104" x2="431.5104" y1="790.2673" y2="798.6007"/><ellipse cx="431.5104" cy="784.0173" fill="none" rx="4.1667" ry="4.1667" style="stroke:#2196F3;stroke-width:3.125;"/><text fill="#222222" font-family="Verdana" font-size="12.5" lengthAdjust="spacing" textLength="56.25" x="363.8021" y="684.5428">contiene</text></g><!--link ubicacion to etiq_rfid--><g id="link_ubicacion_etiq_rfid"><path codeLine="127" d="M513.2813,605.7673 C513.2813,734.6944 513.2813,957.1944 513.2813,1112.5486 " fill="none" id="ubicacion-etiq_rfid" style="stroke:#2196F3;stroke-width:3.125;"/><line style="stroke:#2196F3;stroke-width:3.125;" x1="509.1146" x2="517.4479" y1="601.6007" y2="601.6007"/><line style="stroke:#2196F3;stroke-width:3.125;" x1="509.1146" x2="517.4479" y1="604.7257" y2="604.7257"/><line style="stroke:#2196F3;stroke-width:3.125;" x1="513.2813" x2="513.2813" y1="605.7673" y2="597.434"/><line style="stroke:#2196F3;stroke-width:3.125;" x1="513.2813" x2="519.5313" y1="1122.9653" y2="1131.2986"/><line style="stroke:#2196F3;stroke-width:3.125;" x1="513.2813" x2="507.0313" y1="1122.9653" y2="1131.2986"/><line style="stroke:#2196F3;stroke-width:3.125;" x1="513.2813" x2="513.2813" y1="1122.9653" y2="1131.2986"/><ellipse cx="513.2813" cy="1116.7153" fill="none" rx="4.1667" ry="4.1667" style="stroke:#2196F3;stroke-width:3.125;"/><text fill="#222222" font-family="Verdana" font-size="12.5" lengthAdjust="spacing" textLength="56.25" x="504.9479" y="888.3866">contiene</text></g><!--link ubicacion to dispositivo_rfid--><g id="link_ubicacion_dispositivo_rfid"><path codeLine="129" d="M586.0938,588.8611 C607.5625,588.8611 616.4063,588.8611 616.4063,588.8611 C616.4063,588.8611 616.4063,638.0382 616.4063,710.3298 " fill="none" id="ubicacion-dispositivo_rfid" style="stroke:#2196F3;stroke-width:3.125;"/><line style="stroke:#2196F3;stroke-width:3.125;" x1="581.9271" x2="581.9271" y1="593.0278" y2="584.6944"/><line style="stroke:#2196F3;stroke-width:3.125;" x1="585.0521" x2="585.0521" y1="593.0278" y2="584.6944"/><line style="stroke:#2196F3;stroke-width:3.125;" x1="586.0938" x2="577.7604" y1="588.8611" y2="588.8611"/><line style="stroke:#2196F3;stroke-width:3.125;" x1="616.4063" x2="622.6563" y1="720.7465" y2="729.0798"/><line style="stroke:#2196F3;stroke-width:3.125;" x1="616.4063" x2="610.1563" y1="720.7465" y2="729.0798"/><line style="stroke:#2196F3;stroke-width:3.125;" x1="616.4063" x2="616.4063" y1="720.7465" y2="729.0798"/><ellipse cx="616.4063" cy="714.4965" fill="none" rx="4.1667" ry="4.1667" style="stroke:#2196F3;stroke-width:3.125;"/><text fill="#222222" font-family="Verdana" font-size="12.5" lengthAdjust="spacing" textLength="72.9167" x="532.0313" y="626.1782">asignado a</text></g><!--link dispositivo_rfid to sensor_rfid--><g id="link_dispositivo_rfid_sensor_rfid"><path codeLine="130" d="M730.2083,1077.434 C730.2083,1209.8403 730.2083,1360.9028 730.2083,1463.809 " fill="none" id="dispositivo_rfid-sensor_rfid" style="stroke:#2196F3;stroke-width:3.125;"/><line style="stroke:#2196F3;stroke-width:3.125;" x1="726.0417" x2="734.375" y1="1073.2673" y2="1073.2673"/><line style="stroke:#2196F3;stroke-width:3.125;" x1="726.0417" x2="734.375" y1="1076.3923" y2="1076.3923"/><line style="stroke:#2196F3;stroke-width:3.125;" x1="730.2083" x2="730.2083" y1="1077.434" y2="1069.1007"/><line style="stroke:#2196F3;stroke-width:3.125;" x1="730.2083" x2="736.4583" y1="1474.2257" y2="1482.559"/><line style="stroke:#2196F3;stroke-width:3.125;" x1="730.2083" x2="723.9583" y1="1474.2257" y2="1482.559"/><line style="stroke:#2196F3;stroke-width:3.125;" x1="730.2083" x2="730.2083" y1="1474.2257" y2="1482.559"/><ellipse cx="730.2083" cy="1467.9757" fill="none" rx="4.1667" ry="4.1667" style="stroke:#2196F3;stroke-width:3.125;"/><text fill="#222222" font-family="Verdana" font-size="12.5" lengthAdjust="spacing" textLength="46.875" x="671.875" y="1262.3553">hereda</text></g><!--link dispositivo_rfid to antena_rfid--><g id="link_dispositivo_rfid_antena_rfid"><path codeLine="131" d="M802.0833,1077.4757 C802.0833,1110.5903 802.0833,1117.2361 802.0833,1147.2465 " fill="none" id="dispositivo_rfid-antena_rfid" style="stroke:#2196F3;stroke-width:3.125;"/><line style="stroke:#2196F3;stroke-width:3.125;" x1="797.9167" x2="806.25" y1="1073.309" y2="1073.309"/><line style="stroke:#2196F3;stroke-width:3.125;" x1="797.9167" x2="806.25" y1="1076.434" y2="1076.434"/><line style="stroke:#2196F3;stroke-width:3.125;" x1="802.0833" x2="802.0833" y1="1077.4757" y2="1069.1423"/><line style="stroke:#2196F3;stroke-width:3.125;" x1="802.0833" x2="808.3333" y1="1157.6632" y2="1165.9965"/><line style="stroke:#2196F3;stroke-width:3.125;" x1="802.0833" x2="795.8333" y1="1157.6632" y2="1165.9965"/><line style="stroke:#2196F3;stroke-width:3.125;" x1="802.0833" x2="802.0833" y1="1157.6632" y2="1165.9965"/><ellipse cx="802.0833" cy="1151.4132" fill="none" rx="4.1667" ry="4.1667" style="stroke:#2196F3;stroke-width:3.125;"/><text fill="#222222" font-family="Verdana" font-size="12.5" lengthAdjust="spacing" textLength="46.875" x="743.75" y="1104.0949">hereda</text></g><!--link antena_rfid to sensor_rfid--><g id="link_antena_rfid_sensor_rfid"><path codeLine="133" d="M861.4583,1375.9444 C861.4583,1413.3403 861.4583,1428.2257 861.4583,1463.8507 " fill="none" id="antena_rfid-sensor_rfid" style="stroke:#2196F3;stroke-width:3.125;"/><line style="stroke:#2196F3;stroke-width:3.125;" x1="857.2917" x2="865.625" y1="1371.7778" y2="1371.7778"/><line style="stroke:#2196F3;stroke-width:3.125;" x1="857.2917" x2="865.625" y1="1374.9028" y2="1374.9028"/><line style="stroke:#2196F3;stroke-width:3.125;" x1="861.4583" x2="861.4583" y1="1375.9444" y2="1367.6111"/><line style="stroke:#2196F3;stroke-width:3.125;" x1="861.4583" x2="867.7083" y1="1474.2673" y2="1482.6007"/><line style="stroke:#2196F3;stroke-width:3.125;" x1="861.4583" x2="855.2083" y1="1474.2673" y2="1482.6007"/><line style="stroke:#2196F3;stroke-width:3.125;" x1="861.4583" x2="861.4583" y1="1474.2673" y2="1482.6007"/><ellipse cx="861.4583" cy="1468.0173" fill="none" rx="4.1667" ry="4.1667" style="stroke:#2196F3;stroke-width:3.125;"/><text fill="#222222" font-family="Verdana" font-size="12.5" lengthAdjust="spacing" textLength="66.6667" x="783.3333" y="1411.6261">monitorea</text></g><!--link pallet to etiq_rfid--><g id="link_pallet_etiq_rfid"><path codeLine="135" d="M397.1354,1008.5798 C397.1354,1049.0798 397.1354,1079.7048 397.1354,1123.1215 " fill="none" id="pallet-etiq_rfid" style="stroke:#2196F3;stroke-width:3.125;"/><line style="stroke:#2196F3;stroke-width:3.125;" x1="392.9688" x2="401.3021" y1="1004.4132" y2="1004.4132"/><line style="stroke:#2196F3;stroke-width:3.125;" x1="392.9688" x2="401.3021" y1="1007.5382" y2="1007.5382"/><line style="stroke:#2196F3;stroke-width:3.125;" x1="397.1354" x2="397.1354" y1="1008.5798" y2="1000.2465"/><line style="stroke:#2196F3;stroke-width:3.125;" x1="401.3021" x2="392.9688" y1="1127.2882" y2="1127.2882"/><line style="stroke:#2196F3;stroke-width:3.125;" x1="401.3021" x2="392.9688" y1="1124.1632" y2="1124.1632"/><line style="stroke:#2196F3;stroke-width:3.125;" x1="397.1354" x2="397.1354" y1="1123.1215" y2="1131.4548"/><text fill="#222222" font-family="Verdana" font-size="12.5" lengthAdjust="spacing" textLength="46.875" x="338.8021" y="1052.3761">hereda</text></g><!--link pallet to carga--><g id="link_pallet_carga"><path codeLine="136" d="M262.5,1008.5798 C262.5,1072.6736 262.5,1137.1111 262.5,1192.9653 " fill="none" id="pallet-carga" style="stroke:#2196F3;stroke-width:3.125;"/><line style="stroke:#2196F3;stroke-width:3.125;" x1="258.3333" x2="266.6667" y1="1004.4132" y2="1004.4132"/><line style="stroke:#2196F3;stroke-width:3.125;" x1="258.3333" x2="266.6667" y1="1007.5382" y2="1007.5382"/><line style="stroke:#2196F3;stroke-width:3.125;" x1="262.5" x2="262.5" y1="1008.5798" y2="1000.2465"/><line style="stroke:#2196F3;stroke-width:3.125;" x1="266.6667" x2="258.3333" y1="1197.1319" y2="1197.1319"/><line style="stroke:#2196F3;stroke-width:3.125;" x1="266.6667" x2="258.3333" y1="1194.0069" y2="1194.0069"/><line style="stroke:#2196F3;stroke-width:3.125;" x1="262.5" x2="262.5" y1="1192.9653" y2="1201.2986"/><text fill="#222222" font-family="Verdana" font-size="12.5" lengthAdjust="spacing" textLength="33.3333" x="217.7083" y="1087.2928">tiene</text></g><!--link carga to producto--><g id="link_carga_producto"><path codeLine="137" d="M234.8958,1341.184 C234.8958,1379.8923 234.8958,1402.5278 234.8958,1446.059 " fill="none" id="carga-producto" style="stroke:#2196F3;stroke-width:3.125;"/><line style="stroke:#2196F3;stroke-width:3.125;" x1="230.7292" x2="239.0625" y1="1337.0173" y2="1337.0173"/><line style="stroke:#2196F3;stroke-width:3.125;" x1="230.7292" x2="239.0625" y1="1340.1423" y2="1340.1423"/><line style="stroke:#2196F3;stroke-width:3.125;" x1="234.8958" x2="234.8958" y1="1341.184" y2="1332.8507"/><line style="stroke:#2196F3;stroke-width:3.125;" x1="234.8958" x2="241.1458" y1="1456.4757" y2="1464.809"/><line style="stroke:#2196F3;stroke-width:3.125;" x1="234.8958" x2="228.6458" y1="1456.4757" y2="1464.809"/><line style="stroke:#2196F3;stroke-width:3.125;" x1="234.8958" x2="234.8958" y1="1456.4757" y2="1464.809"/><ellipse cx="234.8958" cy="1450.2257" fill="none" rx="4.1667" ry="4.1667" style="stroke:#2196F3;stroke-width:3.125;"/><text fill="#222222" font-family="Verdana" font-size="12.5" lengthAdjust="spacing" textLength="33.3333" x="190.1042" y="1385.3553">tiene</text></g><!--SRC=[hLRTRjDA4BxtKoovEaYDL2f5GX52Alqv8E2e51K948ecteapdFLEMAyv5Ch3d0Su5uX7w8inNZls9d7Dt-b5vTtzPcU-RsPsuiaRLCS4cOCSrEdrVmMbdDpoIynHvU3H4Oovz8Oi9icIDAgKN6emAVuckm8nKzMPlroXOkUNd2HeFVbBDReeId348mM5AkjlzIbHYlHKaVNgthspn_VloyPuBFyScrbtSbgVb7DA8IMskqUMyxd3gNeFBbs2E_ZZO3AvBVkO0vcjRR6w-ElHiukJO9cozGuAlFu2k-OBbENCOKQ5TpnLMZJmb6FokIDspYQGaf072Eq4U6T_l_AmGfTJmSLKUVpWNxyHiyFpyyENOXdvUCBPOUhfFMdGmPdX3DOR0ruReNVr2iGYFaf1MYcxBK4Kmv5yE3wkbA1vcTBrLnj2ISF-JCl1p_1l5DRay1SypnwmnWpY0EPX9uGGXHIerw5qx6jepr7aD78GtVm_aPCGOIMbBDcBZ_Plottg1PioHwjOYgDWbL__-u5oZcExg1jXdO6sBtucn4aelqY9g3uYLsTW3FhWPXK-1toah2dZhHhVxBQ15gvxBPSx5Wsclz-EmAqJNtqDn5C7F4JEiIvJNpzAgsOnHB1o-0EFJwrj2k8cP5ZGiTiJJ-zAz71- -kWuk1QExsPkGOEjVBDo_JpNYfP658IPmTINRhFd3KX0fPRGDQO2CfAnFNKtLE4HizDeGKjyVvuzhz1iistudPlW4Lrft1KN9AyLjunrj_SzuhzNLL9FQ7ZttLt0t56LePutUI5TMw9D2Jgcaprr48W-VlXHElFfmrT3uq46J-51yupbVOUAvLPrHF8yHrkmQvKfml8cKJfYzPW4ct6KskrWdwB4LQXAefkg88haKDImNLL2MFvW9En8he6jnsvIlsWdRp5VXIoWywAwsLDBCVWeenTCLS3iWzmpcSIsa7bODt_DHdLqz8EyLPsiA6nwtebg3g__hgx6O_wq7eDJDOA2CYbILZ1Arhz28k36M1Luare1DpEWvzOA9v0vl0M5TfGayK0KgEP_R0NV75DYf9k1Tecgty6EXTGbpL64wO-d7GC2hNxMI4O4sMstoEOb_nwiUvOsa7tGdNxUqdhdlB6BgrrCbkXG3y3ZaepWIRpVVtFEbZmxhD0D_LQxgwjDgkjhUt3roAaoNcjHhpVIqCwH5lKD]--></g></svg>