<?xml version="1.0" encoding="us-ascii" standalone="no"?><svg xmlns="http://www.w3.org/2000/svg" xmlns:xlink="http://www.w3.org/1999/xlink" contentStyleType="text/css" height="741.6667px" preserveAspectRatio="none" style="width:925px;height:741px;" version="1.1" viewBox="0 0 925 741" width="925px" zoomAndPan="magnify"><defs><filter height="300%" id="fhucpo10d1t03" width="300%" x="-1" y="-1"><feGaussianBlur result="blurOut" stdDeviation="2.0833333333333335"/><feColorMatrix in="blurOut" result="blurOut2" type="matrix" values="0 0 0 0 0 0 0 0 0 0 0 0 0 0 0 0 0 0 .4 0"/><feOffset dx="4.166666666666667" dy="4.166666666666667" in="blurOut2" result="blurOut3"/><feBlend in="SourceGraphic" in2="blurOut3" mode="normal"/></filter></defs><g><!--cluster IoT--><g id="cluster_IoT"><rect fill="none" filter="url(#fhucpo10d1t03)" height="706.625" rx="4.1667" ry="4.1667" style="stroke:#9C27B0;stroke-width:2.0833333333333335;" width="325" x="17.7083" y="17.7083"/><path d="M71.875,17.7083 L71.875,46.4417 L61.4583,56.8583 L17.7083,56.8583 " fill="none" style="stroke:#9C27B0;stroke-width:2.0833333333333335;"/><text fill="#9C27B0" font-family="Verdana" font-size="12.5" font-weight="bold" lengthAdjust="spacing" textLength="22.9167" x="31.25" y="41.7338">IoT</text></g><!--cluster Backend RFID--><g id="cluster_Backend RFID"><path d="M46.875,273.4375 L162.5,273.4375 A6.25,6.25 0 0 1 166.6667,277.6042 L173.9583,315.7125 L313.5417,315.7125 A4.1667,4.1667 0 0 1 317.7083,319.8792 L317.7083,695.1667 A4.1667,4.1667 0 0 1 313.5417,699.3333 L46.875,699.3333 A4.1667,4.1667 0 0 1 42.7083,695.1667 L42.7083,277.6042 A4.1667,4.1667 0 0 1 46.875,273.4375 " fill="none" filter="url(#fhucpo10d1t03)" style="stroke:#2196F3;stroke-width:2.0833333333333335;"/><line style="stroke:#2196F3;stroke-width:2.0833333333333335;" x1="42.7083" x2="173.9583" y1="315.7125" y2="315.7125"/><text fill="#2196F3" font-family="Verdana" font-size="12.5" font-weight="bold" lengthAdjust="spacing" textLength="96.875" x="57.2917" y="298.5046">Backend RFID</text></g><!--cluster Node-RED--><g id="cluster_Node-RED"><polygon fill="none" filter="url(#fhucpo10d1t03)" points="76.0417,355.7292,86.4583,345.3125,284.375,345.3125,284.375,655.5833,273.9583,666,76.0417,666,76.0417,355.7292" style="stroke:#2196F3;stroke-width:1.0416666666666667;"/><line style="stroke:#2196F3;stroke-width:1.0416666666666667;" x1="273.9583" x2="284.375" y1="355.7292" y2="345.3125"/><line style="stroke:#2196F3;stroke-width:1.0416666666666667;" x1="76.0417" x2="273.9583" y1="355.7292" y2="355.7292"/><line style="stroke:#2196F3;stroke-width:1.0416666666666667;" x1="273.9583" x2="273.9583" y1="355.7292" y2="666"/><text fill="#222222" font-family="Verdana" font-size="12.5" font-weight="bold" lengthAdjust="spacing" textLength="69.7917" x="141.1458" y="381.838">Node-RED</text></g><!--cluster Hardware RFID--><g id="cluster_Hardware RFID"><polygon fill="none" filter="url(#fhucpo10d1t03)" points="67.7083,91.6667,78.125,81.25,309.375,81.25,309.375,230.2083,298.9583,240.625,67.7083,240.625,67.7083,91.6667" style="stroke:#2196F3;stroke-width:1.0416666666666667;"/><line style="stroke:#2196F3;stroke-width:1.0416666666666667;" x1="298.9583" x2="309.375" y1="91.6667" y2="81.25"/><line style="stroke:#2196F3;stroke-width:1.0416666666666667;" x1="67.7083" x2="298.9583" y1="91.6667" y2="91.6667"/><line style="stroke:#2196F3;stroke-width:1.0416666666666667;" x1="298.9583" x2="298.9583" y1="91.6667" y2="240.625"/><text fill="#222222" font-family="Verdana" font-size="12.5" font-weight="bold" lengthAdjust="spacing" textLength="107.2917" x="130.7292" y="117.7755">Hardware RFID</text></g><!--cluster Backend Web--><g id="cluster_Backend Web"><path d="M529.1667,301.4167 L641.6667,301.4167 A6.25,6.25 0 0 1 645.8333,305.5833 L653.125,343.6917 L859.375,343.6917 A4.1667,4.1667 0 0 1 863.5417,347.8583 L863.5417,451.4167 A4.1667,4.1667 0 0 1 859.375,455.5833 L529.1667,455.5833 A4.1667,4.1667 0 0 1 525,451.4167 L525,305.5833 A4.1667,4.1667 0 0 1 529.1667,301.4167 " fill="none" filter="url(#fhucpo10d1t03)" style="stroke:#2196F3;stroke-width:2.0833333333333335;"/><line style="stroke:#2196F3;stroke-width:2.0833333333333335;" x1="525" x2="653.125" y1="343.6917" y2="343.6917"/><text fill="#2196F3" font-family="Verdana" font-size="12.5" font-weight="bold" lengthAdjust="spacing" textLength="93.75" x="539.5833" y="326.4838">Backend Web</text></g><!--cluster Frontend Web--><g id="cluster_Frontend Web"><path d="M489.7694,87.2928 C496.067,77.9024 502.1773,78.1881 507.5463,88.146 C510.0498,79.6753 517.6155,76.3352 524.4458,83.4563 C528.1657,75.0303 534.4846,75.7692 539.5039,82.1333 C544.6174,73.0705 550.5488,71.5946 557.9422,79.6822 C563.1888,72.4428 568.0521,71.6672 573.9526,78.9618 C578.1248,70.762 584.9304,70.7677 589.8196,78.2356 C594.5225,69.9186 600.5408,69.5492 607.1511,75.9968 C614.0265,69.5025 621.0766,68.566 624.9009,79.1651 C630.0887,71.4717 635.1178,71.126 640.5588,78.9089 C646.4063,71.7632 653.7174,72.1953 657.3791,81.1872 C661.9578,74.8945 669.6859,74.0667 673.1853,82.3571 C680.1721,74.8045 686.2575,76.7372 689.7756,85.817 C694.8197,78.4316 701.1894,77.6379 706.022,86.0348 C717.5619,78.3116 725.0077,81.2525 729.1667,94.2708 C729.9621,94.3616 730.2002,94.8885 729.7263,95.5393 C738.0205,100.3833 739.159,106.6722 732.124,113.5563 C740.9105,116.5016 742.5904,124.1538 736.2319,130.7232 C746.3697,132.2511 748.3609,140.3925 741.1183,147.1047 C749.5463,150.9597 750.7724,159.4542 742.1872,164.3629 C749.136,171.0251 750.1724,177.0345 740.8974,182.5459 C749.1195,189.1835 746.7205,195.6311 737.8845,199.1789 C746.2321,206.31 743.5396,213.4928 734.5988,217.5281 C741.7067,231.2033 736.1101,238.4578 721.875,240.1042 C723.4882,239.3021 724.5445,240.4072 724.4672,241.9628 C720.8485,249.5824 713.2239,251.2032 708.0491,243.6461 C702.8077,252.1513 696.8306,251.1903 691.7212,243.513 C685.5852,253.6125 679.5636,253.7637 672.3752,244.5681 C668.8394,251.7139 661.8739,253.1183 657.3766,245.548 C651.8284,252.4619 645.1001,251.4106 640.8563,244.0394 C635.4198,251.799 628.8258,252.9086 622.6964,244.834 C618.2738,251.4648 610.5267,253.4854 606.1565,244.7775 C601.7691,251.3897 596.077,253.1977 590.7451,245.8177 C584.0503,253.0331 578.2452,253.7303 572.6162,244.6331 C568.2515,251.4648 562.7168,252.5046 557.996,244.9961 C553.2381,253.4878 543.8742,254.5179 539.2819,244.8257 C533.5749,251.9387 526.5589,251.1592 523.6112,242.1445 C518.7131,251.0259 511.0866,250.5462 505.925,242.4184 C493.6925,252.6494 483.56,248.0699 481.25,232.8125 C483.2559,232.133 484.1019,232.8295 484.1203,234.8925 C475.4333,230.1017 475.0326,223.8032 481.4663,216.7949 C473.4386,213.7824 471.5228,207.4732 476.8178,200.6297 C469.2083,195.898 467.8128,188.3407 475.9588,182.8478 C467.5365,178.738 464.689,173.1101 471.8146,165.3235 C463.4153,159.0227 466.1679,153.1263 473.695,148.6183 C465.7925,141.4649 468.0312,134.4578 477.9578,131.832 C471.7756,126.0148 471.3794,117.0523 481.6584,114.8149 C472.6554,102.8032 473.2257,92.9772 488.5417,86.9792 C489.0682,86.4085 489.581,86.5397 489.7694,87.2928 " fill="none" filter="url(#fhucpo10d1t03)" style="stroke:#2196F3;stroke-width:1.0416666666666667;"/><text fill="#222222" font-family="Verdana" font-size="12.5" font-weight="bold" lengthAdjust="spacing" textLength="96.875" x="556.7708" y="115.1713">Frontend Web</text></g><!--cluster Importaci?n y \n exportaci?n \n de datos--><g id="cluster_Importaci&#243;n y \n exportaci&#243;n \n de datos"><path d="M536.8628,490.3458 C539.7069,484.6497 543.4679,483.3289 547.9186,488.7478 C551.6153,483.5714 555.1811,482.6569 559.6791,487.838 C561.8018,480.7766 568.1883,480.0192 572.9299,484.9422 C574.2859,479.1078 579.0286,478.9765 582.6199,482.6687 C585.6084,476.5325 591.3491,475.7716 594.8546,482.1638 C596.5531,474.9372 602.0869,474.1552 606.6719,479.4367 C612.2456,474.4936 615.7812,475.9921 618.4529,482.4385 C621.7424,478.0547 626.4459,479.3806 628.3482,483.9685 C633.2613,479.9329 637.139,478.8671 640.0778,486.0355 C644.6589,480.1567 650.1426,480.5248 652.8922,487.8173 C656.034,482.9295 661.6113,481.4512 664.6849,487.8883 C674.4328,481.917 679.8779,485.5036 681.25,496.2083 C681.6028,495.8177 681.9291,495.8302 682.1356,496.3506 C688.2974,499.7905 689.8577,504.7322 683.7317,509.6471 C688.3259,512.2255 688.5514,516.9933 683.9586,519.7774 C688.8315,523.9062 689.7974,528.4845 683.329,532.0307 C689.1464,535.5451 688.6032,539.2715 683.9923,543.3946 C689.3127,546.4878 689.7302,550.8062 685.008,554.7942 C689.2471,558.415 689.954,562.4007 684.4167,565.4805 C690.2472,569.7277 691.1746,575.1604 683.7833,578.7778 C688.1338,581.6939 688.991,586.6428 683.3175,589.1068 C690.3198,593.6633 688.3951,598.2704 682.7098,602.2398 C687.7333,605.6187 687.329,608.9193 682.6515,612.2416 C687.8799,615.8164 689.4465,621.6167 682.6919,625.2288 C687.6168,634.6798 684.4737,640.6112 673.9583,642.0417 C674.6866,641.7065 675.0976,642.011 675.1582,642.7723 C672.629,648.8205 668.1972,649.1108 663.6535,645.0695 C659.8023,650.4538 656.1229,650.656 652.1114,645.2409 C649.859,650.1275 645.6586,651.3469 641.7427,647.1372 C639.5448,653.8425 634.0443,653.8355 630.23,648.7102 C626.2227,655.9529 621.4342,654.642 616.7344,649.4626 C614.3455,655.2538 610.013,655.5475 606.5407,650.4795 C602.5951,655.4334 598.4071,654.4955 595.4827,649.3602 C591.3234,653.9985 586.4838,654.238 583.7555,647.8396 C580.11,653.183 575.2761,651.8904 572.4165,646.9713 C568.0932,652.6642 562.607,651.6714 560.1395,645.1117 C555.7594,649.879 550.7741,650.1765 547.9656,643.4475 C537.435,649.1119 532.1327,645.4358 529.1667,634.75 C530.4266,635.0294 530.6981,635.7342 530.189,636.8677 C524.0234,633.5014 522.9664,627.7277 528.9942,623.2886 C522.3009,620.772 522.0052,616.517 527.0439,611.9776 C522.0938,608.7287 522.2488,604.2498 526.8412,600.8274 C521.7061,598.0747 521.185,594.6949 525.5656,590.739 C518.6432,587.0851 518.4995,581.9177 524.2384,577.0373 C518.6271,573.889 518.5246,570.2416 523.0718,566.0179 C518.1616,561.8559 518.455,558.488 524.4212,555.7563 C519.4592,551.2927 520.0362,547.5603 525.9615,544.5998 C520.6279,540.2744 519.1,534.8913 526.4605,531.0327 C521.5711,526.9745 521.7843,521.5487 528.5708,519.6564 C523.395,516.9551 523.7239,511.745 528.7569,509.2259 C522.5221,500.7719 526.1845,491.1105 536.4583,488.9167 C537.1732,489.1618 537.4119,489.7429 536.8628,490.3458 " fill="none" filter="url(#fhucpo10d1t03)" style="stroke:#2196F3;stroke-width:1.0416666666666667;"/><text fill="#222222" font-family="Verdana" font-size="12.5" font-weight="bold" lengthAdjust="spacing" textLength="95.8333" x="555.2083" y="517.1088">Importaci&#243;n y</text><text fill="#222222" font-family="Verdana" font-size="12.5" font-weight="bold" lengthAdjust="spacing" textLength="81.25" x="564.5833" y="532.3005">exportaci&#243;n</text><text fill="#222222" font-family="Verdana" font-size="12.5" font-weight="bold" lengthAdjust="spacing" textLength="58.3333" x="578.125" y="547.4921">de datos</text></g><!--entity mqtt--><g id="elem_mqtt"><rect fill="none" filter="url(#fhucpo10d1t03)" height="82.4666" rx="4.1667" ry="4.1667" style="stroke:#2196F3;stroke-width:1.0416666666666667;" width="157.2917" x="101.5625" y="558.7083"/><rect fill="none" height="10.4167" style="stroke:#2196F3;stroke-width:1.0416666666666667;" width="15.625" x="238.0208" y="563.9167"/><rect fill="none" height="2.0833" style="stroke:#2196F3;stroke-width:1.0416666666666667;" width="4.1667" x="235.9375" y="566"/><rect fill="none" height="2.0833" style="stroke:#2196F3;stroke-width:1.0416666666666667;" width="4.1667" x="235.9375" y="570.1667"/><text fill="#2196F3" font-family="Verdana" font-size="12.5" font-weight="bold" lengthAdjust="spacing" textLength="90.625" x="127.6042" y="602.5255">MQTT Broker</text><text fill="#2196F3" font-family="Verdana" font-size="12.5" lengthAdjust="spacing" textLength="75" x="139.5833" y="617.7171">(Mosquitto)</text></g><!--entity equiposRFID--><g id="elem_equiposRFID"><rect fill="none" filter="url(#fhucpo10d1t03)" height="82.4666" rx="4.1667" ry="4.1667" style="stroke:#2196F3;stroke-width:1.0416666666666667;" width="208.3333" x="84.375" y="141.6667"/><rect fill="none" height="10.4167" style="stroke:#2196F3;stroke-width:1.0416666666666667;" width="15.625" x="271.875" y="146.875"/><rect fill="none" height="2.0833" style="stroke:#2196F3;stroke-width:1.0416666666666667;" width="4.1667" x="269.7917" y="148.9583"/><rect fill="none" height="2.0833" style="stroke:#2196F3;stroke-width:1.0416666666666667;" width="4.1667" x="269.7917" y="153.125"/><text fill="#2196F3" font-family="Verdana" font-size="12.5" font-weight="bold" lengthAdjust="spacing" textLength="91.6667" x="135.4167" y="185.4838">Equipos RFID</text><text fill="#2196F3" font-family="Verdana" font-size="12.5" lengthAdjust="spacing" textLength="141.6667" x="114.5833" y="200.6755">(Antenas y Sensores)</text></g><!--entity apiWeb--><g id="elem_apiWeb"><rect fill="none" filter="url(#fhucpo10d1t03)" height="82.4666" rx="4.1667" ry="4.1667" style="stroke:#2196F3;stroke-width:1.0416666666666667;" width="127.0833" x="541.6667" y="356.625"/><rect fill="none" height="10.4167" style="stroke:#2196F3;stroke-width:1.0416666666666667;" width="15.625" x="647.9167" y="361.8333"/><rect fill="none" height="2.0833" style="stroke:#2196F3;stroke-width:1.0416666666666667;" width="4.1667" x="645.8333" y="363.9167"/><rect fill="none" height="2.0833" style="stroke:#2196F3;stroke-width:1.0416666666666667;" width="4.1667" x="645.8333" y="368.0833"/><text fill="#2196F3" font-family="Verdana" font-size="12.5" font-weight="bold" lengthAdjust="spacing" textLength="60.4167" x="567.7083" y="400.4421">API Web</text><text fill="#2196F3" font-family="Verdana" font-size="12.5" lengthAdjust="spacing" textLength="60.4167" x="571.875" y="415.6338">(FastAPI)</text></g><!--entity orm--><g id="elem_orm"><rect fill="none" filter="url(#fhucpo10d1t03)" height="82.4666" rx="4.1667" ry="4.1667" style="stroke:#2196F3;stroke-width:1.0416666666666667;" width="141.6667" x="705.2083" y="356.625"/><rect fill="none" height="10.4167" style="stroke:#2196F3;stroke-width:1.0416666666666667;" width="15.625" x="826.0417" y="361.8333"/><rect fill="none" height="2.0833" style="stroke:#2196F3;stroke-width:1.0416666666666667;" width="4.1667" x="823.9583" y="363.9167"/><rect fill="none" height="2.0833" style="stroke:#2196F3;stroke-width:1.0416666666666667;" width="4.1667" x="823.9583" y="368.0833"/><text fill="#2196F3" font-family="Verdana" font-size="12.5" font-weight="bold" lengthAdjust="spacing" textLength="67.7083" x="734.8958" y="400.4421">ORM Web</text><text fill="#2196F3" font-family="Verdana" font-size="12.5" lengthAdjust="spacing" textLength="75" x="735.4167" y="415.6338">(SQLModel)</text></g><!--entity interfaz--><g id="elem_interfaz"><rect fill="none" filter="url(#fhucpo10d1t03)" height="97.6583" rx="4.1667" ry="4.1667" style="stroke:#2196F3;stroke-width:1.0416666666666667;" width="230.2083" x="490.1042" y="133.8542"/><rect fill="none" height="10.4167" style="stroke:#2196F3;stroke-width:1.0416666666666667;" width="15.625" x="699.4792" y="139.0625"/><rect fill="none" height="2.0833" style="stroke:#2196F3;stroke-width:1.0416666666666667;" width="4.1667" x="697.3958" y="141.1458"/><rect fill="none" height="2.0833" style="stroke:#2196F3;stroke-width:1.0416666666666667;" width="4.1667" x="697.3958" y="145.3125"/><text fill="#2196F3" font-family="Verdana" font-size="12.5" font-weight="bold" lengthAdjust="spacing" textLength="112.5" x="541.6667" y="177.6713">Interfaz Usuario</text><text fill="#2196F3" font-family="Verdana" font-size="12.5" lengthAdjust="spacing" textLength="60.4167" x="569.7917" y="192.863">(ReactJS)</text><text fill="#2196F3" font-family="Verdana" font-size="12.5" lengthAdjust="spacing" textLength="163.5417" x="520.3125" y="208.0546">(Material-UI o Bootstrap)</text></g><!--entity datos--><g id="elem_datos"><rect fill="none" filter="url(#fhucpo10d1t03)" height="67.275" rx="4.1667" ry="4.1667" style="stroke:#2196F3;stroke-width:1.0416666666666667;" width="135.4167" x="537.5" y="566"/><rect fill="none" height="10.4167" style="stroke:#2196F3;stroke-width:1.0416666666666667;" width="15.625" x="652.0833" y="571.2083"/><rect fill="none" height="2.0833" style="stroke:#2196F3;stroke-width:1.0416666666666667;" width="4.1667" x="650" y="573.2917"/><rect fill="none" height="2.0833" style="stroke:#2196F3;stroke-width:1.0416666666666667;" width="4.1667" x="650" y="577.4583"/><text fill="#2196F3" font-family="Verdana" font-size="12.5" font-weight="bold" lengthAdjust="spacing" textLength="72.9167" x="563.5417" y="609.8171">CSV/Excel</text></g><!--entity dbRel--><g id="elem_dbRel"><path d="M709.375,561.8333 C709.375,551.4167 780.2083,551.4167 780.2083,551.4167 C780.2083,551.4167 851.0417,551.4167 851.0417,561.8333 L851.0417,637.6166 C851.0417,648.0333 780.2083,648.0333 780.2083,648.0333 C780.2083,648.0333 709.375,648.0333 709.375,637.6166 L709.375,561.8333 " fill="none" filter="url(#fhucpo10d1t03)" style="stroke:#2196F3;stroke-width:1.0416666666666667;"/><path d="M709.375,561.8333 C709.375,572.25 780.2083,572.25 780.2083,572.25 C780.2083,572.25 851.0417,572.25 851.0417,561.8333 " fill="none" style="stroke:#2196F3;stroke-width:1.0416666666666667;"/><text fill="#2196F3" font-family="Verdana" font-size="12.5" font-weight="bold" lengthAdjust="spacing" textLength="95.8333" x="730.2083" y="599.4005">Base de datos</text><text fill="#2196F3" font-family="Verdana" font-size="12.5" lengthAdjust="spacing" textLength="4.1667" x="742.1875" y="614.5921">&#160;</text><text fill="#2196F3" font-family="Verdana" font-size="12.5" font-weight="bold" lengthAdjust="spacing" textLength="67.7083" x="746.3542" y="614.5921">relacional</text><text fill="#2196F3" font-family="Verdana" font-size="12.5" lengthAdjust="spacing" textLength="87.5" x="738.5417" y="629.7838">(PostgreSQL)</text></g><!--entity dbDoc--><g id="elem_dbDoc"><path d="M359.375,561.8333 C359.375,551.4167 430.2083,551.4167 430.2083,551.4167 C430.2083,551.4167 501.0417,551.4167 501.0417,561.8333 L501.0417,637.6166 C501.0417,648.0333 430.2083,648.0333 430.2083,648.0333 C430.2083,648.0333 359.375,648.0333 359.375,637.6166 L359.375,561.8333 " fill="none" filter="url(#fhucpo10d1t03)" style="stroke:#2196F3;stroke-width:1.0416666666666667;"/><path d="M359.375,561.8333 C359.375,572.25 430.2083,572.25 430.2083,572.25 C430.2083,572.25 501.0417,572.25 501.0417,561.8333 " fill="none" style="stroke:#2196F3;stroke-width:1.0416666666666667;"/><text fill="#2196F3" font-family="Verdana" font-size="12.5" font-weight="bold" lengthAdjust="spacing" textLength="95.8333" x="380.2083" y="599.4005">Base de datos</text><text fill="#2196F3" font-family="Verdana" font-size="12.5" lengthAdjust="spacing" textLength="4.1667" x="386.4583" y="614.5921">&#160;</text><text fill="#2196F3" font-family="Verdana" font-size="12.5" font-weight="bold" lengthAdjust="spacing" textLength="79.1667" x="390.625" y="614.5921">documental</text><text fill="#2196F3" font-family="Verdana" font-size="12.5" lengthAdjust="spacing" textLength="68.75" x="397.9167" y="629.7838">(CouchDB)</text></g><!--link Node-RED to mqtt--><g id="link_Node-RED_mqtt"><path d="M188.5417,404.6042 C188.5417,412.8854 188.5417,495.6042 188.5417,552.1354 " fill="none" id="Node-RED-mqtt" style="stroke:#2196F3;stroke-width:3.125;"/><polygon fill="#2196F3" points="188.5417,398.3542,184.375,407.7292,188.5417,403.5625,192.7083,407.7292,188.5417,398.3542" style="stroke:#2196F3;stroke-width:3.125;"/><polygon fill="#2196F3" points="188.5417,558.3854,192.7083,549.0104,188.5417,553.1771,184.375,549.0104,188.5417,558.3854" style="stroke:#2196F3;stroke-width:3.125;"/><text fill="#222222" font-family="Verdana" font-size="12.5" font-style="italic" font-weight="bold" lengthAdjust="spacing" textLength="64.5833" x="75" y="449.2651">Publica y</text><text fill="#222222" font-family="Verdana" font-size="12.5" lengthAdjust="spacing" textLength="4.1667" x="41.6667" y="464.4567">&#160;</text><text fill="#222222" font-family="Verdana" font-size="12.5" font-style="italic" font-weight="bold" lengthAdjust="spacing" textLength="131.25" x="45.8333" y="464.4567">suscribe mensajes</text></g><!--link Node-RED to dbDoc--><g id="link_Node-RED_dbDoc"><path d="M284.9946,398.2917 C285.8891,398.2917 286.7854,398.2917 287.6831,398.2917 C294.8653,398.2917 302.1434,398.2917 309.4076,398.2917 C367.5208,398.2917 424.7396,398.2917 424.7396,398.2917 C424.7396,398.2917 424.7396,491.4063 424.7396,551.0625 " fill="none" id="Node-RED-dbDoc" style="stroke:#2196F3;stroke-width:3.125;"/><text fill="#222222" font-family="Verdana" font-size="12.5" font-style="italic" font-weight="bold" lengthAdjust="spacing" textLength="82.2917" x="407.0729" y="369.1921">Consultas y</text><text fill="#222222" font-family="Verdana" font-size="12.5" lengthAdjust="spacing" textLength="4.1667" x="394.5729" y="384.3838">&#160;</text><text fill="#222222" font-family="Verdana" font-size="12.5" font-style="italic" font-weight="bold" lengthAdjust="spacing" textLength="107.2917" x="398.7396" y="384.3838">actualizaciones</text></g><!--link equiposRFID to Node-RED--><g id="link_equiposRFID_Node-RED"><path d="M188.5417,230.5104 C188.5417,260.276 188.5417,294.8281 188.5417,329.3867 C188.5417,333.7065 188.5417,337.9288 188.5417,342.0198 C188.5417,343.0425 188.5417,337.8071 188.5417,338.8129 " fill="none" id="equiposRFID-Node-RED" style="stroke:#2196F3;stroke-width:3.125;"/><polygon fill="#2196F3" points="188.5417,224.2604,184.375,233.6354,188.5417,229.4688,192.7083,233.6354,188.5417,224.2604" style="stroke:#2196F3;stroke-width:3.125;"/><polygon fill="#2196F3" points="188.5417,345.0629,192.7083,335.6879,188.5417,339.8545,184.375,335.6879,188.5417,345.0629" style="stroke:#2196F3;stroke-width:3.125;"/><text fill="#222222" font-family="Verdana" font-size="12.5" font-style="italic" font-weight="bold" lengthAdjust="spacing" textLength="68.75" x="213.5417" y="334.6817">Captura y</text><text fill="#222222" font-family="Verdana" font-size="12.5" lengthAdjust="spacing" textLength="4.1667" x="200" y="349.8734">&#160;</text><text fill="#222222" font-family="Verdana" font-size="12.5" font-style="italic" font-weight="bold" lengthAdjust="spacing" textLength="95.8333" x="204.1667" y="349.8734">configuraci&#243;n</text></g><!--link apiWeb to orm--><g id="link_apiWeb_orm"><path d="M675.0729,398.2917 C686.9271,398.2917 686.8854,398.2917 698.9479,398.2917 " fill="none" id="apiWeb-orm" style="stroke:#2196F3;stroke-width:3.125;"/><polygon fill="#2196F3" points="668.8229,398.2917,678.1979,402.4583,674.0313,398.2917,678.1979,394.125,668.8229,398.2917" style="stroke:#2196F3;stroke-width:3.125;"/><polygon fill="#2196F3" points="705.1979,398.2917,695.8229,394.125,699.9896,398.2917,695.8229,402.4583,705.1979,398.2917" style="stroke:#2196F3;stroke-width:3.125;"/><text fill="#222222" font-family="Verdana" font-size="12.5" font-style="italic" font-weight="bold" lengthAdjust="spacing" textLength="96.875" x="636.4896" y="422.3171">Lee, escribe y</text><text fill="#222222" font-family="Verdana" font-size="12.5" lengthAdjust="spacing" textLength="4.1667" x="632.8438" y="437.5088">&#160;</text><text fill="#222222" font-family="Verdana" font-size="12.5" font-style="italic" font-weight="bold" lengthAdjust="spacing" textLength="104.1667" x="637.0104" y="437.5088">actualiza datos</text></g><!--link orm to dbRel--><g id="link_orm_dbRel"><path d="M778.125,439.1563 C778.125,471.7188 778.125,517.1563 778.125,551.4167 " fill="none" id="orm-dbRel" style="stroke:#2196F3;stroke-width:3.125;"/><text fill="#222222" font-family="Verdana" font-size="12.5" font-style="italic" font-weight="bold" lengthAdjust="spacing" textLength="82.2917" x="802.0833" y="466.1817">Consultas y</text><text fill="#222222" font-family="Verdana" font-size="12.5" lengthAdjust="spacing" textLength="4.1667" x="789.5833" y="481.3734">&#160;</text><text fill="#222222" font-family="Verdana" font-size="12.5" font-style="italic" font-weight="bold" lengthAdjust="spacing" textLength="107.2917" x="793.75" y="481.3734">actualizaciones</text></g><!--link apiWeb to dbDoc--><g id="link_apiWeb_dbDoc"><path d="M541.4375,419.125 C517.3125,419.125 495.5729,419.125 495.5729,419.125 C495.5729,419.125 495.5729,497.4271 495.5729,550.9479 " fill="none" id="apiWeb-dbDoc" style="stroke:#2196F3;stroke-width:3.125;"/><text fill="#222222" font-family="Verdana" font-size="12.5" font-style="italic" font-weight="bold" lengthAdjust="spacing" textLength="121.875" x="358.0729" y="433.0046">Consulta lecturas</text><text fill="#222222" font-family="Verdana" font-size="12.5" lengthAdjust="spacing" textLength="4.1667" x="370.5729" y="448.1963">&#160;</text><text fill="#222222" font-family="Verdana" font-size="12.5" font-style="italic" font-weight="bold" lengthAdjust="spacing" textLength="96.875" x="374.7396" y="448.1963">y eventos IoT</text></g><!--link interfaz to apiWeb--><g id="link_interfaz_apiWeb"><path d="M605.2083,238.1042 C605.2083,275.7813 605.2083,314.7083 605.2083,350.2708 " fill="none" id="interfaz-apiWeb" style="stroke:#2196F3;stroke-width:3.125;"/><polygon fill="#2196F3" points="605.2083,231.8542,601.0417,241.2292,605.2083,237.0625,609.375,241.2292,605.2083,231.8542" style="stroke:#2196F3;stroke-width:3.125;"/><polygon fill="#2196F3" points="605.2083,356.5208,609.375,347.1458,605.2083,351.3125,601.0417,347.1458,605.2083,356.5208" style="stroke:#2196F3;stroke-width:3.125;"/><text fill="#222222" font-family="Verdana" font-size="12.5" font-style="italic" font-weight="bold" lengthAdjust="spacing" textLength="80.2083" x="509.375" y="265.088">Interacci&#243;n</text><text fill="#222222" font-family="Verdana" font-size="12.5" lengthAdjust="spacing" textLength="4.1667" x="510.4167" y="280.2796">&#160;</text><text fill="#222222" font-family="Verdana" font-size="12.5" font-style="italic" font-weight="bold" lengthAdjust="spacing" textLength="78.125" x="514.5833" y="280.2796">del usuario</text></g><!--link apiWeb to datos--><g id="link_apiWeb_datos"><path d="M605.2083,445.4063 C605.2083,482.8125 605.2083,524.7292 605.2083,559.6458 " fill="none" id="apiWeb-datos" style="stroke:#2196F3;stroke-width:3.125;"/><polygon fill="#2196F3" points="605.2083,439.1563,601.0417,448.5313,605.2083,444.3646,609.375,448.5313,605.2083,439.1563" style="stroke:#2196F3;stroke-width:3.125;"/><polygon fill="#2196F3" points="605.2083,565.8958,609.375,556.5208,605.2083,560.6875,601.0417,556.5208,605.2083,565.8958" style="stroke:#2196F3;stroke-width:3.125;"/><text fill="#222222" font-family="Verdana" font-size="12.5" font-style="italic" font-weight="bold" lengthAdjust="spacing" textLength="65.625" x="508.3333" y="473.4213">Exporta e</text><text fill="#222222" font-family="Verdana" font-size="12.5" lengthAdjust="spacing" textLength="4.1667" x="492.7083" y="488.613">&#160;</text><text fill="#222222" font-family="Verdana" font-size="12.5" font-style="italic" font-weight="bold" lengthAdjust="spacing" textLength="96.875" x="496.875" y="488.613">importa datos</text></g><!--SRC=[bLJ1RXCn4BtlLmovG2LMt55LgMbI4TH0cgHmA3rCl9F4r6jlRIzDY_9LV08_njZUtMpL8e4FKNOyVlFUcx5V-IsL12LwiX9pKtibDMMPkvMwGeib5BJ6MlabxVofaXjTalOW-8TiBokSyWyLWR5-QxBiDGpH4H-64NhZO4uAXJGQLLQWnrNO71olJjgi8cPzqy0ns-M6m9kPSNvZQN5vSJG0T52i6EnvXP4HTU3sBnMABZTME3Ers8w6BJmZPTcQLJ70n2m7y3C3Ng6Wk2LTmFnyCegXYWEuuRJ-JfiVbZPSUV29V_Fv-CbEMDTCPNgvNCBGcbkoaSlKkBjQUc-ERWARyixxxio- -tVTGjx0SPwVn3Hu7wGTovDPlL9I83mqQZdaQYUiN76ZIJlyJkubf3nFuZkWCwCTjvvfzA1G-1gLV8mjQe3sZK4Vq1RtQEdWK3BWIRplGd1Wp7ghC2Ay5oquvTdIiUY2sHfBBdb1AR733giNIqxqz7GoiFArVUA7C7ejDnmKylSltMZOfw5AdMJQ2c6cU9JMnfO8NscLFUit1rivGShfR192KSKvEi_VYJfMCfmFUSAK5Hl7boXCv-Vvj3l14pvbyYhD8HUD-UaeYxDoi_Mia3SwQHT4Ru6QthxKf3Js4IYSYotcw_F_BMve_7L6G948Bhi3p0FG3zR9hULRbDmzjoOqDngN2MNg0WRzMD_CINXYrlW8Lwv6AqtqQ4vCxkFYADsLz6gf_6e21eR6UESjLibosHoFUEr7cf56IoiX5a8HH-70dXi1TQgSk8zt5JzkqHCswy9iNAjWKZOx0I3wIBjUXB_RzwUlxspnvTru9qX5keS-TGqlpBrcjkdXQiasB80EJ6Kgtq3i_m00]--></g></svg>