<?xml version="1.0" encoding="us-ascii" standalone="no"?><svg xmlns="http://www.w3.org/2000/svg" xmlns:xlink="http://www.w3.org/1999/xlink" contentStyleType="text/css" height="900px" preserveAspectRatio="none" style="width:2657px;height:900px;" version="1.1" viewBox="0 0 2657 900" width="2657.2917px" zoomAndPan="magnify"><defs><filter height="300%" id="f1v1hfyav9rvtz" width="300%" x="-1" y="-1"><feGaussianBlur result="blurOut" stdDeviation="2.0833333333333335"/><feColorMatrix in="blurOut" result="blurOut2" type="matrix" values="0 0 0 0 0 0 0 0 0 0 0 0 0 0 0 0 0 0 .4 0"/><feOffset dx="4.166666666666667" dy="4.166666666666667" in="blurOut2" result="blurOut3"/><feBlend in="SourceGraphic" in2="blurOut3" mode="normal"/></filter></defs><g><ellipse cx="1275" cy="20.8333" fill="#9C27B0" filter="url(#f1v1hfyav9rvtz)" rx="10.4167" ry="10.4167" style="stroke:#1A78C2;stroke-width:1.0416666666666667;"/><rect fill="none" filter="url(#f1v1hfyav9rvtz)" height="48.525" rx="4.1667" ry="4.1667" style="stroke:#2196F3;stroke-width:1.0416666666666667;" width="356.25" x="1096.875" y="52.0833"/><text fill="#2196F3" font-family="Verdana" font-size="12.5" lengthAdjust="spacing" textLength="322.9167" x="1113.5417" y="81.3171">Administrador accede a la secci&#243;n "Gesti&#243;n Tags"</text><rect fill="none" filter="url(#f1v1hfyav9rvtz)" height="48.525" rx="4.1667" ry="4.1667" style="stroke:#2196F3;stroke-width:1.0416666666666667;" width="216.6667" x="1166.6667" y="121.4417"/><text fill="#2196F3" font-family="Verdana" font-size="12.5" lengthAdjust="spacing" textLength="183.3333" x="1183.3333" y="150.6755">Seleccionar operaci&#243;n CRUD</text><polygon fill="none" filter="url(#f1v1hfyav9rvtz)" points="1197.9167,190.8,1352.0833,190.8,1364.5833,208.8125,1352.0833,226.825,1197.9167,226.825,1185.4167,208.8125,1197.9167,190.8" style="stroke:#CCCCCC;stroke-width:1.0416666666666667;"/><text fill="#CCCCCC" font-family="Verdana" font-size="12.5" lengthAdjust="spacing" textLength="133.3333" x="1208.3333" y="213.7838">&#191;Registrar Etiqueta?</text><text fill="#222222" font-family="Verdana" font-size="12.5" lengthAdjust="spacing" textLength="11.4583" x="1163.5417" y="195.7713">S&#237;</text><text fill="#222222" font-family="Verdana" font-size="12.5" lengthAdjust="spacing" textLength="17.7083" x="1375" y="195.7713">No</text><rect fill="none" filter="url(#f1v1hfyav9rvtz)" height="63.7166" rx="4.1667" ry="4.1667" style="stroke:#2196F3;stroke-width:1.0416666666666667;" width="335.4167" x="492.8385" y="237.2416"/><text fill="#2196F3" font-family="Verdana" font-size="12.5" lengthAdjust="spacing" textLength="302.0833" x="509.5052" y="266.4754">Completar formulario con datos de la etiqueta</text><text fill="#2196F3" font-family="Verdana" font-size="12.5" lengthAdjust="spacing" textLength="176.0417" x="572.526" y="281.6671">(c&#243;digo, ubicaci&#243;n, estado)</text><rect fill="none" filter="url(#f1v1hfyav9rvtz)" height="48.525" rx="4.1667" ry="4.1667" style="stroke:#2196F3;stroke-width:1.0416666666666667;" width="306.25" x="507.4219" y="337.4166"/><text fill="#2196F3" font-family="Verdana" font-size="12.5" lengthAdjust="spacing" textLength="272.9167" x="524.0885" y="366.6504">Asociar la etiqueta a un pallet o ubicaci&#243;n</text><rect fill="none" filter="url(#f1v1hfyav9rvtz)" height="48.525" rx="4.1667" ry="4.1667" style="stroke:#2196F3;stroke-width:1.0416666666666667;" width="188.5417" x="566.276" y="422.3999"/><text fill="#2196F3" font-family="Verdana" font-size="12.5" lengthAdjust="spacing" textLength="155.2083" x="582.9427" y="451.6337">Enviar datos al servidor</text><polygon fill="none" filter="url(#f1v1hfyav9rvtz)" points="598.5677,507.3832,722.526,507.3832,735.026,525.3957,722.526,543.4082,598.5677,543.4082,586.0677,525.3957,598.5677,507.3832" style="stroke:#CCCCCC;stroke-width:1.0416666666666667;"/><text fill="#CCCCCC" font-family="Verdana" font-size="12.5" lengthAdjust="spacing" textLength="103.125" x="608.9844" y="530.367">&#191;Datos v&#225;lidos?</text><text fill="#222222" font-family="Verdana" font-size="12.5" lengthAdjust="spacing" textLength="11.4583" x="564.1927" y="512.3545">S&#237;</text><text fill="#222222" font-family="Verdana" font-size="12.5" lengthAdjust="spacing" textLength="17.7083" x="745.4427" y="512.3545">No</text><polygon fill="none" filter="url(#f1v1hfyav9rvtz)" points="291.9271,553.8249,474.2188,553.8249,486.7188,571.8374,474.2188,589.8499,291.9271,589.8499,279.4271,571.8374,291.9271,553.8249" style="stroke:#CCCCCC;stroke-width:1.0416666666666667;"/><text fill="#CCCCCC" font-family="Verdana" font-size="12.5" lengthAdjust="spacing" textLength="161.4583" x="302.3438" y="576.8087">&#191;Etiqueta ya registrada?</text><text fill="#222222" font-family="Verdana" font-size="12.5" lengthAdjust="spacing" textLength="11.4583" x="257.5521" y="558.7962">S&#237;</text><text fill="#222222" font-family="Verdana" font-size="12.5" lengthAdjust="spacing" textLength="17.7083" x="497.1354" y="558.7962">No</text><rect fill="none" filter="url(#f1v1hfyav9rvtz)" height="48.525" rx="4.1667" ry="4.1667" style="stroke:#2196F3;stroke-width:1.0416666666666667;" width="364.5833" x="11.4583" y="600.2665"/><text fill="#2196F3" font-family="Verdana" font-size="12.5" lengthAdjust="spacing" textLength="331.25" x="28.125" y="629.5003">Mostrar mensaje de error "Etiqueta ya registrada"</text><rect fill="none" filter="url(#f1v1hfyav9rvtz)" height="48.525" rx="4.1667" ry="4.1667" style="stroke:#2196F3;stroke-width:1.0416666666666667;" width="287.5" x="428.6458" y="600.2665"/><text fill="#2196F3" font-family="Verdana" font-size="12.5" lengthAdjust="spacing" textLength="254.1667" x="445.3125" y="629.5003">Registrar etiqueta en la base de datos</text><rect fill="none" filter="url(#f1v1hfyav9rvtz)" height="48.525" rx="4.1667" ry="4.1667" style="stroke:#2196F3;stroke-width:1.0416666666666667;" width="351.0417" x="396.875" y="683.7748"/><text fill="#2196F3" font-family="Verdana" font-size="12.5" lengthAdjust="spacing" textLength="317.7083" x="413.5417" y="713.0086">Mostrar mensaje "Etiqueta registrada con &#233;xito"</text><polygon fill="none" filter="url(#f1v1hfyav9rvtz)" points="383.0729,742.7165,395.5729,755.2165,383.0729,767.7165,370.5729,755.2165,383.0729,742.7165" style="stroke:#CCCCCC;stroke-width:1.0416666666666667;"/><rect fill="none" filter="url(#f1v1hfyav9rvtz)" height="48.525" rx="4.1667" ry="4.1667" style="stroke:#2196F3;stroke-width:1.0416666666666667;" width="317.7083" x="779.1667" y="553.8249"/><text fill="#2196F3" font-family="Verdana" font-size="12.5" lengthAdjust="spacing" textLength="284.375" x="795.8333" y="583.0587">Mostrar mensaje de error "Datos inv&#225;lidos"</text><polygon fill="none" filter="url(#f1v1hfyav9rvtz)" points="660.5469,778.1331,673.0469,790.6331,660.5469,803.1331,648.0469,790.6331,660.5469,778.1331" style="stroke:#CCCCCC;stroke-width:1.0416666666666667;"/><polygon fill="none" filter="url(#f1v1hfyav9rvtz)" points="1822.7865,237.2416,1956.1198,237.2416,1968.6198,255.2541,1956.1198,273.2666,1822.7865,273.2666,1810.2865,255.2541,1822.7865,237.2416" style="stroke:#CCCCCC;stroke-width:1.0416666666666667;"/><text fill="#CCCCCC" font-family="Verdana" font-size="12.5" lengthAdjust="spacing" textLength="112.5" x="1833.2031" y="260.2254">&#191;Editar Etiqueta?</text><text fill="#222222" font-family="Verdana" font-size="12.5" lengthAdjust="spacing" textLength="11.4583" x="1788.4115" y="242.2129">S&#237;</text><text fill="#222222" font-family="Verdana" font-size="12.5" lengthAdjust="spacing" textLength="17.7083" x="1979.0365" y="242.2129">No</text><rect fill="none" filter="url(#f1v1hfyav9rvtz)" height="48.525" rx="4.1667" ry="4.1667" style="stroke:#2196F3;stroke-width:1.0416666666666667;" width="234.375" x="1394.7917" y="283.6833"/><text fill="#2196F3" font-family="Verdana" font-size="12.5" lengthAdjust="spacing" textLength="201.0417" x="1411.4583" y="312.9171">Seleccionar etiqueta de la lista</text><rect fill="none" filter="url(#f1v1hfyav9rvtz)" height="63.7166" rx="4.1667" ry="4.1667" style="stroke:#2196F3;stroke-width:1.0416666666666667;" width="228.125" x="1397.9167" y="368.6666"/><text fill="#2196F3" font-family="Verdana" font-size="12.5" lengthAdjust="spacing" textLength="194.7917" x="1414.5833" y="397.9004">Modificar datos de la etiqueta</text><text fill="#2196F3" font-family="Verdana" font-size="12.5" lengthAdjust="spacing" textLength="176.0417" x="1423.9583" y="413.092">(c&#243;digo, ubicaci&#243;n, estado)</text><rect fill="none" filter="url(#f1v1hfyav9rvtz)" height="48.525" rx="4.1667" ry="4.1667" style="stroke:#2196F3;stroke-width:1.0416666666666667;" width="204.1667" x="1409.8958" y="468.8416"/><text fill="#2196F3" font-family="Verdana" font-size="12.5" lengthAdjust="spacing" textLength="170.8333" x="1426.5625" y="498.0754">Enviar cambios al servidor</text><polygon fill="none" filter="url(#f1v1hfyav9rvtz)" points="1441.1458,553.8249,1582.8125,553.8249,1595.3125,571.8374,1582.8125,589.8499,1441.1458,589.8499,1428.6458,571.8374,1441.1458,553.8249" style="stroke:#CCCCCC;stroke-width:1.0416666666666667;"/><text fill="#CCCCCC" font-family="Verdana" font-size="12.5" lengthAdjust="spacing" textLength="120.8333" x="1451.5625" y="576.8087">&#191;Cambios v&#225;lidos?</text><text fill="#222222" font-family="Verdana" font-size="12.5" lengthAdjust="spacing" textLength="11.4583" x="1406.7708" y="558.7962">S&#237;</text><text fill="#222222" font-family="Verdana" font-size="12.5" lengthAdjust="spacing" textLength="17.7083" x="1605.7292" y="558.7962">No</text><rect fill="none" filter="url(#f1v1hfyav9rvtz)" height="48.525" rx="4.1667" ry="4.1667" style="stroke:#2196F3;stroke-width:1.0416666666666667;" width="273.9583" x="1191.1458" y="600.2665"/><text fill="#2196F3" font-family="Verdana" font-size="12.5" lengthAdjust="spacing" textLength="240.625" x="1207.8125" y="629.5003">Actualizar datos en la base de datos</text><rect fill="none" filter="url(#f1v1hfyav9rvtz)" height="48.525" rx="4.1667" ry="4.1667" style="stroke:#2196F3;stroke-width:1.0416666666666667;" width="358.3333" x="1148.9583" y="683.7748"/><text fill="#2196F3" font-family="Verdana" font-size="12.5" lengthAdjust="spacing" textLength="325" x="1165.625" y="713.0086">Mostrar mensaje "Etiqueta actualizada con &#233;xito"</text><rect fill="none" filter="url(#f1v1hfyav9rvtz)" height="48.525" rx="4.1667" ry="4.1667" style="stroke:#2196F3;stroke-width:1.0416666666666667;" width="335.4167" x="1528.125" y="600.2665"/><text fill="#2196F3" font-family="Verdana" font-size="12.5" lengthAdjust="spacing" textLength="302.0833" x="1544.7917" y="629.5003">Mostrar mensaje de error "Cambios inv&#225;lidos"</text><polygon fill="none" filter="url(#f1v1hfyav9rvtz)" points="1511.9792,742.7165,1524.4792,755.2165,1511.9792,767.7165,1499.4792,755.2165,1511.9792,742.7165" style="stroke:#CCCCCC;stroke-width:1.0416666666666667;"/><polygon fill="none" filter="url(#f1v1hfyav9rvtz)" points="2194.0104,283.6833,2339.8438,283.6833,2352.3438,301.6958,2339.8438,319.7083,2194.0104,319.7083,2181.5104,301.6958,2194.0104,283.6833" style="stroke:#CCCCCC;stroke-width:1.0416666666666667;"/><text fill="#CCCCCC" font-family="Verdana" font-size="12.5" lengthAdjust="spacing" textLength="125" x="2204.4271" y="306.6671">&#191;Eliminar Etiqueta?</text><text fill="#222222" font-family="Verdana" font-size="12.5" lengthAdjust="spacing" textLength="11.4583" x="2159.6354" y="288.6546">S&#237;</text><text fill="#222222" font-family="Verdana" font-size="12.5" lengthAdjust="spacing" textLength="130.2083" x="2362.7604" y="288.6546">Consultar Etiquetas</text><rect fill="none" filter="url(#f1v1hfyav9rvtz)" height="48.525" rx="4.1667" ry="4.1667" style="stroke:#2196F3;stroke-width:1.0416666666666667;" width="234.375" x="1960.9375" y="330.1249"/><text fill="#2196F3" font-family="Verdana" font-size="12.5" lengthAdjust="spacing" textLength="201.0417" x="1977.6042" y="359.3587">Seleccionar etiqueta de la lista</text><rect fill="none" filter="url(#f1v1hfyav9rvtz)" height="48.525" rx="4.1667" ry="4.1667" style="stroke:#2196F3;stroke-width:1.0416666666666667;" width="172.9167" x="1991.6667" y="415.1082"/><text fill="#2196F3" font-family="Verdana" font-size="12.5" lengthAdjust="spacing" textLength="139.5833" x="2008.3333" y="444.342">Confirmar eliminaci&#243;n</text><rect fill="none" filter="url(#f1v1hfyav9rvtz)" height="48.525" rx="4.1667" ry="4.1667" style="stroke:#2196F3;stroke-width:1.0416666666666667;" width="279.1667" x="1938.5417" y="500.0916"/><text fill="#2196F3" font-family="Verdana" font-size="12.5" lengthAdjust="spacing" textLength="245.8333" x="1955.2083" y="529.3254">Eliminar etiqueta de la base de datos</text><rect fill="none" filter="url(#f1v1hfyav9rvtz)" height="48.525" rx="4.1667" ry="4.1667" style="stroke:#2196F3;stroke-width:1.0416666666666667;" width="345.8333" x="1905.2083" y="585.0749"/><text fill="#2196F3" font-family="Verdana" font-size="12.5" lengthAdjust="spacing" textLength="312.5" x="1921.875" y="614.3087">Mostrar mensaje "Etiqueta eliminada con &#233;xito"</text><rect fill="none" filter="url(#f1v1hfyav9rvtz)" height="48.525" rx="4.1667" ry="4.1667" style="stroke:#2196F3;stroke-width:1.0416666666666667;" width="263.5417" x="2323.9583" y="330.1249"/><text fill="#2196F3" font-family="Verdana" font-size="12.5" lengthAdjust="spacing" textLength="230.2083" x="2340.625" y="359.3587">Cargar y mostrar lista de etiquetas</text><rect fill="none" filter="url(#f1v1hfyav9rvtz)" height="48.525" rx="4.1667" ry="4.1667" style="stroke:#2196F3;stroke-width:1.0416666666666667;" width="367.7083" x="2271.875" y="415.1082"/><text fill="#2196F3" font-family="Verdana" font-size="12.5" lengthAdjust="spacing" textLength="334.375" x="2288.5417" y="444.342">Mostrar c&#243;digo, ubicaci&#243;n, estado y pallet asociado</text><polygon fill="none" filter="url(#f1v1hfyav9rvtz)" points="2266.9271,659.2082,2279.4271,671.7082,2266.9271,684.2082,2254.4271,671.7082,2266.9271,659.2082" style="stroke:#CCCCCC;stroke-width:1.0416666666666667;"/><polygon fill="none" filter="url(#f1v1hfyav9rvtz)" points="1889.4531,778.1331,1901.9531,790.6331,1889.4531,803.1331,1876.9531,790.6331,1889.4531,778.1331" style="stroke:#CCCCCC;stroke-width:1.0416666666666667;"/><polygon fill="none" filter="url(#f1v1hfyav9rvtz)" points="1275,813.5498,1287.5,826.0498,1275,838.5498,1262.5,826.0498,1275,813.5498" style="stroke:#CCCCCC;stroke-width:1.0416666666666667;"/><ellipse cx="1275" cy="870.8415" fill="none" filter="url(#f1v1hfyav9rvtz)" rx="11.4583" ry="11.4583" style="stroke:#1A78C2;stroke-width:1.0416666666666667;"/><ellipse cx="1275" cy="870.8415" fill="none" rx="6.25" ry="6.25" style="stroke:#1A78C2;stroke-width:1.0416666666666667;"/><line style="stroke:#2196F3;stroke-width:3.125;" x1="1275" x2="1275" y1="31.25" y2="52.0833"/><polygon fill="#2196F3" points="1270.8333,41.6667,1275,52.0833,1279.1667,41.6667,1275,45.8333" style="stroke:#2196F3;stroke-width:1.0416666666666667;"/><line style="stroke:#2196F3;stroke-width:3.125;" x1="1275" x2="1275" y1="100.6083" y2="121.4417"/><polygon fill="#2196F3" points="1270.8333,111.025,1275,121.4417,1279.1667,111.025,1275,115.1917" style="stroke:#2196F3;stroke-width:1.0416666666666667;"/><line style="stroke:#2196F3;stroke-width:3.125;" x1="660.5469" x2="660.5469" y1="300.9583" y2="337.4166"/><polygon fill="#2196F3" points="656.3802,326.9999,660.5469,337.4166,664.7135,326.9999,660.5469,331.1666" style="stroke:#2196F3;stroke-width:1.0416666666666667;"/><line style="stroke:#2196F3;stroke-width:3.125;" x1="660.5469" x2="660.5469" y1="385.9416" y2="422.3999"/><polygon fill="#2196F3" points="656.3802,411.9832,660.5469,422.3999,664.7135,411.9832,660.5469,416.1499" style="stroke:#2196F3;stroke-width:1.0416666666666667;"/><line style="stroke:#2196F3;stroke-width:3.125;" x1="572.3958" x2="572.3958" y1="648.7915" y2="683.7748"/><polygon fill="#2196F3" points="568.2292,673.3582,572.3958,683.7748,576.5625,673.3582,572.3958,677.5248" style="stroke:#2196F3;stroke-width:1.0416666666666667;"/><line style="stroke:#2196F3;stroke-width:3.125;" x1="279.4271" x2="193.75" y1="571.8374" y2="571.8374"/><line style="stroke:#2196F3;stroke-width:3.125;" x1="193.75" x2="193.75" y1="571.8374" y2="600.2665"/><polygon fill="#2196F3" points="189.5833,589.8499,193.75,600.2665,197.9167,589.8499,193.75,594.0165" style="stroke:#2196F3;stroke-width:1.0416666666666667;"/><line style="stroke:#2196F3;stroke-width:3.125;" x1="486.7188" x2="572.3958" y1="571.8374" y2="571.8374"/><line style="stroke:#2196F3;stroke-width:3.125;" x1="572.3958" x2="572.3958" y1="571.8374" y2="600.2665"/><polygon fill="#2196F3" points="568.2292,589.8499,572.3958,600.2665,576.5625,589.8499,572.3958,594.0165" style="stroke:#2196F3;stroke-width:1.0416666666666667;"/><line style="stroke:#2196F3;stroke-width:3.125;" x1="193.75" x2="193.75" y1="648.7915" y2="755.2165"/><line style="stroke:#2196F3;stroke-width:3.125;" x1="193.75" x2="370.5729" y1="755.2165" y2="755.2165"/><polygon fill="#2196F3" points="360.1563,751.0498,370.5729,755.2165,360.1563,759.3831,364.3229,755.2165" style="stroke:#2196F3;stroke-width:1.0416666666666667;"/><line style="stroke:#2196F3;stroke-width:3.125;" x1="572.3958" x2="572.3958" y1="732.2998" y2="755.2165"/><line style="stroke:#2196F3;stroke-width:3.125;" x1="572.3958" x2="395.5729" y1="755.2165" y2="755.2165"/><polygon fill="#2196F3" points="405.9896,751.0498,395.5729,755.2165,405.9896,759.3831,401.8229,755.2165" style="stroke:#2196F3;stroke-width:1.0416666666666667;"/><line style="stroke:#2196F3;stroke-width:3.125;" x1="586.0677" x2="383.0729" y1="525.3957" y2="525.3957"/><line style="stroke:#2196F3;stroke-width:3.125;" x1="383.0729" x2="383.0729" y1="525.3957" y2="553.8249"/><polygon fill="#2196F3" points="378.9063,543.4082,383.0729,553.8249,387.2396,543.4082,383.0729,547.5749" style="stroke:#2196F3;stroke-width:1.0416666666666667;"/><line style="stroke:#2196F3;stroke-width:3.125;" x1="735.026" x2="938.0208" y1="525.3957" y2="525.3957"/><line style="stroke:#2196F3;stroke-width:3.125;" x1="938.0208" x2="938.0208" y1="525.3957" y2="553.8249"/><polygon fill="#2196F3" points="933.8542,543.4082,938.0208,553.8249,942.1875,543.4082,938.0208,547.5749" style="stroke:#2196F3;stroke-width:1.0416666666666667;"/><line style="stroke:#2196F3;stroke-width:3.125;" x1="383.0729" x2="383.0729" y1="767.7165" y2="790.6331"/><line style="stroke:#2196F3;stroke-width:3.125;" x1="383.0729" x2="648.0469" y1="790.6331" y2="790.6331"/><polygon fill="#2196F3" points="637.6302,786.4665,648.0469,790.6331,637.6302,794.7998,641.7969,790.6331" style="stroke:#2196F3;stroke-width:1.0416666666666667;"/><line style="stroke:#2196F3;stroke-width:3.125;" x1="938.0208" x2="938.0208" y1="602.3499" y2="790.6331"/><line style="stroke:#2196F3;stroke-width:3.125;" x1="938.0208" x2="673.0469" y1="790.6331" y2="790.6331"/><polygon fill="#2196F3" points="683.4635,786.4665,673.0469,790.6331,683.4635,794.7998,679.2969,790.6331" style="stroke:#2196F3;stroke-width:1.0416666666666667;"/><line style="stroke:#2196F3;stroke-width:3.125;" x1="660.5469" x2="660.5469" y1="470.9249" y2="507.3832"/><polygon fill="#2196F3" points="656.3802,496.9666,660.5469,507.3832,664.7135,496.9666,660.5469,501.1332" style="stroke:#2196F3;stroke-width:1.0416666666666667;"/><line style="stroke:#2196F3;stroke-width:3.125;" x1="1511.9792" x2="1511.9792" y1="332.2083" y2="368.6666"/><polygon fill="#2196F3" points="1507.8125,358.2499,1511.9792,368.6666,1516.1458,358.2499,1511.9792,362.4166" style="stroke:#2196F3;stroke-width:1.0416666666666667;"/><line style="stroke:#2196F3;stroke-width:3.125;" x1="1511.9792" x2="1511.9792" y1="432.3832" y2="468.8416"/><polygon fill="#2196F3" points="1507.8125,458.4249,1511.9792,468.8416,1516.1458,458.4249,1511.9792,462.5916" style="stroke:#2196F3;stroke-width:1.0416666666666667;"/><line style="stroke:#2196F3;stroke-width:3.125;" x1="1328.125" x2="1328.125" y1="648.7915" y2="683.7748"/><polygon fill="#2196F3" points="1323.9583,673.3582,1328.125,683.7748,1332.2917,673.3582,1328.125,677.5248" style="stroke:#2196F3;stroke-width:1.0416666666666667;"/><line style="stroke:#2196F3;stroke-width:3.125;" x1="1428.6458" x2="1328.125" y1="571.8374" y2="571.8374"/><line style="stroke:#2196F3;stroke-width:3.125;" x1="1328.125" x2="1328.125" y1="571.8374" y2="600.2665"/><polygon fill="#2196F3" points="1323.9583,589.8499,1328.125,600.2665,1332.2917,589.8499,1328.125,594.0165" style="stroke:#2196F3;stroke-width:1.0416666666666667;"/><line style="stroke:#2196F3;stroke-width:3.125;" x1="1595.3125" x2="1695.8333" y1="571.8374" y2="571.8374"/><line style="stroke:#2196F3;stroke-width:3.125;" x1="1695.8333" x2="1695.8333" y1="571.8374" y2="600.2665"/><polygon fill="#2196F3" points="1691.6667,589.8499,1695.8333,600.2665,1700,589.8499,1695.8333,594.0165" style="stroke:#2196F3;stroke-width:1.0416666666666667;"/><line style="stroke:#2196F3;stroke-width:3.125;" x1="1328.125" x2="1328.125" y1="732.2998" y2="755.2165"/><line style="stroke:#2196F3;stroke-width:3.125;" x1="1328.125" x2="1499.4792" y1="755.2165" y2="755.2165"/><polygon fill="#2196F3" points="1489.0625,751.0498,1499.4792,755.2165,1489.0625,759.3831,1493.2292,755.2165" style="stroke:#2196F3;stroke-width:1.0416666666666667;"/><line style="stroke:#2196F3;stroke-width:3.125;" x1="1695.8333" x2="1695.8333" y1="648.7915" y2="755.2165"/><line style="stroke:#2196F3;stroke-width:3.125;" x1="1695.8333" x2="1524.4792" y1="755.2165" y2="755.2165"/><polygon fill="#2196F3" points="1534.8958,751.0498,1524.4792,755.2165,1534.8958,759.3831,1530.7292,755.2165" style="stroke:#2196F3;stroke-width:1.0416666666666667;"/><line style="stroke:#2196F3;stroke-width:3.125;" x1="1511.9792" x2="1511.9792" y1="517.3665" y2="553.8249"/><polygon fill="#2196F3" points="1507.8125,543.4082,1511.9792,553.8249,1516.1458,543.4082,1511.9792,547.5749" style="stroke:#2196F3;stroke-width:1.0416666666666667;"/><line style="stroke:#2196F3;stroke-width:3.125;" x1="2078.125" x2="2078.125" y1="378.6499" y2="415.1082"/><polygon fill="#2196F3" points="2073.9583,404.6916,2078.125,415.1082,2082.2917,404.6916,2078.125,408.8582" style="stroke:#2196F3;stroke-width:1.0416666666666667;"/><line style="stroke:#2196F3;stroke-width:3.125;" x1="2078.125" x2="2078.125" y1="463.6332" y2="500.0916"/><polygon fill="#2196F3" points="2073.9583,489.6749,2078.125,500.0916,2082.2917,489.6749,2078.125,493.8416" style="stroke:#2196F3;stroke-width:1.0416666666666667;"/><line style="stroke:#2196F3;stroke-width:3.125;" x1="2078.125" x2="2078.125" y1="548.6165" y2="585.0749"/><polygon fill="#2196F3" points="2073.9583,574.6582,2078.125,585.0749,2082.2917,574.6582,2078.125,578.8249" style="stroke:#2196F3;stroke-width:1.0416666666666667;"/><line style="stroke:#2196F3;stroke-width:3.125;" x1="2455.7292" x2="2455.7292" y1="378.6499" y2="415.1082"/><polygon fill="#2196F3" points="2451.5625,404.6916,2455.7292,415.1082,2459.8958,404.6916,2455.7292,408.8582" style="stroke:#2196F3;stroke-width:1.0416666666666667;"/><line style="stroke:#2196F3;stroke-width:3.125;" x1="2181.5104" x2="2078.125" y1="301.6958" y2="301.6958"/><line style="stroke:#2196F3;stroke-width:3.125;" x1="2078.125" x2="2078.125" y1="301.6958" y2="330.1249"/><polygon fill="#2196F3" points="2073.9583,319.7083,2078.125,330.1249,2082.2917,319.7083,2078.125,323.8749" style="stroke:#2196F3;stroke-width:1.0416666666666667;"/><line style="stroke:#2196F3;stroke-width:3.125;" x1="2352.3438" x2="2455.7292" y1="301.6958" y2="301.6958"/><line style="stroke:#2196F3;stroke-width:3.125;" x1="2455.7292" x2="2455.7292" y1="301.6958" y2="330.1249"/><polygon fill="#2196F3" points="2451.5625,319.7083,2455.7292,330.1249,2459.8958,319.7083,2455.7292,323.8749" style="stroke:#2196F3;stroke-width:1.0416666666666667;"/><line style="stroke:#2196F3;stroke-width:3.125;" x1="2078.125" x2="2078.125" y1="633.5999" y2="671.7082"/><line style="stroke:#2196F3;stroke-width:3.125;" x1="2078.125" x2="2254.4271" y1="671.7082" y2="671.7082"/><polygon fill="#2196F3" points="2244.0104,667.5415,2254.4271,671.7082,2244.0104,675.8748,2248.1771,671.7082" style="stroke:#2196F3;stroke-width:1.0416666666666667;"/><line style="stroke:#2196F3;stroke-width:3.125;" x1="2455.7292" x2="2455.7292" y1="463.6332" y2="671.7082"/><line style="stroke:#2196F3;stroke-width:3.125;" x1="2455.7292" x2="2279.4271" y1="671.7082" y2="671.7082"/><polygon fill="#2196F3" points="2289.8438,667.5415,2279.4271,671.7082,2289.8438,675.8748,2285.6771,671.7082" style="stroke:#2196F3;stroke-width:1.0416666666666667;"/><line style="stroke:#2196F3;stroke-width:3.125;" x1="1810.2865" x2="1511.9792" y1="255.2541" y2="255.2541"/><line style="stroke:#2196F3;stroke-width:3.125;" x1="1511.9792" x2="1511.9792" y1="255.2541" y2="283.6833"/><polygon fill="#2196F3" points="1507.8125,273.2666,1511.9792,283.6833,1516.1458,273.2666,1511.9792,277.4333" style="stroke:#2196F3;stroke-width:1.0416666666666667;"/><line style="stroke:#2196F3;stroke-width:3.125;" x1="1968.6198" x2="2266.9271" y1="255.2541" y2="255.2541"/><line style="stroke:#2196F3;stroke-width:3.125;" x1="2266.9271" x2="2266.9271" y1="255.2541" y2="283.6833"/><polygon fill="#2196F3" points="2262.7604,273.2666,2266.9271,283.6833,2271.0938,273.2666,2266.9271,277.4333" style="stroke:#2196F3;stroke-width:1.0416666666666667;"/><line style="stroke:#2196F3;stroke-width:3.125;" x1="1511.9792" x2="1511.9792" y1="767.7165" y2="790.6331"/><line style="stroke:#2196F3;stroke-width:3.125;" x1="1511.9792" x2="1876.9531" y1="790.6331" y2="790.6331"/><polygon fill="#2196F3" points="1866.5365,786.4665,1876.9531,790.6331,1866.5365,794.7998,1870.7031,790.6331" style="stroke:#2196F3;stroke-width:1.0416666666666667;"/><line style="stroke:#2196F3;stroke-width:3.125;" x1="2266.9271" x2="2266.9271" y1="684.2082" y2="790.6331"/><line style="stroke:#2196F3;stroke-width:3.125;" x1="2266.9271" x2="1901.9531" y1="790.6331" y2="790.6331"/><polygon fill="#2196F3" points="1912.3698,786.4665,1901.9531,790.6331,1912.3698,794.7998,1908.2031,790.6331" style="stroke:#2196F3;stroke-width:1.0416666666666667;"/><line style="stroke:#2196F3;stroke-width:3.125;" x1="1185.4167" x2="660.5469" y1="208.8125" y2="208.8125"/><line style="stroke:#2196F3;stroke-width:3.125;" x1="660.5469" x2="660.5469" y1="208.8125" y2="237.2416"/><polygon fill="#2196F3" points="656.3802,226.825,660.5469,237.2416,664.7135,226.825,660.5469,230.9916" style="stroke:#2196F3;stroke-width:1.0416666666666667;"/><line style="stroke:#2196F3;stroke-width:3.125;" x1="1364.5833" x2="1889.4531" y1="208.8125" y2="208.8125"/><line style="stroke:#2196F3;stroke-width:3.125;" x1="1889.4531" x2="1889.4531" y1="208.8125" y2="237.2416"/><polygon fill="#2196F3" points="1885.2865,226.825,1889.4531,237.2416,1893.6198,226.825,1889.4531,230.9916" style="stroke:#2196F3;stroke-width:1.0416666666666667;"/><line style="stroke:#2196F3;stroke-width:3.125;" x1="660.5469" x2="660.5469" y1="803.1331" y2="826.0498"/><line style="stroke:#2196F3;stroke-width:3.125;" x1="660.5469" x2="1262.5" y1="826.0498" y2="826.0498"/><polygon fill="#2196F3" points="1252.0833,821.8831,1262.5,826.0498,1252.0833,830.2165,1256.25,826.0498" style="stroke:#2196F3;stroke-width:1.0416666666666667;"/><line style="stroke:#2196F3;stroke-width:3.125;" x1="1889.4531" x2="1889.4531" y1="803.1331" y2="826.0498"/><line style="stroke:#2196F3;stroke-width:3.125;" x1="1889.4531" x2="1287.5" y1="826.0498" y2="826.0498"/><polygon fill="#2196F3" points="1297.9167,821.8831,1287.5,826.0498,1297.9167,830.2165,1293.75,826.0498" style="stroke:#2196F3;stroke-width:1.0416666666666667;"/><line style="stroke:#2196F3;stroke-width:3.125;" x1="1275" x2="1275" y1="169.9666" y2="190.8"/><polygon fill="#2196F3" points="1270.8333,180.3833,1275,190.8,1279.1667,180.3833,1275,184.55" style="stroke:#2196F3;stroke-width:1.0416666666666667;"/><line style="stroke:#2196F3;stroke-width:3.125;" x1="1275" x2="1275" y1="838.5498" y2="859.3831"/><polygon fill="#2196F3" points="1270.8333,848.9665,1275,859.3831,1279.1667,848.9665,1275,853.1331" style="stroke:#2196F3;stroke-width:1.0416666666666667;"/><!--SRC=[dLInRjim4Dtr5LTFDf3yW3qKXXDqIeSatRgSgPDpBKMg96N4_PkE7Jhb0mfKFzOJASc271jj5aBGtRrtxzsHxy8JbGGb1dACrxOEcWrb_YkR2XsMa5E1jGwFz1pMcdUc91D0oK5kbDKMXKD5O5ruibdc0xgGBTTvoOPzS9XR1wWKvGG86i6JKjoy69Xz81_YroFk_6oLPSi7qctK6dHWAtAOCZVtdsuap0NC__o-frt4TN0R-5jD0TylGBGOc3yqlnOPm79ZoqfBm45XNLbhT6n1MGCv1kj5MDi7TTMVpLmrBpdlx1NKMrQ9ymgaEUbziMe1rzug5hXHcOYf3LIeXGZig38Mt9fzcv_uK8jejsTneWqc6JSnj6z-QFdlfnBwh5uY711S9pp7qsoXlBF95HcJno_KgYJdnFpPwo2pLQmaxGdc7-s0S_Hta2fKedoBFg96KQjpj4Us8rNqlldvpC7sh2Rd8fkoNz2Gx6BJ6nPn4ieOetCjvt1XFuHel6Y3pBGNMfh6LT-F4CXWtLitvxWA2iijdov3t_Ac2vzVY7ODLQXHy_UXdxSD1dkOLoSptOVpC-bxdapbt7IxsMYMb-7YTFvvFl6gcu9TsQObuE4E9lDxjWd8_rhMWPytJFhmybYETFb1p0RTJW87A3lyA24QsUUUj71XiGIeUtOmFakvdRYURaKyVR3LNm00]--></g></svg>