<?xml version="1.0" encoding="us-ascii" standalone="no"?><svg xmlns="http://www.w3.org/2000/svg" xmlns:xlink="http://www.w3.org/1999/xlink" contentStyleType="text/css" height="582px" preserveAspectRatio="none" style="width:912px;height:582px;background:#FFFFFF;" version="1.1" viewBox="0 0 912 582" width="912px" zoomAndPan="magnify"><defs/><g><text fill="#000000" font-family="sans-serif" font-size="14" font-weight="bold" lengthAdjust="spacing" textLength="188" x="355.25" y="24.5332">Base de Datos Documental</text><!--class config_dispositivo--><g id="elem_config_dispositivo"><rect codeLine="16" fill="#D3D3D3" height="234.7969" id="config_dispositivo" rx="2.5" ry="2.5" style="stroke:#000000;stroke-width:0.5;" width="172" x="355.5" y="45.6094"/><ellipse cx="377.25" cy="66.9609" fill="#ADD1B2" rx="11" ry="11" style="stroke:#181818;stroke-width:1.0;"/><path d="M376.1094,67.7578 L376.1094,70.2578 L380.4375,70.2578 L380.4375,69.3359 Q380.4375,68.7266 380.6719,68.4609 Q380.9219,68.1953 381.2969,68.1953 Q381.6719,68.1953 381.9063,68.4609 Q382.1406,68.7266 382.1406,69.3359 L382.1406,71.9609 L374.1406,71.9609 Q373.5156,71.9609 373.25,71.7266 Q373,71.4922 373,71.1016 Q373,70.7266 373.2656,70.4922 Q373.5313,70.2578 374.1406,70.2578 L374.4063,70.2578 L374.4063,63.6016 L374.1406,63.6016 Q373.5156,63.6016 373.25,63.3672 Q373,63.1328 373,62.7422 Q373,62.3672 373.25,62.1328 Q373.5156,61.8984 374.1406,61.8984 L381.7656,61.8984 L381.7656,64.4922 Q381.7656,65.1016 381.5313,65.3672 Q381.3125,65.6172 380.9219,65.6172 Q380.5469,65.6172 380.3125,65.3672 Q380.0781,65.1016 380.0781,64.4922 L380.0781,63.6016 L376.1094,63.6016 L376.1094,66.0547 L377.5938,66.0547 Q377.5938,65.3984 377.7188,65.2109 Q377.9844,64.8047 378.4531,64.8047 Q378.8281,64.8047 379.0625,65.0703 Q379.2969,65.3203 379.2969,65.9297 L379.2969,67.8984 Q379.2969,68.4453 379.1719,68.6328 Q378.9063,69.0234 378.4531,69.0234 Q377.9844,69.0234 377.7188,68.6172 Q377.5938,68.4297 377.5938,67.7578 L376.1094,67.7578 Z " fill="#000000"/><text fill="#000000" font-family="sans-serif" font-size="12" font-style="italic" lengthAdjust="spacing" textLength="50" x="430.25" y="63.0664">&#171;Config&#187;</text><text fill="#000000" font-family="sans-serif" font-size="14" font-weight="bold" lengthAdjust="spacing" textLength="125" x="392.75" y="80.2363">ConfigDispositivo</text><line style="stroke:#000000;stroke-width:0.5;" x1="356.5" x2="526.5" y1="88.3125" y2="88.3125"/><text fill="#000000" font-family="sans-serif" font-size="14" font-weight="bold" lengthAdjust="spacing" textLength="21" x="361.5" y="106.8457">_id</text><text fill="#000000" font-family="sans-serif" font-size="14" lengthAdjust="spacing" textLength="43" x="382.5" y="106.8457">: string</text><text fill="#000000" font-family="sans-serif" font-size="14" font-weight="bold" lengthAdjust="spacing" textLength="30" x="361.5" y="124.4551">type</text><text fill="#000000" font-family="sans-serif" font-size="14" lengthAdjust="spacing" textLength="130" x="391.5" y="124.4551">: "config_dispositivo"</text><text fill="#000000" font-family="sans-serif" font-size="14" lengthAdjust="spacing" textLength="89" x="361.5" y="142.0645">modelo: string</text><text fill="#000000" font-family="sans-serif" font-size="14" lengthAdjust="spacing" textLength="106" x="361.5" y="159.6738">fabricante: string</text><text fill="#000000" font-family="sans-serif" font-size="14" lengthAdjust="spacing" textLength="122" x="361.5" y="177.2832">frecuencia: decimal</text><text fill="#000000" font-family="sans-serif" font-size="14" lengthAdjust="spacing" textLength="153" x="361.5" y="194.8926">estado_operativo: string</text><text fill="#000000" font-family="sans-serif" font-size="14" lengthAdjust="spacing" textLength="153" x="361.5" y="212.502">fecha_registro: datetime</text><text fill="#000000" font-family="sans-serif" font-size="14" lengthAdjust="spacing" textLength="73" x="361.5" y="230.1113">ubicacion: {</text><text fill="#000000" font-family="sans-serif" font-size="14" lengthAdjust="spacing" textLength="91" x="361.5" y="247.7207">bodega: string</text><text fill="#000000" font-family="sans-serif" font-size="14" lengthAdjust="spacing" textLength="112" x="361.5" y="265.3301">ubicacion: string }</text><line style="stroke:#000000;stroke-width:0.5;" x1="356.5" x2="526.5" y1="272.4063" y2="272.4063"/></g><!--class log_transacciones--><g id="elem_log_transacciones"><rect codeLine="29" fill="#90EE90" height="234.7969" id="log_transacciones" rx="2.5" ry="2.5" style="stroke:#000000;stroke-width:0.5;" width="175" x="7" y="340.6094"/><ellipse cx="28.75" cy="361.9609" fill="#ADD1B2" rx="11" ry="11" style="stroke:#181818;stroke-width:1.0;"/><path d="M27.6094,362.7578 L27.6094,365.2578 L31.9375,365.2578 L31.9375,364.3359 Q31.9375,363.7266 32.1719,363.4609 Q32.4219,363.1953 32.7969,363.1953 Q33.1719,363.1953 33.4063,363.4609 Q33.6406,363.7266 33.6406,364.3359 L33.6406,366.9609 L25.6406,366.9609 Q25.0156,366.9609 24.75,366.7266 Q24.5,366.4922 24.5,366.1016 Q24.5,365.7266 24.7656,365.4922 Q25.0313,365.2578 25.6406,365.2578 L25.9063,365.2578 L25.9063,358.6016 L25.6406,358.6016 Q25.0156,358.6016 24.75,358.3672 Q24.5,358.1328 24.5,357.7422 Q24.5,357.3672 24.75,357.1328 Q25.0156,356.8984 25.6406,356.8984 L33.2656,356.8984 L33.2656,359.4922 Q33.2656,360.1016 33.0313,360.3672 Q32.8125,360.6172 32.4219,360.6172 Q32.0469,360.6172 31.8125,360.3672 Q31.5781,360.1016 31.5781,359.4922 L31.5781,358.6016 L27.6094,358.6016 L27.6094,361.0547 L29.0938,361.0547 Q29.0938,360.3984 29.2188,360.2109 Q29.4844,359.8047 29.9531,359.8047 Q30.3281,359.8047 30.5625,360.0703 Q30.7969,360.3203 30.7969,360.9297 L30.7969,362.8984 Q30.7969,363.4453 30.6719,363.6328 Q30.4063,364.0234 29.9531,364.0234 Q29.4844,364.0234 29.2188,363.6172 Q29.0938,363.4297 29.0938,362.7578 L27.6094,362.7578 Z " fill="#000000"/><text fill="#000000" font-family="sans-serif" font-size="12" font-style="italic" lengthAdjust="spacing" textLength="41" x="87.75" y="358.0664">&#171;Logs&#187;</text><text fill="#000000" font-family="sans-serif" font-size="14" font-weight="bold" lengthAdjust="spacing" textLength="128" x="44.25" y="375.2363">LogTransacciones</text><line style="stroke:#000000;stroke-width:0.5;" x1="8" x2="181" y1="383.3125" y2="383.3125"/><text fill="#000000" font-family="sans-serif" font-size="14" font-weight="bold" lengthAdjust="spacing" textLength="21" x="13" y="401.8457">_id</text><text fill="#000000" font-family="sans-serif" font-size="14" lengthAdjust="spacing" textLength="43" x="34" y="401.8457">: string</text><text fill="#000000" font-family="sans-serif" font-size="14" font-weight="bold" lengthAdjust="spacing" textLength="30" x="13" y="419.4551">type</text><text fill="#000000" font-family="sans-serif" font-size="14" lengthAdjust="spacing" textLength="133" x="43" y="419.4551">: "log_transacciones"</text><text fill="#000000" font-family="sans-serif" font-size="14" lengthAdjust="spacing" textLength="126" x="13" y="437.0645">timestamp: datetime</text><text fill="#000000" font-family="sans-serif" font-size="14" lengthAdjust="spacing" textLength="128" x="13" y="454.6738">dispositivo_id: string</text><text fill="#000000" font-family="sans-serif" font-size="14" lengthAdjust="spacing" textLength="86" x="13" y="472.2832">evento: string</text><text fill="#000000" font-family="sans-serif" font-size="14" lengthAdjust="spacing" textLength="62" x="13" y="489.8926">detalles: {</text><text fill="#000000" font-family="sans-serif" font-size="14" lengthAdjust="spacing" textLength="144" x="13" y="507.502">codigo_etiqueta: string</text><text fill="#000000" font-family="sans-serif" font-size="14" lengthAdjust="spacing" textLength="103" x="13" y="525.1113">ubicacion: string</text><text fill="#000000" font-family="sans-serif" font-size="14" lengthAdjust="spacing" textLength="94" x="13" y="542.7207">latitud: decimal</text><text fill="#000000" font-family="sans-serif" font-size="14" lengthAdjust="spacing" textLength="115" x="13" y="560.3301">longitud: decimal }</text><line style="stroke:#000000;stroke-width:0.5;" x1="8" x2="181" y1="567.4063" y2="567.4063"/></g><!--class estado_dispositivo--><g id="elem_estado_dispositivo"><rect codeLine="42" fill="#FFA07A" height="181.9688" id="estado_dispositivo" rx="2.5" ry="2.5" style="stroke:#000000;stroke-width:0.5;" width="205" x="217" y="367.1094"/><ellipse cx="252.7" cy="388.4609" fill="#ADD1B2" rx="11" ry="11" style="stroke:#181818;stroke-width:1.0;"/><path d="M251.5594,389.2578 L251.5594,391.7578 L255.8875,391.7578 L255.8875,390.8359 Q255.8875,390.2266 256.1219,389.9609 Q256.3719,389.6953 256.7469,389.6953 Q257.1219,389.6953 257.3563,389.9609 Q257.5906,390.2266 257.5906,390.8359 L257.5906,393.4609 L249.5906,393.4609 Q248.9656,393.4609 248.7,393.2266 Q248.45,392.9922 248.45,392.6016 Q248.45,392.2266 248.7156,391.9922 Q248.9813,391.7578 249.5906,391.7578 L249.8563,391.7578 L249.8563,385.1016 L249.5906,385.1016 Q248.9656,385.1016 248.7,384.8672 Q248.45,384.6328 248.45,384.2422 Q248.45,383.8672 248.7,383.6328 Q248.9656,383.3984 249.5906,383.3984 L257.2156,383.3984 L257.2156,385.9922 Q257.2156,386.6016 256.9813,386.8672 Q256.7625,387.1172 256.3719,387.1172 Q255.9969,387.1172 255.7625,386.8672 Q255.5281,386.6016 255.5281,385.9922 L255.5281,385.1016 L251.5594,385.1016 L251.5594,387.5547 L253.0438,387.5547 Q253.0438,386.8984 253.1688,386.7109 Q253.4344,386.3047 253.9031,386.3047 Q254.2781,386.3047 254.5125,386.5703 Q254.7469,386.8203 254.7469,387.4297 L254.7469,389.3984 Q254.7469,389.9453 254.6219,390.1328 Q254.3563,390.5234 253.9031,390.5234 Q253.4344,390.5234 253.1688,390.1172 Q253.0438,389.9297 253.0438,389.2578 L251.5594,389.2578 Z " fill="#000000"/><text fill="#000000" font-family="sans-serif" font-size="12" font-style="italic" lengthAdjust="spacing" textLength="52" x="308.8" y="384.5664">&#171;Estado&#187;</text><text fill="#000000" font-family="sans-serif" font-size="14" font-weight="bold" lengthAdjust="spacing" textLength="127" x="271.3" y="401.7363">EstadoDispositivo</text><line style="stroke:#000000;stroke-width:0.5;" x1="218" x2="421" y1="409.8125" y2="409.8125"/><text fill="#000000" font-family="sans-serif" font-size="14" font-weight="bold" lengthAdjust="spacing" textLength="21" x="223" y="428.3457">_id</text><text fill="#000000" font-family="sans-serif" font-size="14" lengthAdjust="spacing" textLength="43" x="244" y="428.3457">: string</text><text fill="#000000" font-family="sans-serif" font-size="14" font-weight="bold" lengthAdjust="spacing" textLength="30" x="223" y="445.9551">type</text><text fill="#000000" font-family="sans-serif" font-size="14" lengthAdjust="spacing" textLength="135" x="253" y="445.9551">: "estado_dispositivo"</text><text fill="#000000" font-family="sans-serif" font-size="14" lengthAdjust="spacing" textLength="128" x="223" y="463.5645">dispositivo_id: string</text><text fill="#000000" font-family="sans-serif" font-size="14" lengthAdjust="spacing" textLength="86" x="223" y="481.1738">estado: string</text><text fill="#000000" font-family="sans-serif" font-size="14" lengthAdjust="spacing" textLength="124" x="223" y="498.7832">nivel_bateria: string</text><text fill="#000000" font-family="sans-serif" font-size="14" lengthAdjust="spacing" textLength="190" x="223" y="516.3926">potencia_transmision: decimal</text><text fill="#000000" font-family="sans-serif" font-size="14" lengthAdjust="spacing" textLength="193" x="223" y="534.002">ultima_comunicacion: datetime</text><line style="stroke:#000000;stroke-width:0.5;" x1="218" x2="421" y1="541.0781" y2="541.0781"/></g><!--class historial_actualizaciones--><g id="elem_historial_actualizaciones"><rect codeLine="52" fill="#ADD8E6" height="199.5781" id="historial_actualizaciones" rx="2.5" ry="2.5" style="stroke:#000000;stroke-width:0.5;" width="213" x="457" y="358.1094"/><ellipse cx="478.3" cy="379.4609" fill="#ADD1B2" rx="11" ry="11" style="stroke:#181818;stroke-width:1.0;"/><path d="M477.1594,380.2578 L477.1594,382.7578 L481.4875,382.7578 L481.4875,381.8359 Q481.4875,381.2266 481.7219,380.9609 Q481.9719,380.6953 482.3469,380.6953 Q482.7219,380.6953 482.9563,380.9609 Q483.1906,381.2266 483.1906,381.8359 L483.1906,384.4609 L475.1906,384.4609 Q474.5656,384.4609 474.3,384.2266 Q474.05,383.9922 474.05,383.6016 Q474.05,383.2266 474.3156,382.9922 Q474.5813,382.7578 475.1906,382.7578 L475.4563,382.7578 L475.4563,376.1016 L475.1906,376.1016 Q474.5656,376.1016 474.3,375.8672 Q474.05,375.6328 474.05,375.2422 Q474.05,374.8672 474.3,374.6328 Q474.5656,374.3984 475.1906,374.3984 L482.8156,374.3984 L482.8156,376.9922 Q482.8156,377.6016 482.5813,377.8672 Q482.3625,378.1172 481.9719,378.1172 Q481.5969,378.1172 481.3625,377.8672 Q481.1281,377.6016 481.1281,376.9922 L481.1281,376.1016 L477.1594,376.1016 L477.1594,378.5547 L478.6438,378.5547 Q478.6438,377.8984 478.7688,377.7109 Q479.0344,377.3047 479.5031,377.3047 Q479.8781,377.3047 480.1125,377.5703 Q480.3469,377.8203 480.3469,378.4297 L480.3469,380.3984 Q480.3469,380.9453 480.2219,381.1328 Q479.9563,381.5234 479.5031,381.5234 Q479.0344,381.5234 478.7688,381.1172 Q478.6438,380.9297 478.6438,380.2578 L477.1594,380.2578 Z " fill="#000000"/><text fill="#000000" font-family="sans-serif" font-size="12" font-style="italic" lengthAdjust="spacing" textLength="59" x="547.7" y="375.5664">&#171;Historial&#187;</text><text fill="#000000" font-family="sans-serif" font-size="14" font-weight="bold" lengthAdjust="spacing" textLength="167" x="493.7" y="392.7363">HistorialActualizaciones</text><line style="stroke:#000000;stroke-width:0.5;" x1="458" x2="669" y1="400.8125" y2="400.8125"/><text fill="#000000" font-family="sans-serif" font-size="14" font-weight="bold" lengthAdjust="spacing" textLength="21" x="463" y="419.3457">_id</text><text fill="#000000" font-family="sans-serif" font-size="14" lengthAdjust="spacing" textLength="43" x="484" y="419.3457">: string</text><text fill="#000000" font-family="sans-serif" font-size="14" font-weight="bold" lengthAdjust="spacing" textLength="30" x="463" y="436.9551">type</text><text fill="#000000" font-family="sans-serif" font-size="14" lengthAdjust="spacing" textLength="171" x="493" y="436.9551">: "historial_actualizaciones"</text><text fill="#000000" font-family="sans-serif" font-size="14" lengthAdjust="spacing" textLength="128" x="463" y="454.5645">dispositivo_id: string</text><text fill="#000000" font-family="sans-serif" font-size="14" lengthAdjust="spacing" textLength="113" x="463" y="472.1738">actualizaciones: [{</text><text fill="#000000" font-family="sans-serif" font-size="14" lengthAdjust="spacing" textLength="126" x="463" y="489.7832">timestamp: datetime</text><text fill="#000000" font-family="sans-serif" font-size="14" lengthAdjust="spacing" textLength="164" x="463" y="507.3926">campo_actualizado: string</text><text fill="#000000" font-family="sans-serif" font-size="14" lengthAdjust="spacing" textLength="131" x="463" y="525.002">valor_anterior: string</text><text fill="#000000" font-family="sans-serif" font-size="14" lengthAdjust="spacing" textLength="134" x="463" y="542.6113">nuevo_valor: string }]</text><line style="stroke:#000000;stroke-width:0.5;" x1="458" x2="669" y1="549.6875" y2="549.6875"/></g><!--class alertas_dispositivo--><g id="elem_alertas_dispositivo"><rect codeLine="63" fill="#FF6347" height="199.5781" id="alertas_dispositivo" rx="2.5" ry="2.5" style="stroke:#000000;stroke-width:0.5;" width="200" x="705.5" y="358.1094"/><ellipse cx="738.5" cy="379.4609" fill="#ADD1B2" rx="11" ry="11" style="stroke:#181818;stroke-width:1.0;"/><path d="M737.3594,380.2578 L737.3594,382.7578 L741.6875,382.7578 L741.6875,381.8359 Q741.6875,381.2266 741.9219,380.9609 Q742.1719,380.6953 742.5469,380.6953 Q742.9219,380.6953 743.1563,380.9609 Q743.3906,381.2266 743.3906,381.8359 L743.3906,384.4609 L735.3906,384.4609 Q734.7656,384.4609 734.5,384.2266 Q734.25,383.9922 734.25,383.6016 Q734.25,383.2266 734.5156,382.9922 Q734.7813,382.7578 735.3906,382.7578 L735.6563,382.7578 L735.6563,376.1016 L735.3906,376.1016 Q734.7656,376.1016 734.5,375.8672 Q734.25,375.6328 734.25,375.2422 Q734.25,374.8672 734.5,374.6328 Q734.7656,374.3984 735.3906,374.3984 L743.0156,374.3984 L743.0156,376.9922 Q743.0156,377.6016 742.7813,377.8672 Q742.5625,378.1172 742.1719,378.1172 Q741.7969,378.1172 741.5625,377.8672 Q741.3281,377.6016 741.3281,376.9922 L741.3281,376.1016 L737.3594,376.1016 L737.3594,378.5547 L738.8438,378.5547 Q738.8438,377.8984 738.9688,377.7109 Q739.2344,377.3047 739.7031,377.3047 Q740.0781,377.3047 740.3125,377.5703 Q740.5469,377.8203 740.5469,378.4297 L740.5469,380.3984 Q740.5469,380.9453 740.4219,381.1328 Q740.1563,381.5234 739.7031,381.5234 Q739.2344,381.5234 738.9688,381.1172 Q738.8438,380.9297 738.8438,380.2578 L737.3594,380.2578 Z " fill="#000000"/><text fill="#000000" font-family="sans-serif" font-size="12" font-style="italic" lengthAdjust="spacing" textLength="52" x="794.5" y="375.5664">&#171;Alertas&#187;</text><text fill="#000000" font-family="sans-serif" font-size="14" font-weight="bold" lengthAdjust="spacing" textLength="128" x="756.5" y="392.7363">AlertasDispositivo</text><line style="stroke:#000000;stroke-width:0.5;" x1="706.5" x2="904.5" y1="400.8125" y2="400.8125"/><text fill="#000000" font-family="sans-serif" font-size="14" font-weight="bold" lengthAdjust="spacing" textLength="21" x="711.5" y="419.3457">_id</text><text fill="#000000" font-family="sans-serif" font-size="14" lengthAdjust="spacing" textLength="43" x="732.5" y="419.3457">: string</text><text fill="#000000" font-family="sans-serif" font-size="14" font-weight="bold" lengthAdjust="spacing" textLength="30" x="711.5" y="436.9551">type</text><text fill="#000000" font-family="sans-serif" font-size="14" lengthAdjust="spacing" textLength="135" x="741.5" y="436.9551">: "alertas_dispositivo"</text><text fill="#000000" font-family="sans-serif" font-size="14" lengthAdjust="spacing" textLength="126" x="711.5" y="454.5645">timestamp: datetime</text><text fill="#000000" font-family="sans-serif" font-size="14" lengthAdjust="spacing" textLength="128" x="711.5" y="472.1738">dispositivo_id: string</text><text fill="#000000" font-family="sans-serif" font-size="14" lengthAdjust="spacing" textLength="110" x="711.5" y="489.7832">tipo_alerta: string</text><text fill="#000000" font-family="sans-serif" font-size="14" lengthAdjust="spacing" textLength="62" x="711.5" y="507.3926">detalles: {</text><text fill="#000000" font-family="sans-serif" font-size="14" lengthAdjust="spacing" textLength="124" x="711.5" y="525.002">nivel_bateria: string</text><text fill="#000000" font-family="sans-serif" font-size="14" lengthAdjust="spacing" textLength="188" x="711.5" y="542.6113">accion_recomendada: string }</text><line style="stroke:#000000;stroke-width:0.5;" x1="706.5" x2="904.5" y1="549.6875" y2="549.6875"/></g><!--link config_dispositivo to log_transacciones--><g id="link_config_dispositivo_log_transacciones"><path codeLine="74" d="M377.67,288.6894 C377.67,325.9394 377.67,349.6094 377.67,349.6094 C377.67,349.6094 283.32,349.6094 200.16,349.6094 " fill="none" id="config_dispositivo-log_transacciones" style="stroke:#181818;stroke-width:1.0;"/><line style="stroke:#181818;stroke-width:1.0;" x1="373.67" x2="381.67" y1="284.6894" y2="284.6894"/><line style="stroke:#181818;stroke-width:1.0;" x1="373.67" x2="381.67" y1="287.6894" y2="287.6894"/><line style="stroke:#181818;stroke-width:1.0;" x1="377.67" x2="377.67" y1="288.6894" y2="280.6894"/><line style="stroke:#181818;stroke-width:1.0;" x1="190.16" x2="182.16" y1="349.6094" y2="355.6094"/><line style="stroke:#181818;stroke-width:1.0;" x1="190.16" x2="182.16" y1="349.6094" y2="343.6094"/><line style="stroke:#181818;stroke-width:1.0;" x1="190.16" x2="182.16" y1="349.6094" y2="349.6094"/><ellipse cx="196.16" cy="349.6094" fill="none" rx="4" ry="4" style="stroke:#181818;stroke-width:1.0;"/><text fill="#000000" font-family="sans-serif" font-size="13" font-weight="bold" lengthAdjust="spacing" textLength="45" x="268.37" y="346.1045">genera</text></g><!--link config_dispositivo to estado_dispositivo--><g id="link_config_dispositivo_estado_dispositivo"><path codeLine="75" d="M399.83,288.9694 C399.83,317.5394 399.83,321.6494 399.83,348.7894 " fill="none" id="config_dispositivo-estado_dispositivo" style="stroke:#181818;stroke-width:1.0;"/><line style="stroke:#181818;stroke-width:1.0;" x1="395.83" x2="403.83" y1="284.9694" y2="284.9694"/><line style="stroke:#181818;stroke-width:1.0;" x1="395.83" x2="403.83" y1="287.9694" y2="287.9694"/><line style="stroke:#181818;stroke-width:1.0;" x1="399.83" x2="399.83" y1="288.9694" y2="280.9694"/><line style="stroke:#181818;stroke-width:1.0;" x1="399.83" x2="405.83" y1="358.7894" y2="366.7894"/><line style="stroke:#181818;stroke-width:1.0;" x1="399.83" x2="393.83" y1="358.7894" y2="366.7894"/><line style="stroke:#181818;stroke-width:1.0;" x1="399.83" x2="399.83" y1="358.7894" y2="366.7894"/><ellipse cx="399.83" cy="352.7894" fill="none" rx="4" ry="4" style="stroke:#181818;stroke-width:1.0;"/><text fill="#000000" font-family="sans-serif" font-size="13" font-weight="bold" lengthAdjust="spacing" textLength="32" x="366.83" y="320.3745">tiene</text></g><!--link config_dispositivo to historial_actualizaciones--><g id="link_config_dispositivo_historial_actualizaciones"><path codeLine="76" d="M492.25,288.9694 C492.25,314.4894 492.25,315.2394 492.25,339.9994 " fill="none" id="config_dispositivo-historial_actualizaciones" style="stroke:#181818;stroke-width:1.0;"/><line style="stroke:#181818;stroke-width:1.0;" x1="488.25" x2="496.25" y1="284.9694" y2="284.9694"/><line style="stroke:#181818;stroke-width:1.0;" x1="488.25" x2="496.25" y1="287.9694" y2="287.9694"/><line style="stroke:#181818;stroke-width:1.0;" x1="492.25" x2="492.25" y1="288.9694" y2="280.9694"/><line style="stroke:#181818;stroke-width:1.0;" x1="492.25" x2="498.25" y1="349.9994" y2="357.9994"/><line style="stroke:#181818;stroke-width:1.0;" x1="492.25" x2="486.25" y1="349.9994" y2="357.9994"/><line style="stroke:#181818;stroke-width:1.0;" x1="492.25" x2="492.25" y1="349.9994" y2="357.9994"/><ellipse cx="492.25" cy="343.9994" fill="none" rx="4" ry="4" style="stroke:#181818;stroke-width:1.0;"/><text fill="#000000" font-family="sans-serif" font-size="13" font-weight="bold" lengthAdjust="spacing" textLength="58" x="433.25" y="315.9845">actualiza</text></g><!--link config_dispositivo to alertas_dispositivo--><g id="link_config_dispositivo_alertas_dispositivo"><path codeLine="77" d="M535.76,163.6094 C643.4,163.6094 805.5,163.6094 805.5,163.6094 C805.5,163.6094 805.5,254.6194 805.5,339.9894 " fill="none" id="config_dispositivo-alertas_dispositivo" style="stroke:#181818;stroke-width:1.0;"/><line style="stroke:#181818;stroke-width:1.0;" x1="531.76" x2="531.76" y1="167.6094" y2="159.6094"/><line style="stroke:#181818;stroke-width:1.0;" x1="534.76" x2="534.76" y1="167.6094" y2="159.6094"/><line style="stroke:#181818;stroke-width:1.0;" x1="535.76" x2="527.76" y1="163.6094" y2="163.6094"/><line style="stroke:#181818;stroke-width:1.0;" x1="805.5" x2="811.5" y1="349.9894" y2="357.9894"/><line style="stroke:#181818;stroke-width:1.0;" x1="805.5" x2="799.5" y1="349.9894" y2="357.9894"/><line style="stroke:#181818;stroke-width:1.0;" x1="805.5" x2="805.5" y1="349.9894" y2="357.9894"/><ellipse cx="805.5" cy="343.9894" fill="none" rx="4" ry="4" style="stroke:#181818;stroke-width:1.0;"/><text fill="#000000" font-family="sans-serif" font-size="13" font-weight="bold" lengthAdjust="spacing" textLength="36" x="726.82" y="160.1045">emite</text></g><!--SRC=[bLLHQ-Cm37xFhp2zXuF0OB1ZkvKnwDQEUxZ7lHr7K6qjCtEidksKsstxxoSxNUgqQSTIA4Nwf4YVFgb11uFY1ZmAXM8EWRoOasmRj05CKVWdRLVWe67t0xGctEFVC3EwjX4X97-Xor16MmpFAnJamYCLnLTnIuOSUh52vyc2qVz0yKiYN1ZmWZDe1GfzbaMomukNGl1p0_AfTjHQbJ9TNTsIVT3rzRNuCZ-Bdt7KJwfzn5oUBXQNf-EOXGzSIqJTtSrEBsRZg1_Q1t8QJ0JEvlFlY_DnuCoW2-2xVETdtouw63c5Ba74ZU6OugqeOjFXMKpAikjchlsAl0vwJMKv4KoBJFPARHqYQprIKvQLLcKv5JuuRMkHJ97xQ9linqyOq912G-yXR7Y0fTCIU8gvqQ5iqKeDKnwxr0qhGGXCR5N4WuIOBmz0-GYLmvgfSknG433e1jdLBZczr6IdctakkOGQik01PjFBsv0a7kQz0-j1HXJw3KU6wYhaTj7F_ME2ze8ZFx5eRhDP3Nh8IEICMUcuvXfp8XJorXZqxyrAKhgcYXFzQTbrlEjaDSnjQ5LEF1l9rWFhBa6TalTLj9dPK4Mzx4T86dAq7puvI8Ve9PBbidgDfbeobKxdtQye97rr4sYqJpHiM-P3mxygIKrhUvRwYGnQxzTp9aERpij08u_lxWg6VZ7Sx8y5Sp3Jv9X4Th1JyQjJnY6j9TMmaRPl6J0QdpNmCQdYqZfDRiTfM-GQ4cIxJh-7d6qkrRvUe7Fi26Pxs3vcQIJ3PnTB97na8EKwibw7v1LfZtppIM89eUN_5nZUbf7p-lfwSa8l8qTb6YchqVBTOvgEX8viMueDceEFXnwMQShG6uzd6HjVYiT6XrZ1Vm00]--></g></svg>